M48
; DRILL file {KiCad 8.0.4-8.0.4-0~ubuntu22.04.1} date 2024-08-04T23:41:14-0300
; FORMAT={-:-/ absolute / inch / decimal}
; #@! TF.CreationDate,2024-08-04T23:41:14-03:00
; #@! TF.GenerationSoftware,Kicad,Pcbnew,8.0.4-8.0.4-0~ubuntu22.04.1
; #@! TF.FileFunction,Plated,1,2,PTH
FMAT,2
INCH
; #@! TA.AperFunction,Plated,PTH,ViaDrill
T1C0.0157
; #@! TA.AperFunction,Plated,PTH,ViaDrill
T2C0.0197
; #@! TA.AperFunction,Plated,PTH,ComponentDrill
T3C0.0236
; #@! TA.AperFunction,Plated,PTH,ComponentDrill
T4C0.0295
; #@! TA.AperFunction,Plated,PTH,ComponentDrill
T5C0.0315
; #@! TA.AperFunction,Plated,PTH,ComponentDrill
T6C0.0354
; #@! TA.AperFunction,Plated,PTH,ComponentDrill
T7C0.0394
; #@! TA.AperFunction,Plated,PTH,ComponentDrill
T8C0.0398
; #@! TA.AperFunction,Plated,PTH,ComponentDrill
T9C0.0402
; #@! TA.AperFunction,Plated,PTH,ComponentDrill
T10C0.0472
; #@! TA.AperFunction,Plated,PTH,ComponentDrill
T11C0.0512
; #@! TA.AperFunction,Plated,PTH,ComponentDrill
T12C0.0551
; #@! TA.AperFunction,Plated,PTH,ComponentDrill
T13C0.0591
; #@! TA.AperFunction,Plated,PTH,ComponentDrill
T14C0.0630
; #@! TA.AperFunction,Plated,PTH,ComponentDrill
T15C0.1181
%
G90
G05
T1
X5.975Y-5.375
T2
X5.06Y-5.0
X5.06Y-5.415
X5.18Y-5.28
X5.225Y-3.175
X5.25Y-5.375
X5.35Y-5.7
X5.375Y-2.52
X5.595Y-3.36
X5.675Y-5.425
X5.72Y-4.985
X5.75Y-2.5
X5.75Y-2.975
X5.75Y-5.125
X5.775Y-5.225
X5.8Y-5.675
X6.0Y-5.125
X6.025Y-5.525
X6.225Y-3.25
X6.275Y-5.65
X6.3451Y-5.4201
X6.35Y-2.75
X6.45Y-3.175
X6.465Y-3.33
X6.465Y-4.06
X6.475Y-2.825
X6.5Y-4.5
X6.55Y-4.78
X6.55Y-5.025
X6.55Y-5.175
X6.625Y-5.55
X6.675Y-3.075
X6.725Y-4.0
X6.85Y-3.15
X6.86Y-5.1
X6.975Y-3.975
X7.0Y-4.375
X7.02Y-3.29
X7.025Y-3.075
X7.025Y-3.4
X7.05Y-4.12
X7.225Y-4.075
X7.255Y-3.33
X7.26Y-5.08
X7.26Y-5.43
X7.325Y-4.95
T3
X5.3Y-5.5
X5.3Y-5.5787
T4
X5.85Y-5.25
X5.9Y-5.2
X5.9Y-5.3
X6.15Y-5.3
X6.15Y-5.55
X6.2Y-5.25
X6.2Y-5.5
X6.25Y-5.3
X6.25Y-5.55
X6.6Y-2.95
X6.65Y-2.95
X6.7Y-2.95
T5
X3.8Y-4.35
X3.9969Y-4.35
X4.8808Y-4.6808
X5.0Y-4.1781
X5.0Y-4.375
X5.02Y-4.82
X5.4Y-5.1016
X5.4Y-5.2
X5.5Y-5.5
X5.5Y-5.5984
X5.9Y-3.1
X6.0969Y-3.1
X6.2531Y-4.65
X6.45Y-4.65
X6.5Y-2.5
X6.5Y-2.6378
X6.7122Y-4.95
X6.725Y-5.225
X6.75Y-5.4516
X6.75Y-5.55
X6.8Y-3.5
X6.8Y-3.8
X6.825Y-5.225
X6.85Y-2.85
X6.85Y-2.95
X6.85Y-3.0484
X6.85Y-4.95
X6.9Y-3.5
X6.9Y-3.8
X6.9484Y-2.85
X7.0Y-5.4516
X7.0Y-5.55
X7.1Y-3.5
X7.1Y-3.8
X7.2Y-3.5
X7.2Y-3.8
X7.25Y-4.2531
X7.25Y-4.45
T6
X6.9Y-2.55
X6.9Y-2.65
T7
X3.275Y-5.2
X3.5703Y-5.2
X3.9724Y-5.2
X4.2676Y-5.2
X4.6724Y-5.2
X4.9676Y-5.2
X5.3797Y-2.7
X5.675Y-2.7
T8
X3.3Y-3.275
X3.3472Y-2.8734
X4.45Y-3.25
X4.4972Y-2.8484
T9
X7.2Y-2.85
X7.2Y-2.95
X7.2Y-3.05
T10
X3.4Y-3.9
X3.45Y-3.6
X3.45Y-4.15
X3.6539Y-2.9031
X3.6539Y-3.2969
X3.675Y-5.65
X3.7Y-3.9
X3.75Y-3.6
X3.75Y-4.15
X3.975Y-5.65
X4.05Y-3.6
X4.05Y-4.15
X4.1Y-3.9
X4.1461Y-2.9031
X4.1461Y-3.2969
X4.2Y-5.65
X4.35Y-3.6
X4.35Y-4.15
X4.4Y-3.9
X4.5Y-5.65
X4.75Y-4.15
X4.75Y-4.45
X4.75Y-5.65
X5.05Y-5.65
X6.25Y-4.9
X6.35Y-2.9
X6.35Y-3.1
X6.45Y-4.9
X6.7Y-4.45
X6.7Y-4.65
X7.0Y-4.675
X7.3Y-4.675
T11
X5.9795Y-2.725
X6.2Y-2.725
T12
X5.275Y-4.9
X5.275Y-5.1
T13
X4.66Y-4.74
X5.24Y-4.66
X5.4079Y-4.2429
X5.5209Y-4.9
X5.7354Y-4.6244
X5.8016Y-3.3571
X5.8016Y-4.2429
X5.95Y-4.9
X5.9984Y-3.3571
X6.1953Y-4.2429
X6.3921Y-4.2429
X6.745Y-4.245
T14
X5.3697Y-3.15
X5.5697Y-3.15
T15
X3.65Y-2.6
X4.175Y-2.6
M30
