%TF.GenerationSoftware,KiCad,Pcbnew,6.0.2+dfsg-1*%
%TF.CreationDate,2024-06-07T15:20:49-03:00*%
%TF.ProjectId,tesla_smps,7465736c-615f-4736-9d70-732e6b696361,0.2.0*%
%TF.SameCoordinates,Original*%
%TF.FileFunction,Other,ECO1*%
%FSLAX46Y46*%
G04 Gerber Fmt 4.6, Leading zero omitted, Abs format (unit mm)*
G04 Created by KiCad (PCBNEW 6.0.2+dfsg-1) date 2024-06-07 15:20:49*
%MOMM*%
%LPD*%
G01*
G04 APERTURE LIST*
%ADD10C,0.100000*%
%ADD11C,0.150000*%
%ADD12C,0.300000*%
%ADD13C,0.400000*%
%TA.AperFunction,Profile*%
%ADD14C,0.150000*%
%TD*%
G04 APERTURE END LIST*
D10*
D11*
X177002200Y-166007200D02*
X177002200Y-198007200D01*
X285002200Y-198007200D01*
X285002200Y-166007200D01*
X177002200Y-166007200D01*
D10*
D11*
X10000000Y-10000000D02*
X10000000Y-200007200D01*
X287002200Y-200007200D01*
X287002200Y-10000000D01*
X10000000Y-10000000D01*
D10*
D11*
X12000000Y-12000000D02*
X12000000Y-198007200D01*
X285002200Y-198007200D01*
X285002200Y-12000000D01*
X12000000Y-12000000D01*
D10*
D11*
X60000000Y-12000000D02*
X60000000Y-10000000D01*
D10*
D11*
X110000000Y-12000000D02*
X110000000Y-10000000D01*
D10*
D11*
X160000000Y-12000000D02*
X160000000Y-10000000D01*
D10*
D11*
X210000000Y-12000000D02*
X210000000Y-10000000D01*
D10*
D11*
X260000000Y-12000000D02*
X260000000Y-10000000D01*
D10*
D11*
X36065476Y-11588095D02*
X35322619Y-11588095D01*
X35694047Y-11588095D02*
X35694047Y-10288095D01*
X35570238Y-10473809D01*
X35446428Y-10597619D01*
X35322619Y-10659523D01*
D10*
D11*
X85322619Y-10411904D02*
X85384523Y-10350000D01*
X85508333Y-10288095D01*
X85817857Y-10288095D01*
X85941666Y-10350000D01*
X86003571Y-10411904D01*
X86065476Y-10535714D01*
X86065476Y-10659523D01*
X86003571Y-10845238D01*
X85260714Y-11588095D01*
X86065476Y-11588095D01*
D10*
D11*
X135260714Y-10288095D02*
X136065476Y-10288095D01*
X135632142Y-10783333D01*
X135817857Y-10783333D01*
X135941666Y-10845238D01*
X136003571Y-10907142D01*
X136065476Y-11030952D01*
X136065476Y-11340476D01*
X136003571Y-11464285D01*
X135941666Y-11526190D01*
X135817857Y-11588095D01*
X135446428Y-11588095D01*
X135322619Y-11526190D01*
X135260714Y-11464285D01*
D10*
D11*
X185941666Y-10721428D02*
X185941666Y-11588095D01*
X185632142Y-10226190D02*
X185322619Y-11154761D01*
X186127380Y-11154761D01*
D10*
D11*
X236003571Y-10288095D02*
X235384523Y-10288095D01*
X235322619Y-10907142D01*
X235384523Y-10845238D01*
X235508333Y-10783333D01*
X235817857Y-10783333D01*
X235941666Y-10845238D01*
X236003571Y-10907142D01*
X236065476Y-11030952D01*
X236065476Y-11340476D01*
X236003571Y-11464285D01*
X235941666Y-11526190D01*
X235817857Y-11588095D01*
X235508333Y-11588095D01*
X235384523Y-11526190D01*
X235322619Y-11464285D01*
D10*
D11*
X285941666Y-10288095D02*
X285694047Y-10288095D01*
X285570238Y-10350000D01*
X285508333Y-10411904D01*
X285384523Y-10597619D01*
X285322619Y-10845238D01*
X285322619Y-11340476D01*
X285384523Y-11464285D01*
X285446428Y-11526190D01*
X285570238Y-11588095D01*
X285817857Y-11588095D01*
X285941666Y-11526190D01*
X286003571Y-11464285D01*
X286065476Y-11340476D01*
X286065476Y-11030952D01*
X286003571Y-10907142D01*
X285941666Y-10845238D01*
X285817857Y-10783333D01*
X285570238Y-10783333D01*
X285446428Y-10845238D01*
X285384523Y-10907142D01*
X285322619Y-11030952D01*
D10*
D11*
X60000000Y-198007200D02*
X60000000Y-200007200D01*
D10*
D11*
X110000000Y-198007200D02*
X110000000Y-200007200D01*
D10*
D11*
X160000000Y-198007200D02*
X160000000Y-200007200D01*
D10*
D11*
X210000000Y-198007200D02*
X210000000Y-200007200D01*
D10*
D11*
X260000000Y-198007200D02*
X260000000Y-200007200D01*
D10*
D11*
X36065476Y-199595295D02*
X35322619Y-199595295D01*
X35694047Y-199595295D02*
X35694047Y-198295295D01*
X35570238Y-198481009D01*
X35446428Y-198604819D01*
X35322619Y-198666723D01*
D10*
D11*
X85322619Y-198419104D02*
X85384523Y-198357200D01*
X85508333Y-198295295D01*
X85817857Y-198295295D01*
X85941666Y-198357200D01*
X86003571Y-198419104D01*
X86065476Y-198542914D01*
X86065476Y-198666723D01*
X86003571Y-198852438D01*
X85260714Y-199595295D01*
X86065476Y-199595295D01*
D10*
D11*
X135260714Y-198295295D02*
X136065476Y-198295295D01*
X135632142Y-198790533D01*
X135817857Y-198790533D01*
X135941666Y-198852438D01*
X136003571Y-198914342D01*
X136065476Y-199038152D01*
X136065476Y-199347676D01*
X136003571Y-199471485D01*
X135941666Y-199533390D01*
X135817857Y-199595295D01*
X135446428Y-199595295D01*
X135322619Y-199533390D01*
X135260714Y-199471485D01*
D10*
D11*
X185941666Y-198728628D02*
X185941666Y-199595295D01*
X185632142Y-198233390D02*
X185322619Y-199161961D01*
X186127380Y-199161961D01*
D10*
D11*
X236003571Y-198295295D02*
X235384523Y-198295295D01*
X235322619Y-198914342D01*
X235384523Y-198852438D01*
X235508333Y-198790533D01*
X235817857Y-198790533D01*
X235941666Y-198852438D01*
X236003571Y-198914342D01*
X236065476Y-199038152D01*
X236065476Y-199347676D01*
X236003571Y-199471485D01*
X235941666Y-199533390D01*
X235817857Y-199595295D01*
X235508333Y-199595295D01*
X235384523Y-199533390D01*
X235322619Y-199471485D01*
D10*
D11*
X285941666Y-198295295D02*
X285694047Y-198295295D01*
X285570238Y-198357200D01*
X285508333Y-198419104D01*
X285384523Y-198604819D01*
X285322619Y-198852438D01*
X285322619Y-199347676D01*
X285384523Y-199471485D01*
X285446428Y-199533390D01*
X285570238Y-199595295D01*
X285817857Y-199595295D01*
X285941666Y-199533390D01*
X286003571Y-199471485D01*
X286065476Y-199347676D01*
X286065476Y-199038152D01*
X286003571Y-198914342D01*
X285941666Y-198852438D01*
X285817857Y-198790533D01*
X285570238Y-198790533D01*
X285446428Y-198852438D01*
X285384523Y-198914342D01*
X285322619Y-199038152D01*
D10*
D11*
X10000000Y-60000000D02*
X12000000Y-60000000D01*
D10*
D11*
X10000000Y-110000000D02*
X12000000Y-110000000D01*
D10*
D11*
X10000000Y-160000000D02*
X12000000Y-160000000D01*
D10*
D11*
X10690476Y-35216666D02*
X11309523Y-35216666D01*
X10566666Y-35588095D02*
X11000000Y-34288095D01*
X11433333Y-35588095D01*
D10*
D11*
X11092857Y-84907142D02*
X11278571Y-84969047D01*
X11340476Y-85030952D01*
X11402380Y-85154761D01*
X11402380Y-85340476D01*
X11340476Y-85464285D01*
X11278571Y-85526190D01*
X11154761Y-85588095D01*
X10659523Y-85588095D01*
X10659523Y-84288095D01*
X11092857Y-84288095D01*
X11216666Y-84350000D01*
X11278571Y-84411904D01*
X11340476Y-84535714D01*
X11340476Y-84659523D01*
X11278571Y-84783333D01*
X11216666Y-84845238D01*
X11092857Y-84907142D01*
X10659523Y-84907142D01*
D10*
D11*
X11402380Y-135464285D02*
X11340476Y-135526190D01*
X11154761Y-135588095D01*
X11030952Y-135588095D01*
X10845238Y-135526190D01*
X10721428Y-135402380D01*
X10659523Y-135278571D01*
X10597619Y-135030952D01*
X10597619Y-134845238D01*
X10659523Y-134597619D01*
X10721428Y-134473809D01*
X10845238Y-134350000D01*
X11030952Y-134288095D01*
X11154761Y-134288095D01*
X11340476Y-134350000D01*
X11402380Y-134411904D01*
D10*
D11*
X10659523Y-185588095D02*
X10659523Y-184288095D01*
X10969047Y-184288095D01*
X11154761Y-184350000D01*
X11278571Y-184473809D01*
X11340476Y-184597619D01*
X11402380Y-184845238D01*
X11402380Y-185030952D01*
X11340476Y-185278571D01*
X11278571Y-185402380D01*
X11154761Y-185526190D01*
X10969047Y-185588095D01*
X10659523Y-185588095D01*
D10*
D11*
X287002200Y-60000000D02*
X285002200Y-60000000D01*
D10*
D11*
X287002200Y-110000000D02*
X285002200Y-110000000D01*
D10*
D11*
X287002200Y-160000000D02*
X285002200Y-160000000D01*
D10*
D11*
X285692676Y-35216666D02*
X286311723Y-35216666D01*
X285568866Y-35588095D02*
X286002200Y-34288095D01*
X286435533Y-35588095D01*
D10*
D11*
X286095057Y-84907142D02*
X286280771Y-84969047D01*
X286342676Y-85030952D01*
X286404580Y-85154761D01*
X286404580Y-85340476D01*
X286342676Y-85464285D01*
X286280771Y-85526190D01*
X286156961Y-85588095D01*
X285661723Y-85588095D01*
X285661723Y-84288095D01*
X286095057Y-84288095D01*
X286218866Y-84350000D01*
X286280771Y-84411904D01*
X286342676Y-84535714D01*
X286342676Y-84659523D01*
X286280771Y-84783333D01*
X286218866Y-84845238D01*
X286095057Y-84907142D01*
X285661723Y-84907142D01*
D10*
D11*
X286404580Y-135464285D02*
X286342676Y-135526190D01*
X286156961Y-135588095D01*
X286033152Y-135588095D01*
X285847438Y-135526190D01*
X285723628Y-135402380D01*
X285661723Y-135278571D01*
X285599819Y-135030952D01*
X285599819Y-134845238D01*
X285661723Y-134597619D01*
X285723628Y-134473809D01*
X285847438Y-134350000D01*
X286033152Y-134288095D01*
X286156961Y-134288095D01*
X286342676Y-134350000D01*
X286404580Y-134411904D01*
D10*
D11*
X285661723Y-185588095D02*
X285661723Y-184288095D01*
X285971247Y-184288095D01*
X286156961Y-184350000D01*
X286280771Y-184473809D01*
X286342676Y-184597619D01*
X286404580Y-184845238D01*
X286404580Y-185030952D01*
X286342676Y-185278571D01*
X286280771Y-185402380D01*
X286156961Y-185526190D01*
X285971247Y-185588095D01*
X285661723Y-185588095D01*
D10*
D11*
X200434342Y-193785771D02*
X200434342Y-192285771D01*
X200791485Y-192285771D01*
X201005771Y-192357200D01*
X201148628Y-192500057D01*
X201220057Y-192642914D01*
X201291485Y-192928628D01*
X201291485Y-193142914D01*
X201220057Y-193428628D01*
X201148628Y-193571485D01*
X201005771Y-193714342D01*
X200791485Y-193785771D01*
X200434342Y-193785771D01*
X202577200Y-193785771D02*
X202577200Y-193000057D01*
X202505771Y-192857200D01*
X202362914Y-192785771D01*
X202077200Y-192785771D01*
X201934342Y-192857200D01*
X202577200Y-193714342D02*
X202434342Y-193785771D01*
X202077200Y-193785771D01*
X201934342Y-193714342D01*
X201862914Y-193571485D01*
X201862914Y-193428628D01*
X201934342Y-193285771D01*
X202077200Y-193214342D01*
X202434342Y-193214342D01*
X202577200Y-193142914D01*
X203077200Y-192785771D02*
X203648628Y-192785771D01*
X203291485Y-192285771D02*
X203291485Y-193571485D01*
X203362914Y-193714342D01*
X203505771Y-193785771D01*
X203648628Y-193785771D01*
X204720057Y-193714342D02*
X204577200Y-193785771D01*
X204291485Y-193785771D01*
X204148628Y-193714342D01*
X204077200Y-193571485D01*
X204077200Y-193000057D01*
X204148628Y-192857200D01*
X204291485Y-192785771D01*
X204577200Y-192785771D01*
X204720057Y-192857200D01*
X204791485Y-193000057D01*
X204791485Y-193142914D01*
X204077200Y-193285771D01*
X205434342Y-193642914D02*
X205505771Y-193714342D01*
X205434342Y-193785771D01*
X205362914Y-193714342D01*
X205434342Y-193642914D01*
X205434342Y-193785771D01*
X205434342Y-192857200D02*
X205505771Y-192928628D01*
X205434342Y-193000057D01*
X205362914Y-192928628D01*
X205434342Y-192857200D01*
X205434342Y-193000057D01*
X207220057Y-192428628D02*
X207291485Y-192357200D01*
X207434342Y-192285771D01*
X207791485Y-192285771D01*
X207934342Y-192357200D01*
X208005771Y-192428628D01*
X208077200Y-192571485D01*
X208077200Y-192714342D01*
X208005771Y-192928628D01*
X207148628Y-193785771D01*
X208077200Y-193785771D01*
X209005771Y-192285771D02*
X209148628Y-192285771D01*
X209291485Y-192357200D01*
X209362914Y-192428628D01*
X209434342Y-192571485D01*
X209505771Y-192857200D01*
X209505771Y-193214342D01*
X209434342Y-193500057D01*
X209362914Y-193642914D01*
X209291485Y-193714342D01*
X209148628Y-193785771D01*
X209005771Y-193785771D01*
X208862914Y-193714342D01*
X208791485Y-193642914D01*
X208720057Y-193500057D01*
X208648628Y-193214342D01*
X208648628Y-192857200D01*
X208720057Y-192571485D01*
X208791485Y-192428628D01*
X208862914Y-192357200D01*
X209005771Y-192285771D01*
X210077200Y-192428628D02*
X210148628Y-192357200D01*
X210291485Y-192285771D01*
X210648628Y-192285771D01*
X210791485Y-192357200D01*
X210862914Y-192428628D01*
X210934342Y-192571485D01*
X210934342Y-192714342D01*
X210862914Y-192928628D01*
X210005771Y-193785771D01*
X210934342Y-193785771D01*
X212362914Y-193785771D02*
X211505771Y-193785771D01*
X211934342Y-193785771D02*
X211934342Y-192285771D01*
X211791485Y-192500057D01*
X211648628Y-192642914D01*
X211505771Y-192714342D01*
X213005771Y-193214342D02*
X214148628Y-193214342D01*
X215148628Y-192285771D02*
X215291485Y-192285771D01*
X215434342Y-192357200D01*
X215505771Y-192428628D01*
X215577200Y-192571485D01*
X215648628Y-192857200D01*
X215648628Y-193214342D01*
X215577200Y-193500057D01*
X215505771Y-193642914D01*
X215434342Y-193714342D01*
X215291485Y-193785771D01*
X215148628Y-193785771D01*
X215005771Y-193714342D01*
X214934342Y-193642914D01*
X214862914Y-193500057D01*
X214791485Y-193214342D01*
X214791485Y-192857200D01*
X214862914Y-192571485D01*
X214934342Y-192428628D01*
X215005771Y-192357200D01*
X215148628Y-192285771D01*
X216934342Y-192285771D02*
X216648628Y-192285771D01*
X216505771Y-192357200D01*
X216434342Y-192428628D01*
X216291485Y-192642914D01*
X216220057Y-192928628D01*
X216220057Y-193500057D01*
X216291485Y-193642914D01*
X216362914Y-193714342D01*
X216505771Y-193785771D01*
X216791485Y-193785771D01*
X216934342Y-193714342D01*
X217005771Y-193642914D01*
X217077200Y-193500057D01*
X217077200Y-193142914D01*
X217005771Y-193000057D01*
X216934342Y-192928628D01*
X216791485Y-192857200D01*
X216505771Y-192857200D01*
X216362914Y-192928628D01*
X216291485Y-193000057D01*
X216220057Y-193142914D01*
X217720057Y-193214342D02*
X218862914Y-193214342D01*
X219862914Y-192285771D02*
X220005771Y-192285771D01*
X220148628Y-192357200D01*
X220220057Y-192428628D01*
X220291485Y-192571485D01*
X220362914Y-192857200D01*
X220362914Y-193214342D01*
X220291485Y-193500057D01*
X220220057Y-193642914D01*
X220148628Y-193714342D01*
X220005771Y-193785771D01*
X219862914Y-193785771D01*
X219720057Y-193714342D01*
X219648628Y-193642914D01*
X219577200Y-193500057D01*
X219505771Y-193214342D01*
X219505771Y-192857200D01*
X219577200Y-192571485D01*
X219648628Y-192428628D01*
X219720057Y-192357200D01*
X219862914Y-192285771D01*
X221720057Y-192285771D02*
X221005771Y-192285771D01*
X220934342Y-193000057D01*
X221005771Y-192928628D01*
X221148628Y-192857200D01*
X221505771Y-192857200D01*
X221648628Y-192928628D01*
X221720057Y-193000057D01*
X221791485Y-193142914D01*
X221791485Y-193500057D01*
X221720057Y-193642914D01*
X221648628Y-193714342D01*
X221505771Y-193785771D01*
X221148628Y-193785771D01*
X221005771Y-193714342D01*
X220934342Y-193642914D01*
D10*
D11*
X177002200Y-194507200D02*
X285002200Y-194507200D01*
D10*
D11*
X178434342Y-196585771D02*
X178434342Y-195085771D01*
X179291485Y-196585771D02*
X178648628Y-195728628D01*
X179291485Y-195085771D02*
X178434342Y-195942914D01*
X179934342Y-196585771D02*
X179934342Y-195585771D01*
X179934342Y-195085771D02*
X179862914Y-195157200D01*
X179934342Y-195228628D01*
X180005771Y-195157200D01*
X179934342Y-195085771D01*
X179934342Y-195228628D01*
X181505771Y-196442914D02*
X181434342Y-196514342D01*
X181220057Y-196585771D01*
X181077200Y-196585771D01*
X180862914Y-196514342D01*
X180720057Y-196371485D01*
X180648628Y-196228628D01*
X180577200Y-195942914D01*
X180577200Y-195728628D01*
X180648628Y-195442914D01*
X180720057Y-195300057D01*
X180862914Y-195157200D01*
X181077200Y-195085771D01*
X181220057Y-195085771D01*
X181434342Y-195157200D01*
X181505771Y-195228628D01*
X182791485Y-196585771D02*
X182791485Y-195800057D01*
X182720057Y-195657200D01*
X182577200Y-195585771D01*
X182291485Y-195585771D01*
X182148628Y-195657200D01*
X182791485Y-196514342D02*
X182648628Y-196585771D01*
X182291485Y-196585771D01*
X182148628Y-196514342D01*
X182077200Y-196371485D01*
X182077200Y-196228628D01*
X182148628Y-196085771D01*
X182291485Y-196014342D01*
X182648628Y-196014342D01*
X182791485Y-195942914D01*
X184148628Y-196585771D02*
X184148628Y-195085771D01*
X184148628Y-196514342D02*
X184005771Y-196585771D01*
X183720057Y-196585771D01*
X183577200Y-196514342D01*
X183505771Y-196442914D01*
X183434342Y-196300057D01*
X183434342Y-195871485D01*
X183505771Y-195728628D01*
X183577200Y-195657200D01*
X183720057Y-195585771D01*
X184005771Y-195585771D01*
X184148628Y-195657200D01*
X186005771Y-195800057D02*
X186505771Y-195800057D01*
X186720057Y-196585771D02*
X186005771Y-196585771D01*
X186005771Y-195085771D01*
X186720057Y-195085771D01*
X187362914Y-196442914D02*
X187434342Y-196514342D01*
X187362914Y-196585771D01*
X187291485Y-196514342D01*
X187362914Y-196442914D01*
X187362914Y-196585771D01*
X188077200Y-196585771D02*
X188077200Y-195085771D01*
X188434342Y-195085771D01*
X188648628Y-195157200D01*
X188791485Y-195300057D01*
X188862914Y-195442914D01*
X188934342Y-195728628D01*
X188934342Y-195942914D01*
X188862914Y-196228628D01*
X188791485Y-196371485D01*
X188648628Y-196514342D01*
X188434342Y-196585771D01*
X188077200Y-196585771D01*
X189577200Y-196442914D02*
X189648628Y-196514342D01*
X189577200Y-196585771D01*
X189505771Y-196514342D01*
X189577200Y-196442914D01*
X189577200Y-196585771D01*
X190220057Y-196157200D02*
X190934342Y-196157200D01*
X190077200Y-196585771D02*
X190577200Y-195085771D01*
X191077200Y-196585771D01*
X191577200Y-196442914D02*
X191648628Y-196514342D01*
X191577200Y-196585771D01*
X191505771Y-196514342D01*
X191577200Y-196442914D01*
X191577200Y-196585771D01*
X194577200Y-196585771D02*
X194577200Y-195085771D01*
X194720057Y-196014342D02*
X195148628Y-196585771D01*
X195148628Y-195585771D02*
X194577200Y-196157200D01*
X195791485Y-196585771D02*
X195791485Y-195585771D01*
X195791485Y-195085771D02*
X195720057Y-195157200D01*
X195791485Y-195228628D01*
X195862914Y-195157200D01*
X195791485Y-195085771D01*
X195791485Y-195228628D01*
X197148628Y-196514342D02*
X197005771Y-196585771D01*
X196720057Y-196585771D01*
X196577200Y-196514342D01*
X196505771Y-196442914D01*
X196434342Y-196300057D01*
X196434342Y-195871485D01*
X196505771Y-195728628D01*
X196577200Y-195657200D01*
X196720057Y-195585771D01*
X197005771Y-195585771D01*
X197148628Y-195657200D01*
X198434342Y-196585771D02*
X198434342Y-195800057D01*
X198362914Y-195657200D01*
X198220057Y-195585771D01*
X197934342Y-195585771D01*
X197791485Y-195657200D01*
X198434342Y-196514342D02*
X198291485Y-196585771D01*
X197934342Y-196585771D01*
X197791485Y-196514342D01*
X197720057Y-196371485D01*
X197720057Y-196228628D01*
X197791485Y-196085771D01*
X197934342Y-196014342D01*
X198291485Y-196014342D01*
X198434342Y-195942914D01*
X199791485Y-196585771D02*
X199791485Y-195085771D01*
X199791485Y-196514342D02*
X199648628Y-196585771D01*
X199362914Y-196585771D01*
X199220057Y-196514342D01*
X199148628Y-196442914D01*
X199077200Y-196300057D01*
X199077200Y-195871485D01*
X199148628Y-195728628D01*
X199220057Y-195657200D01*
X199362914Y-195585771D01*
X199648628Y-195585771D01*
X199791485Y-195657200D01*
X202291485Y-195085771D02*
X202005771Y-195085771D01*
X201862914Y-195157200D01*
X201791485Y-195228628D01*
X201648628Y-195442914D01*
X201577200Y-195728628D01*
X201577200Y-196300057D01*
X201648628Y-196442914D01*
X201720057Y-196514342D01*
X201862914Y-196585771D01*
X202148628Y-196585771D01*
X202291485Y-196514342D01*
X202362914Y-196442914D01*
X202434342Y-196300057D01*
X202434342Y-195942914D01*
X202362914Y-195800057D01*
X202291485Y-195728628D01*
X202148628Y-195657200D01*
X201862914Y-195657200D01*
X201720057Y-195728628D01*
X201648628Y-195800057D01*
X201577200Y-195942914D01*
X203077200Y-196442914D02*
X203148628Y-196514342D01*
X203077200Y-196585771D01*
X203005771Y-196514342D01*
X203077200Y-196442914D01*
X203077200Y-196585771D01*
X204077200Y-195085771D02*
X204220057Y-195085771D01*
X204362914Y-195157200D01*
X204434342Y-195228628D01*
X204505771Y-195371485D01*
X204577200Y-195657200D01*
X204577200Y-196014342D01*
X204505771Y-196300057D01*
X204434342Y-196442914D01*
X204362914Y-196514342D01*
X204220057Y-196585771D01*
X204077200Y-196585771D01*
X203934342Y-196514342D01*
X203862914Y-196442914D01*
X203791485Y-196300057D01*
X203720057Y-196014342D01*
X203720057Y-195657200D01*
X203791485Y-195371485D01*
X203862914Y-195228628D01*
X203934342Y-195157200D01*
X204077200Y-195085771D01*
X205220057Y-196442914D02*
X205291485Y-196514342D01*
X205220057Y-196585771D01*
X205148628Y-196514342D01*
X205220057Y-196442914D01*
X205220057Y-196585771D01*
X205862914Y-195228628D02*
X205934342Y-195157200D01*
X206077200Y-195085771D01*
X206434342Y-195085771D01*
X206577200Y-195157200D01*
X206648628Y-195228628D01*
X206720057Y-195371485D01*
X206720057Y-195514342D01*
X206648628Y-195728628D01*
X205791485Y-196585771D01*
X206720057Y-196585771D01*
X207362914Y-196014342D02*
X208505771Y-196014342D01*
X207934342Y-196585771D02*
X207934342Y-195442914D01*
X209862914Y-196585771D02*
X209862914Y-195085771D01*
X209862914Y-196514342D02*
X209720057Y-196585771D01*
X209434342Y-196585771D01*
X209291485Y-196514342D01*
X209220057Y-196442914D01*
X209148628Y-196300057D01*
X209148628Y-195871485D01*
X209220057Y-195728628D01*
X209291485Y-195657200D01*
X209434342Y-195585771D01*
X209720057Y-195585771D01*
X209862914Y-195657200D01*
X210362914Y-195585771D02*
X210934342Y-195585771D01*
X210577200Y-196585771D02*
X210577200Y-195300057D01*
X210648628Y-195157200D01*
X210791485Y-195085771D01*
X210934342Y-195085771D01*
X211362914Y-196514342D02*
X211505771Y-196585771D01*
X211791485Y-196585771D01*
X211934342Y-196514342D01*
X212005771Y-196371485D01*
X212005771Y-196300057D01*
X211934342Y-196157200D01*
X211791485Y-196085771D01*
X211577200Y-196085771D01*
X211434342Y-196014342D01*
X211362914Y-195871485D01*
X211362914Y-195800057D01*
X211434342Y-195657200D01*
X211577200Y-195585771D01*
X211791485Y-195585771D01*
X211934342Y-195657200D01*
X213291485Y-195585771D02*
X213291485Y-196800057D01*
X213220057Y-196942914D01*
X213148628Y-197014342D01*
X213005771Y-197085771D01*
X212791485Y-197085771D01*
X212648628Y-197014342D01*
X213291485Y-196514342D02*
X213148628Y-196585771D01*
X212862914Y-196585771D01*
X212720057Y-196514342D01*
X212648628Y-196442914D01*
X212577200Y-196300057D01*
X212577200Y-195871485D01*
X212648628Y-195728628D01*
X212720057Y-195657200D01*
X212862914Y-195585771D01*
X213148628Y-195585771D01*
X213291485Y-195657200D01*
X214005771Y-196014342D02*
X215148628Y-196014342D01*
X216648628Y-196585771D02*
X215791485Y-196585771D01*
X216220057Y-196585771D02*
X216220057Y-195085771D01*
X216077200Y-195300057D01*
X215934342Y-195442914D01*
X215791485Y-195514342D01*
D10*
D11*
X177002200Y-191507200D02*
X285002200Y-191507200D01*
D10*
D12*
X264411485Y-193785771D02*
X263911485Y-193071485D01*
X263554342Y-193785771D02*
X263554342Y-192285771D01*
X264125771Y-192285771D01*
X264268628Y-192357200D01*
X264340057Y-192428628D01*
X264411485Y-192571485D01*
X264411485Y-192785771D01*
X264340057Y-192928628D01*
X264268628Y-193000057D01*
X264125771Y-193071485D01*
X263554342Y-193071485D01*
X265625771Y-193714342D02*
X265482914Y-193785771D01*
X265197200Y-193785771D01*
X265054342Y-193714342D01*
X264982914Y-193571485D01*
X264982914Y-193000057D01*
X265054342Y-192857200D01*
X265197200Y-192785771D01*
X265482914Y-192785771D01*
X265625771Y-192857200D01*
X265697200Y-193000057D01*
X265697200Y-193142914D01*
X264982914Y-193285771D01*
X266197200Y-192785771D02*
X266554342Y-193785771D01*
X266911485Y-192785771D01*
X267482914Y-193642914D02*
X267554342Y-193714342D01*
X267482914Y-193785771D01*
X267411485Y-193714342D01*
X267482914Y-193642914D01*
X267482914Y-193785771D01*
X267482914Y-192857200D02*
X267554342Y-192928628D01*
X267482914Y-193000057D01*
X267411485Y-192928628D01*
X267482914Y-192857200D01*
X267482914Y-193000057D01*
X269625771Y-192285771D02*
X269768628Y-192285771D01*
X269911485Y-192357200D01*
X269982914Y-192428628D01*
X270054342Y-192571485D01*
X270125771Y-192857200D01*
X270125771Y-193214342D01*
X270054342Y-193500057D01*
X269982914Y-193642914D01*
X269911485Y-193714342D01*
X269768628Y-193785771D01*
X269625771Y-193785771D01*
X269482914Y-193714342D01*
X269411485Y-193642914D01*
X269340057Y-193500057D01*
X269268628Y-193214342D01*
X269268628Y-192857200D01*
X269340057Y-192571485D01*
X269411485Y-192428628D01*
X269482914Y-192357200D01*
X269625771Y-192285771D01*
X270768628Y-193642914D02*
X270840057Y-193714342D01*
X270768628Y-193785771D01*
X270697200Y-193714342D01*
X270768628Y-193642914D01*
X270768628Y-193785771D01*
X271411485Y-192428628D02*
X271482914Y-192357200D01*
X271625771Y-192285771D01*
X271982914Y-192285771D01*
X272125771Y-192357200D01*
X272197200Y-192428628D01*
X272268628Y-192571485D01*
X272268628Y-192714342D01*
X272197200Y-192928628D01*
X271340057Y-193785771D01*
X272268628Y-193785771D01*
X272911485Y-193642914D02*
X272982914Y-193714342D01*
X272911485Y-193785771D01*
X272840057Y-193714342D01*
X272911485Y-193642914D01*
X272911485Y-193785771D01*
X273911485Y-192285771D02*
X274054342Y-192285771D01*
X274197200Y-192357200D01*
X274268628Y-192428628D01*
X274340057Y-192571485D01*
X274411485Y-192857200D01*
X274411485Y-193214342D01*
X274340057Y-193500057D01*
X274268628Y-193642914D01*
X274197200Y-193714342D01*
X274054342Y-193785771D01*
X273911485Y-193785771D01*
X273768628Y-193714342D01*
X273697200Y-193642914D01*
X273625771Y-193500057D01*
X273554342Y-193214342D01*
X273554342Y-192857200D01*
X273625771Y-192571485D01*
X273697200Y-192428628D01*
X273768628Y-192357200D01*
X273911485Y-192285771D01*
D10*
D11*
X178362914Y-193714342D02*
X178577200Y-193785771D01*
X178934342Y-193785771D01*
X179077200Y-193714342D01*
X179148628Y-193642914D01*
X179220057Y-193500057D01*
X179220057Y-193357200D01*
X179148628Y-193214342D01*
X179077200Y-193142914D01*
X178934342Y-193071485D01*
X178648628Y-193000057D01*
X178505771Y-192928628D01*
X178434342Y-192857200D01*
X178362914Y-192714342D01*
X178362914Y-192571485D01*
X178434342Y-192428628D01*
X178505771Y-192357200D01*
X178648628Y-192285771D01*
X179005771Y-192285771D01*
X179220057Y-192357200D01*
X179862914Y-193785771D02*
X179862914Y-192785771D01*
X179862914Y-192285771D02*
X179791485Y-192357200D01*
X179862914Y-192428628D01*
X179934342Y-192357200D01*
X179862914Y-192285771D01*
X179862914Y-192428628D01*
X180434342Y-192785771D02*
X181220057Y-192785771D01*
X180434342Y-193785771D01*
X181220057Y-193785771D01*
X182362914Y-193714342D02*
X182220057Y-193785771D01*
X181934342Y-193785771D01*
X181791485Y-193714342D01*
X181720057Y-193571485D01*
X181720057Y-193000057D01*
X181791485Y-192857200D01*
X181934342Y-192785771D01*
X182220057Y-192785771D01*
X182362914Y-192857200D01*
X182434342Y-193000057D01*
X182434342Y-193142914D01*
X181720057Y-193285771D01*
X183077200Y-193642914D02*
X183148628Y-193714342D01*
X183077200Y-193785771D01*
X183005771Y-193714342D01*
X183077200Y-193642914D01*
X183077200Y-193785771D01*
X183077200Y-192857200D02*
X183148628Y-192928628D01*
X183077200Y-193000057D01*
X183005771Y-192928628D01*
X183077200Y-192857200D01*
X183077200Y-193000057D01*
X184862914Y-193357200D02*
X185577200Y-193357200D01*
X184720057Y-193785771D02*
X185220057Y-192285771D01*
X185720057Y-193785771D01*
X186862914Y-192785771D02*
X186862914Y-193785771D01*
X186505771Y-192214342D02*
X186148628Y-193285771D01*
X187077200Y-193285771D01*
D10*
D11*
X263434342Y-196585771D02*
X263434342Y-195085771D01*
X264791485Y-196585771D02*
X264791485Y-195085771D01*
X264791485Y-196514342D02*
X264648628Y-196585771D01*
X264362914Y-196585771D01*
X264220057Y-196514342D01*
X264148628Y-196442914D01*
X264077200Y-196300057D01*
X264077200Y-195871485D01*
X264148628Y-195728628D01*
X264220057Y-195657200D01*
X264362914Y-195585771D01*
X264648628Y-195585771D01*
X264791485Y-195657200D01*
X265505771Y-196442914D02*
X265577200Y-196514342D01*
X265505771Y-196585771D01*
X265434342Y-196514342D01*
X265505771Y-196442914D01*
X265505771Y-196585771D01*
X265505771Y-195657200D02*
X265577200Y-195728628D01*
X265505771Y-195800057D01*
X265434342Y-195728628D01*
X265505771Y-195657200D01*
X265505771Y-195800057D01*
X268148628Y-196585771D02*
X267291485Y-196585771D01*
X267720057Y-196585771D02*
X267720057Y-195085771D01*
X267577200Y-195300057D01*
X267434342Y-195442914D01*
X267291485Y-195514342D01*
X269862914Y-195014342D02*
X268577200Y-196942914D01*
X271148628Y-196585771D02*
X270291485Y-196585771D01*
X270720057Y-196585771D02*
X270720057Y-195085771D01*
X270577200Y-195300057D01*
X270434342Y-195442914D01*
X270291485Y-195514342D01*
D10*
D11*
X177002200Y-187507200D02*
X285002200Y-187507200D01*
D10*
D13*
X178714580Y-188211961D02*
X179857438Y-188211961D01*
X179036009Y-190211961D02*
X179286009Y-188211961D01*
X180274104Y-190211961D02*
X180440771Y-188878628D01*
X180524104Y-188211961D02*
X180416961Y-188307200D01*
X180500295Y-188402438D01*
X180607438Y-188307200D01*
X180524104Y-188211961D01*
X180500295Y-188402438D01*
X181107438Y-188878628D02*
X181869342Y-188878628D01*
X181476485Y-188211961D02*
X181262200Y-189926247D01*
X181333628Y-190116723D01*
X181512200Y-190211961D01*
X181702676Y-190211961D01*
X182655057Y-190211961D02*
X182476485Y-190116723D01*
X182405057Y-189926247D01*
X182619342Y-188211961D01*
X184190771Y-190116723D02*
X183988390Y-190211961D01*
X183607438Y-190211961D01*
X183428866Y-190116723D01*
X183357438Y-189926247D01*
X183452676Y-189164342D01*
X183571723Y-188973866D01*
X183774104Y-188878628D01*
X184155057Y-188878628D01*
X184333628Y-188973866D01*
X184405057Y-189164342D01*
X184381247Y-189354819D01*
X183405057Y-189545295D01*
X185155057Y-190021485D02*
X185238390Y-190116723D01*
X185131247Y-190211961D01*
X185047914Y-190116723D01*
X185155057Y-190021485D01*
X185131247Y-190211961D01*
X185286009Y-188973866D02*
X185369342Y-189069104D01*
X185262200Y-189164342D01*
X185178866Y-189069104D01*
X185286009Y-188973866D01*
X185262200Y-189164342D01*
X187571723Y-188211961D02*
X188714580Y-188211961D01*
X187893152Y-190211961D02*
X188143152Y-188211961D01*
X189905057Y-190116723D02*
X189702676Y-190211961D01*
X189321723Y-190211961D01*
X189143152Y-190116723D01*
X189071723Y-189926247D01*
X189166961Y-189164342D01*
X189286009Y-188973866D01*
X189488390Y-188878628D01*
X189869342Y-188878628D01*
X190047914Y-188973866D01*
X190119342Y-189164342D01*
X190095533Y-189354819D01*
X189119342Y-189545295D01*
X190762200Y-190116723D02*
X190940771Y-190211961D01*
X191321723Y-190211961D01*
X191524104Y-190116723D01*
X191643152Y-189926247D01*
X191655057Y-189831009D01*
X191583628Y-189640533D01*
X191405057Y-189545295D01*
X191119342Y-189545295D01*
X190940771Y-189450057D01*
X190869342Y-189259580D01*
X190881247Y-189164342D01*
X191000295Y-188973866D01*
X191202676Y-188878628D01*
X191488390Y-188878628D01*
X191666961Y-188973866D01*
X192750295Y-190211961D02*
X192571723Y-190116723D01*
X192500295Y-189926247D01*
X192714580Y-188211961D01*
X194369342Y-190211961D02*
X194500295Y-189164342D01*
X194428866Y-188973866D01*
X194250295Y-188878628D01*
X193869342Y-188878628D01*
X193666961Y-188973866D01*
X194381247Y-190116723D02*
X194178866Y-190211961D01*
X193702676Y-190211961D01*
X193524104Y-190116723D01*
X193452676Y-189926247D01*
X193476485Y-189735771D01*
X193595533Y-189545295D01*
X193797914Y-189450057D01*
X194274104Y-189450057D01*
X194476485Y-189354819D01*
X196762200Y-190116723D02*
X197036009Y-190211961D01*
X197512200Y-190211961D01*
X197714580Y-190116723D01*
X197821723Y-190021485D01*
X197940771Y-189831009D01*
X197964580Y-189640533D01*
X197893152Y-189450057D01*
X197809819Y-189354819D01*
X197631247Y-189259580D01*
X197262200Y-189164342D01*
X197083628Y-189069104D01*
X197000295Y-188973866D01*
X196928866Y-188783390D01*
X196952676Y-188592914D01*
X197071723Y-188402438D01*
X197178866Y-188307200D01*
X197381247Y-188211961D01*
X197857438Y-188211961D01*
X198131247Y-188307200D01*
X198750295Y-190211961D02*
X199000295Y-188211961D01*
X199488390Y-189640533D01*
X200333628Y-188211961D01*
X200083628Y-190211961D01*
X201036009Y-190211961D02*
X201286009Y-188211961D01*
X202047914Y-188211961D01*
X202226485Y-188307200D01*
X202309819Y-188402438D01*
X202381247Y-188592914D01*
X202345533Y-188878628D01*
X202226485Y-189069104D01*
X202119342Y-189164342D01*
X201916961Y-189259580D01*
X201155057Y-189259580D01*
X202952676Y-190116723D02*
X203226485Y-190211961D01*
X203702676Y-190211961D01*
X203905057Y-190116723D01*
X204012200Y-190021485D01*
X204131247Y-189831009D01*
X204155057Y-189640533D01*
X204083628Y-189450057D01*
X204000295Y-189354819D01*
X203821723Y-189259580D01*
X203452676Y-189164342D01*
X203274104Y-189069104D01*
X203190771Y-188973866D01*
X203119342Y-188783390D01*
X203143152Y-188592914D01*
X203262200Y-188402438D01*
X203369342Y-188307200D01*
X203571723Y-188211961D01*
X204047914Y-188211961D01*
X204321723Y-188307200D01*
X206559819Y-189450057D02*
X208083628Y-189450057D01*
X210464580Y-190211961D02*
X210714580Y-188211961D01*
X210595533Y-189164342D02*
X211738390Y-189164342D01*
X211607438Y-190211961D02*
X211857438Y-188211961D01*
X212524104Y-188211961D02*
X212940771Y-190211961D01*
X213857438Y-188211961D01*
X214190771Y-190116723D02*
X214464580Y-190211961D01*
X214940771Y-190211961D01*
X215143152Y-190116723D01*
X215250295Y-190021485D01*
X215369342Y-189831009D01*
X215393152Y-189640533D01*
X215321723Y-189450057D01*
X215238390Y-189354819D01*
X215059819Y-189259580D01*
X214690771Y-189164342D01*
X214512200Y-189069104D01*
X214428866Y-188973866D01*
X214357438Y-188783390D01*
X214381247Y-188592914D01*
X214500295Y-188402438D01*
X214607438Y-188307200D01*
X214809819Y-188211961D01*
X215286009Y-188211961D01*
X215559819Y-188307200D01*
X216178866Y-190211961D02*
X216428866Y-188211961D01*
X216916961Y-189640533D01*
X217762200Y-188211961D01*
X217512200Y-190211961D01*
X218464580Y-190211961D02*
X218714580Y-188211961D01*
X219476485Y-188211961D01*
X219655057Y-188307200D01*
X219738390Y-188402438D01*
X219809819Y-188592914D01*
X219774104Y-188878628D01*
X219655057Y-189069104D01*
X219547914Y-189164342D01*
X219345533Y-189259580D01*
X218583628Y-189259580D01*
X220381247Y-190116723D02*
X220655057Y-190211961D01*
X221131247Y-190211961D01*
X221333628Y-190116723D01*
X221440771Y-190021485D01*
X221559819Y-189831009D01*
X221583628Y-189640533D01*
X221512200Y-189450057D01*
X221428866Y-189354819D01*
X221250295Y-189259580D01*
X220881247Y-189164342D01*
X220702676Y-189069104D01*
X220619342Y-188973866D01*
X220547914Y-188783390D01*
X220571723Y-188592914D01*
X220690771Y-188402438D01*
X220797914Y-188307200D01*
X221000295Y-188211961D01*
X221476485Y-188211961D01*
X221750295Y-188307200D01*
D10*
D11*
X178934342Y-185600057D02*
X178434342Y-185600057D01*
X178434342Y-186385771D02*
X178434342Y-184885771D01*
X179148628Y-184885771D01*
X179720057Y-186385771D02*
X179720057Y-185385771D01*
X179720057Y-184885771D02*
X179648628Y-184957200D01*
X179720057Y-185028628D01*
X179791485Y-184957200D01*
X179720057Y-184885771D01*
X179720057Y-185028628D01*
X180648628Y-186385771D02*
X180505771Y-186314342D01*
X180434342Y-186171485D01*
X180434342Y-184885771D01*
X181791485Y-186314342D02*
X181648628Y-186385771D01*
X181362914Y-186385771D01*
X181220057Y-186314342D01*
X181148628Y-186171485D01*
X181148628Y-185600057D01*
X181220057Y-185457200D01*
X181362914Y-185385771D01*
X181648628Y-185385771D01*
X181791485Y-185457200D01*
X181862914Y-185600057D01*
X181862914Y-185742914D01*
X181148628Y-185885771D01*
X182505771Y-186242914D02*
X182577200Y-186314342D01*
X182505771Y-186385771D01*
X182434342Y-186314342D01*
X182505771Y-186242914D01*
X182505771Y-186385771D01*
X182505771Y-185457200D02*
X182577200Y-185528628D01*
X182505771Y-185600057D01*
X182434342Y-185528628D01*
X182505771Y-185457200D01*
X182505771Y-185600057D01*
X184148628Y-185385771D02*
X184720057Y-185385771D01*
X184362914Y-184885771D02*
X184362914Y-186171485D01*
X184434342Y-186314342D01*
X184577200Y-186385771D01*
X184720057Y-186385771D01*
X185791485Y-186314342D02*
X185648628Y-186385771D01*
X185362914Y-186385771D01*
X185220057Y-186314342D01*
X185148628Y-186171485D01*
X185148628Y-185600057D01*
X185220057Y-185457200D01*
X185362914Y-185385771D01*
X185648628Y-185385771D01*
X185791485Y-185457200D01*
X185862914Y-185600057D01*
X185862914Y-185742914D01*
X185148628Y-185885771D01*
X186434342Y-186314342D02*
X186577200Y-186385771D01*
X186862914Y-186385771D01*
X187005771Y-186314342D01*
X187077200Y-186171485D01*
X187077200Y-186100057D01*
X187005771Y-185957200D01*
X186862914Y-185885771D01*
X186648628Y-185885771D01*
X186505771Y-185814342D01*
X186434342Y-185671485D01*
X186434342Y-185600057D01*
X186505771Y-185457200D01*
X186648628Y-185385771D01*
X186862914Y-185385771D01*
X187005771Y-185457200D01*
X187934342Y-186385771D02*
X187791485Y-186314342D01*
X187720057Y-186171485D01*
X187720057Y-184885771D01*
X189148628Y-186385771D02*
X189148628Y-185600057D01*
X189077200Y-185457200D01*
X188934342Y-185385771D01*
X188648628Y-185385771D01*
X188505771Y-185457200D01*
X189148628Y-186314342D02*
X189005771Y-186385771D01*
X188648628Y-186385771D01*
X188505771Y-186314342D01*
X188434342Y-186171485D01*
X188434342Y-186028628D01*
X188505771Y-185885771D01*
X188648628Y-185814342D01*
X189005771Y-185814342D01*
X189148628Y-185742914D01*
X189505771Y-186528628D02*
X190648628Y-186528628D01*
X190934342Y-186314342D02*
X191077200Y-186385771D01*
X191362914Y-186385771D01*
X191505771Y-186314342D01*
X191577200Y-186171485D01*
X191577200Y-186100057D01*
X191505771Y-185957200D01*
X191362914Y-185885771D01*
X191148628Y-185885771D01*
X191005771Y-185814342D01*
X190934342Y-185671485D01*
X190934342Y-185600057D01*
X191005771Y-185457200D01*
X191148628Y-185385771D01*
X191362914Y-185385771D01*
X191505771Y-185457200D01*
X192220057Y-186385771D02*
X192220057Y-185385771D01*
X192220057Y-185528628D02*
X192291485Y-185457200D01*
X192434342Y-185385771D01*
X192648628Y-185385771D01*
X192791485Y-185457200D01*
X192862914Y-185600057D01*
X192862914Y-186385771D01*
X192862914Y-185600057D02*
X192934342Y-185457200D01*
X193077200Y-185385771D01*
X193291485Y-185385771D01*
X193434342Y-185457200D01*
X193505771Y-185600057D01*
X193505771Y-186385771D01*
X194220057Y-185385771D02*
X194220057Y-186885771D01*
X194220057Y-185457200D02*
X194362914Y-185385771D01*
X194648628Y-185385771D01*
X194791485Y-185457200D01*
X194862914Y-185528628D01*
X194934342Y-185671485D01*
X194934342Y-186100057D01*
X194862914Y-186242914D01*
X194791485Y-186314342D01*
X194648628Y-186385771D01*
X194362914Y-186385771D01*
X194220057Y-186314342D01*
X195505771Y-186314342D02*
X195648628Y-186385771D01*
X195934342Y-186385771D01*
X196077200Y-186314342D01*
X196148628Y-186171485D01*
X196148628Y-186100057D01*
X196077200Y-185957200D01*
X195934342Y-185885771D01*
X195720057Y-185885771D01*
X195577200Y-185814342D01*
X195505771Y-185671485D01*
X195505771Y-185600057D01*
X195577200Y-185457200D01*
X195720057Y-185385771D01*
X195934342Y-185385771D01*
X196077200Y-185457200D01*
X196791485Y-186242914D02*
X196862914Y-186314342D01*
X196791485Y-186385771D01*
X196720057Y-186314342D01*
X196791485Y-186242914D01*
X196791485Y-186385771D01*
X197505771Y-186385771D02*
X197505771Y-184885771D01*
X197648628Y-185814342D02*
X198077200Y-186385771D01*
X198077200Y-185385771D02*
X197505771Y-185957200D01*
X198720057Y-186385771D02*
X198720057Y-185385771D01*
X198720057Y-184885771D02*
X198648628Y-184957200D01*
X198720057Y-185028628D01*
X198791485Y-184957200D01*
X198720057Y-184885771D01*
X198720057Y-185028628D01*
X200077200Y-186314342D02*
X199934342Y-186385771D01*
X199648628Y-186385771D01*
X199505771Y-186314342D01*
X199434342Y-186242914D01*
X199362914Y-186100057D01*
X199362914Y-185671485D01*
X199434342Y-185528628D01*
X199505771Y-185457200D01*
X199648628Y-185385771D01*
X199934342Y-185385771D01*
X200077200Y-185457200D01*
X201362914Y-186385771D02*
X201362914Y-185600057D01*
X201291485Y-185457200D01*
X201148628Y-185385771D01*
X200862914Y-185385771D01*
X200720057Y-185457200D01*
X201362914Y-186314342D02*
X201220057Y-186385771D01*
X200862914Y-186385771D01*
X200720057Y-186314342D01*
X200648628Y-186171485D01*
X200648628Y-186028628D01*
X200720057Y-185885771D01*
X200862914Y-185814342D01*
X201220057Y-185814342D01*
X201362914Y-185742914D01*
X202720057Y-186385771D02*
X202720057Y-184885771D01*
X202720057Y-186314342D02*
X202577200Y-186385771D01*
X202291485Y-186385771D01*
X202148628Y-186314342D01*
X202077200Y-186242914D01*
X202005771Y-186100057D01*
X202005771Y-185671485D01*
X202077200Y-185528628D01*
X202148628Y-185457200D01*
X202291485Y-185385771D01*
X202577200Y-185385771D01*
X202720057Y-185457200D01*
X203077200Y-186528628D02*
X204220057Y-186528628D01*
X204577200Y-185385771D02*
X204577200Y-186885771D01*
X204577200Y-185457200D02*
X204720057Y-185385771D01*
X205005771Y-185385771D01*
X205148628Y-185457200D01*
X205220057Y-185528628D01*
X205291485Y-185671485D01*
X205291485Y-186100057D01*
X205220057Y-186242914D01*
X205148628Y-186314342D01*
X205005771Y-186385771D01*
X204720057Y-186385771D01*
X204577200Y-186314342D01*
X206577200Y-186314342D02*
X206434342Y-186385771D01*
X206148628Y-186385771D01*
X206005771Y-186314342D01*
X205934342Y-186242914D01*
X205862914Y-186100057D01*
X205862914Y-185671485D01*
X205934342Y-185528628D01*
X206005771Y-185457200D01*
X206148628Y-185385771D01*
X206434342Y-185385771D01*
X206577200Y-185457200D01*
X207220057Y-186385771D02*
X207220057Y-184885771D01*
X207220057Y-185457200D02*
X207362914Y-185385771D01*
X207648628Y-185385771D01*
X207791485Y-185457200D01*
X207862914Y-185528628D01*
X207934342Y-185671485D01*
X207934342Y-186100057D01*
X207862914Y-186242914D01*
X207791485Y-186314342D01*
X207648628Y-186385771D01*
X207362914Y-186385771D01*
X207220057Y-186314342D01*
D10*
D11*
X177002200Y-181507200D02*
X285002200Y-181507200D01*
D10*
D11*
X178362914Y-183614342D02*
X178577200Y-183685771D01*
X178934342Y-183685771D01*
X179077200Y-183614342D01*
X179148628Y-183542914D01*
X179220057Y-183400057D01*
X179220057Y-183257200D01*
X179148628Y-183114342D01*
X179077200Y-183042914D01*
X178934342Y-182971485D01*
X178648628Y-182900057D01*
X178505771Y-182828628D01*
X178434342Y-182757200D01*
X178362914Y-182614342D01*
X178362914Y-182471485D01*
X178434342Y-182328628D01*
X178505771Y-182257200D01*
X178648628Y-182185771D01*
X179005771Y-182185771D01*
X179220057Y-182257200D01*
X179862914Y-183685771D02*
X179862914Y-182185771D01*
X180505771Y-183685771D02*
X180505771Y-182900057D01*
X180434342Y-182757200D01*
X180291485Y-182685771D01*
X180077200Y-182685771D01*
X179934342Y-182757200D01*
X179862914Y-182828628D01*
X181791485Y-183614342D02*
X181648628Y-183685771D01*
X181362914Y-183685771D01*
X181220057Y-183614342D01*
X181148628Y-183471485D01*
X181148628Y-182900057D01*
X181220057Y-182757200D01*
X181362914Y-182685771D01*
X181648628Y-182685771D01*
X181791485Y-182757200D01*
X181862914Y-182900057D01*
X181862914Y-183042914D01*
X181148628Y-183185771D01*
X183077200Y-183614342D02*
X182934342Y-183685771D01*
X182648628Y-183685771D01*
X182505771Y-183614342D01*
X182434342Y-183471485D01*
X182434342Y-182900057D01*
X182505771Y-182757200D01*
X182648628Y-182685771D01*
X182934342Y-182685771D01*
X183077200Y-182757200D01*
X183148628Y-182900057D01*
X183148628Y-183042914D01*
X182434342Y-183185771D01*
X183577200Y-182685771D02*
X184148628Y-182685771D01*
X183791485Y-182185771D02*
X183791485Y-183471485D01*
X183862914Y-183614342D01*
X184005771Y-183685771D01*
X184148628Y-183685771D01*
X184648628Y-183542914D02*
X184720057Y-183614342D01*
X184648628Y-183685771D01*
X184577200Y-183614342D01*
X184648628Y-183542914D01*
X184648628Y-183685771D01*
X184648628Y-182757200D02*
X184720057Y-182828628D01*
X184648628Y-182900057D01*
X184577200Y-182828628D01*
X184648628Y-182757200D01*
X184648628Y-182900057D01*
D10*
D12*
D10*
D11*
X178362914Y-177257200D02*
X179077200Y-177257200D01*
X178220057Y-177685771D02*
X178720057Y-176185771D01*
X179220057Y-177685771D01*
X180362914Y-176685771D02*
X180362914Y-177685771D01*
X179720057Y-176685771D02*
X179720057Y-177471485D01*
X179791485Y-177614342D01*
X179934342Y-177685771D01*
X180148628Y-177685771D01*
X180291485Y-177614342D01*
X180362914Y-177542914D01*
X180862914Y-176685771D02*
X181434342Y-176685771D01*
X181077200Y-176185771D02*
X181077200Y-177471485D01*
X181148628Y-177614342D01*
X181291485Y-177685771D01*
X181434342Y-177685771D01*
X181934342Y-177685771D02*
X181934342Y-176185771D01*
X182577200Y-177685771D02*
X182577200Y-176900057D01*
X182505771Y-176757200D01*
X182362914Y-176685771D01*
X182148628Y-176685771D01*
X182005771Y-176757200D01*
X181934342Y-176828628D01*
X183505771Y-177685771D02*
X183362914Y-177614342D01*
X183291485Y-177542914D01*
X183220057Y-177400057D01*
X183220057Y-176971485D01*
X183291485Y-176828628D01*
X183362914Y-176757200D01*
X183505771Y-176685771D01*
X183720057Y-176685771D01*
X183862914Y-176757200D01*
X183934342Y-176828628D01*
X184005771Y-176971485D01*
X184005771Y-177400057D01*
X183934342Y-177542914D01*
X183862914Y-177614342D01*
X183720057Y-177685771D01*
X183505771Y-177685771D01*
X184648628Y-177685771D02*
X184648628Y-176685771D01*
X184648628Y-176971485D02*
X184720057Y-176828628D01*
X184791485Y-176757200D01*
X184934342Y-176685771D01*
X185077200Y-176685771D01*
X185577200Y-177542914D02*
X185648628Y-177614342D01*
X185577200Y-177685771D01*
X185505771Y-177614342D01*
X185577200Y-177542914D01*
X185577200Y-177685771D01*
X185577200Y-176757200D02*
X185648628Y-176828628D01*
X185577200Y-176900057D01*
X185505771Y-176828628D01*
X185577200Y-176757200D01*
X185577200Y-176900057D01*
X187934342Y-176900057D02*
X187434342Y-176900057D01*
X187434342Y-177685771D02*
X187434342Y-176185771D01*
X188148628Y-176185771D01*
X189362914Y-177685771D02*
X189362914Y-176900057D01*
X189291485Y-176757200D01*
X189148628Y-176685771D01*
X188862914Y-176685771D01*
X188720057Y-176757200D01*
X189362914Y-177614342D02*
X189220057Y-177685771D01*
X188862914Y-177685771D01*
X188720057Y-177614342D01*
X188648628Y-177471485D01*
X188648628Y-177328628D01*
X188720057Y-177185771D01*
X188862914Y-177114342D01*
X189220057Y-177114342D01*
X189362914Y-177042914D01*
X189148628Y-176114342D02*
X188934342Y-176328628D01*
X190077200Y-177685771D02*
X190077200Y-176185771D01*
X190077200Y-176757200D02*
X190220057Y-176685771D01*
X190505771Y-176685771D01*
X190648628Y-176757200D01*
X190720057Y-176828628D01*
X190791485Y-176971485D01*
X190791485Y-177400057D01*
X190720057Y-177542914D01*
X190648628Y-177614342D01*
X190505771Y-177685771D01*
X190220057Y-177685771D01*
X190077200Y-177614342D01*
X191434342Y-177685771D02*
X191434342Y-176685771D01*
X191434342Y-176185771D02*
X191362914Y-176257200D01*
X191434342Y-176328628D01*
X191505771Y-176257200D01*
X191434342Y-176185771D01*
X191434342Y-176328628D01*
X192362914Y-177685771D02*
X192220057Y-177614342D01*
X192148628Y-177542914D01*
X192077200Y-177400057D01*
X192077200Y-176971485D01*
X192148628Y-176828628D01*
X192220057Y-176757200D01*
X192362914Y-176685771D01*
X192577200Y-176685771D01*
X192720057Y-176757200D01*
X192791485Y-176828628D01*
X192862914Y-176971485D01*
X192862914Y-177400057D01*
X192791485Y-177542914D01*
X192720057Y-177614342D01*
X192577200Y-177685771D01*
X192362914Y-177685771D01*
X194648628Y-177685771D02*
X194648628Y-176185771D01*
X195220057Y-176185771D01*
X195362914Y-176257200D01*
X195434342Y-176328628D01*
X195505771Y-176471485D01*
X195505771Y-176685771D01*
X195434342Y-176828628D01*
X195362914Y-176900057D01*
X195220057Y-176971485D01*
X194648628Y-176971485D01*
X196720057Y-177614342D02*
X196577200Y-177685771D01*
X196291485Y-177685771D01*
X196148628Y-177614342D01*
X196077200Y-177471485D01*
X196077200Y-176900057D01*
X196148628Y-176757200D01*
X196291485Y-176685771D01*
X196577200Y-176685771D01*
X196720057Y-176757200D01*
X196791485Y-176900057D01*
X196791485Y-177042914D01*
X196077200Y-177185771D01*
X197434342Y-177685771D02*
X197434342Y-176685771D01*
X197434342Y-176971485D02*
X197505771Y-176828628D01*
X197577200Y-176757200D01*
X197720057Y-176685771D01*
X197862914Y-176685771D01*
X198934342Y-177614342D02*
X198791485Y-177685771D01*
X198505771Y-177685771D01*
X198362914Y-177614342D01*
X198291485Y-177471485D01*
X198291485Y-176900057D01*
X198362914Y-176757200D01*
X198505771Y-176685771D01*
X198791485Y-176685771D01*
X198934342Y-176757200D01*
X199005771Y-176900057D01*
X199005771Y-177042914D01*
X198291485Y-177185771D01*
X199648628Y-177685771D02*
X199648628Y-176685771D01*
X199648628Y-176185771D02*
X199577200Y-176257200D01*
X199648628Y-176328628D01*
X199720057Y-176257200D01*
X199648628Y-176185771D01*
X199648628Y-176328628D01*
X200362914Y-177685771D02*
X200362914Y-176685771D01*
X200362914Y-176971485D02*
X200434342Y-176828628D01*
X200505771Y-176757200D01*
X200648628Y-176685771D01*
X200791485Y-176685771D01*
X201934342Y-177685771D02*
X201934342Y-176900057D01*
X201862914Y-176757200D01*
X201720057Y-176685771D01*
X201434342Y-176685771D01*
X201291485Y-176757200D01*
X201934342Y-177614342D02*
X201791485Y-177685771D01*
X201434342Y-177685771D01*
X201291485Y-177614342D01*
X201220057Y-177471485D01*
X201220057Y-177328628D01*
X201291485Y-177185771D01*
X201434342Y-177114342D01*
X201791485Y-177114342D01*
X201934342Y-177042914D01*
X204434342Y-177685771D02*
X204434342Y-176185771D01*
X204434342Y-177614342D02*
X204291485Y-177685771D01*
X204005771Y-177685771D01*
X203862914Y-177614342D01*
X203791485Y-177542914D01*
X203720057Y-177400057D01*
X203720057Y-176971485D01*
X203791485Y-176828628D01*
X203862914Y-176757200D01*
X204005771Y-176685771D01*
X204291485Y-176685771D01*
X204434342Y-176757200D01*
X205791485Y-177685771D02*
X205791485Y-176900057D01*
X205720057Y-176757200D01*
X205577200Y-176685771D01*
X205291485Y-176685771D01*
X205148628Y-176757200D01*
X205791485Y-177614342D02*
X205648628Y-177685771D01*
X205291485Y-177685771D01*
X205148628Y-177614342D01*
X205077200Y-177471485D01*
X205077200Y-177328628D01*
X205148628Y-177185771D01*
X205291485Y-177114342D01*
X205648628Y-177114342D01*
X205791485Y-177042914D01*
X207577200Y-177614342D02*
X207791485Y-177685771D01*
X208148628Y-177685771D01*
X208291485Y-177614342D01*
X208362914Y-177542914D01*
X208434342Y-177400057D01*
X208434342Y-177257200D01*
X208362914Y-177114342D01*
X208291485Y-177042914D01*
X208148628Y-176971485D01*
X207862914Y-176900057D01*
X207720057Y-176828628D01*
X207648628Y-176757200D01*
X207577200Y-176614342D01*
X207577200Y-176471485D01*
X207648628Y-176328628D01*
X207720057Y-176257200D01*
X207862914Y-176185771D01*
X208220057Y-176185771D01*
X208434342Y-176257200D01*
X209077200Y-177685771D02*
X209077200Y-176685771D01*
X209077200Y-176185771D02*
X209005771Y-176257200D01*
X209077200Y-176328628D01*
X209148628Y-176257200D01*
X209077200Y-176185771D01*
X209077200Y-176328628D01*
X210005771Y-177685771D02*
X209862914Y-177614342D01*
X209791485Y-177471485D01*
X209791485Y-176185771D01*
X210434342Y-176685771D02*
X210791485Y-177685771D01*
X211148628Y-176685771D01*
X212362914Y-177685771D02*
X212362914Y-176900057D01*
X212291485Y-176757200D01*
X212148628Y-176685771D01*
X211862914Y-176685771D01*
X211720057Y-176757200D01*
X212362914Y-177614342D02*
X212220057Y-177685771D01*
X211862914Y-177685771D01*
X211720057Y-177614342D01*
X211648628Y-177471485D01*
X211648628Y-177328628D01*
X211720057Y-177185771D01*
X211862914Y-177114342D01*
X212220057Y-177114342D01*
X212362914Y-177042914D01*
D10*
D11*
X178220057Y-173185771D02*
X179077200Y-173185771D01*
X178648628Y-174685771D02*
X178648628Y-173185771D01*
X179577200Y-174685771D02*
X179577200Y-173685771D01*
X179577200Y-173185771D02*
X179505771Y-173257200D01*
X179577200Y-173328628D01*
X179648628Y-173257200D01*
X179577200Y-173185771D01*
X179577200Y-173328628D01*
X180077200Y-173685771D02*
X180648628Y-173685771D01*
X180291485Y-173185771D02*
X180291485Y-174471485D01*
X180362914Y-174614342D01*
X180505771Y-174685771D01*
X180648628Y-174685771D01*
X181362914Y-174685771D02*
X181220057Y-174614342D01*
X181148628Y-174471485D01*
X181148628Y-173185771D01*
X182505771Y-174614342D02*
X182362914Y-174685771D01*
X182077200Y-174685771D01*
X181934342Y-174614342D01*
X181862914Y-174471485D01*
X181862914Y-173900057D01*
X181934342Y-173757200D01*
X182077200Y-173685771D01*
X182362914Y-173685771D01*
X182505771Y-173757200D01*
X182577200Y-173900057D01*
X182577200Y-174042914D01*
X181862914Y-174185771D01*
X183220057Y-174542914D02*
X183291485Y-174614342D01*
X183220057Y-174685771D01*
X183148628Y-174614342D01*
X183220057Y-174542914D01*
X183220057Y-174685771D01*
X183220057Y-173757200D02*
X183291485Y-173828628D01*
X183220057Y-173900057D01*
X183148628Y-173828628D01*
X183220057Y-173757200D01*
X183220057Y-173900057D01*
X185005771Y-174257200D02*
X185720057Y-174257200D01*
X184862914Y-174685771D02*
X185362914Y-173185771D01*
X185862914Y-174685771D01*
X187505771Y-174685771D02*
X187505771Y-173185771D01*
X187862914Y-173185771D01*
X188077200Y-173257200D01*
X188220057Y-173400057D01*
X188291485Y-173542914D01*
X188362914Y-173828628D01*
X188362914Y-174042914D01*
X188291485Y-174328628D01*
X188220057Y-174471485D01*
X188077200Y-174614342D01*
X187862914Y-174685771D01*
X187505771Y-174685771D01*
X189005771Y-174685771D02*
X189005771Y-173185771D01*
X190005771Y-173971485D02*
X190005771Y-174685771D01*
X189505771Y-173185771D02*
X190005771Y-173971485D01*
X190505771Y-173185771D01*
X192005771Y-173685771D02*
X192291485Y-174685771D01*
X192577200Y-173971485D01*
X192862914Y-174685771D01*
X193148628Y-173685771D01*
X193720057Y-174685771D02*
X193720057Y-173685771D01*
X193720057Y-173185771D02*
X193648628Y-173257200D01*
X193720057Y-173328628D01*
X193791485Y-173257200D01*
X193720057Y-173185771D01*
X193720057Y-173328628D01*
X195077200Y-174685771D02*
X195077200Y-173185771D01*
X195077200Y-174614342D02*
X194934342Y-174685771D01*
X194648628Y-174685771D01*
X194505771Y-174614342D01*
X194434342Y-174542914D01*
X194362914Y-174400057D01*
X194362914Y-173971485D01*
X194434342Y-173828628D01*
X194505771Y-173757200D01*
X194648628Y-173685771D01*
X194934342Y-173685771D01*
X195077200Y-173757200D01*
X196362914Y-174614342D02*
X196220057Y-174685771D01*
X195934342Y-174685771D01*
X195791485Y-174614342D01*
X195720057Y-174471485D01*
X195720057Y-173900057D01*
X195791485Y-173757200D01*
X195934342Y-173685771D01*
X196220057Y-173685771D01*
X196362914Y-173757200D01*
X196434342Y-173900057D01*
X196434342Y-174042914D01*
X195720057Y-174185771D01*
X198220057Y-174685771D02*
X198220057Y-173685771D01*
X198220057Y-173971485D02*
X198291485Y-173828628D01*
X198362914Y-173757200D01*
X198505771Y-173685771D01*
X198648628Y-173685771D01*
X199791485Y-174685771D02*
X199791485Y-173900057D01*
X199720057Y-173757200D01*
X199577200Y-173685771D01*
X199291485Y-173685771D01*
X199148628Y-173757200D01*
X199791485Y-174614342D02*
X199648628Y-174685771D01*
X199291485Y-174685771D01*
X199148628Y-174614342D01*
X199077200Y-174471485D01*
X199077200Y-174328628D01*
X199148628Y-174185771D01*
X199291485Y-174114342D01*
X199648628Y-174114342D01*
X199791485Y-174042914D01*
X200505771Y-173685771D02*
X200505771Y-174685771D01*
X200505771Y-173828628D02*
X200577200Y-173757200D01*
X200720057Y-173685771D01*
X200934342Y-173685771D01*
X201077200Y-173757200D01*
X201148628Y-173900057D01*
X201148628Y-174685771D01*
X202505771Y-173685771D02*
X202505771Y-174900057D01*
X202434342Y-175042914D01*
X202362914Y-175114342D01*
X202220057Y-175185771D01*
X202005771Y-175185771D01*
X201862914Y-175114342D01*
X202505771Y-174614342D02*
X202362914Y-174685771D01*
X202077200Y-174685771D01*
X201934342Y-174614342D01*
X201862914Y-174542914D01*
X201791485Y-174400057D01*
X201791485Y-173971485D01*
X201862914Y-173828628D01*
X201934342Y-173757200D01*
X202077200Y-173685771D01*
X202362914Y-173685771D01*
X202505771Y-173757200D01*
X203791485Y-174614342D02*
X203648628Y-174685771D01*
X203362914Y-174685771D01*
X203220057Y-174614342D01*
X203148628Y-174471485D01*
X203148628Y-173900057D01*
X203220057Y-173757200D01*
X203362914Y-173685771D01*
X203648628Y-173685771D01*
X203791485Y-173757200D01*
X203862914Y-173900057D01*
X203862914Y-174042914D01*
X203148628Y-174185771D01*
X205577200Y-174614342D02*
X205791485Y-174685771D01*
X206148628Y-174685771D01*
X206291485Y-174614342D01*
X206362914Y-174542914D01*
X206434342Y-174400057D01*
X206434342Y-174257200D01*
X206362914Y-174114342D01*
X206291485Y-174042914D01*
X206148628Y-173971485D01*
X205862914Y-173900057D01*
X205720057Y-173828628D01*
X205648628Y-173757200D01*
X205577200Y-173614342D01*
X205577200Y-173471485D01*
X205648628Y-173328628D01*
X205720057Y-173257200D01*
X205862914Y-173185771D01*
X206220057Y-173185771D01*
X206434342Y-173257200D01*
X207077200Y-174685771D02*
X207077200Y-173185771D01*
X207577200Y-174257200D01*
X208077200Y-173185771D01*
X208077200Y-174685771D01*
X208791485Y-174685771D02*
X208791485Y-173185771D01*
X209362914Y-173185771D01*
X209505771Y-173257200D01*
X209577200Y-173328628D01*
X209648628Y-173471485D01*
X209648628Y-173685771D01*
X209577200Y-173828628D01*
X209505771Y-173900057D01*
X209362914Y-173971485D01*
X208791485Y-173971485D01*
X210220057Y-174614342D02*
X210434342Y-174685771D01*
X210791485Y-174685771D01*
X210934342Y-174614342D01*
X211005771Y-174542914D01*
X211077200Y-174400057D01*
X211077200Y-174257200D01*
X211005771Y-174114342D01*
X210934342Y-174042914D01*
X210791485Y-173971485D01*
X210505771Y-173900057D01*
X210362914Y-173828628D01*
X210291485Y-173757200D01*
X210220057Y-173614342D01*
X210220057Y-173471485D01*
X210291485Y-173328628D01*
X210362914Y-173257200D01*
X210505771Y-173185771D01*
X210862914Y-173185771D01*
X211077200Y-173257200D01*
X212648628Y-173685771D02*
X213220057Y-173685771D01*
X212862914Y-174685771D02*
X212862914Y-173400057D01*
X212934342Y-173257200D01*
X213077200Y-173185771D01*
X213220057Y-173185771D01*
X213934342Y-174685771D02*
X213791485Y-174614342D01*
X213720057Y-174542914D01*
X213648628Y-174400057D01*
X213648628Y-173971485D01*
X213720057Y-173828628D01*
X213791485Y-173757200D01*
X213934342Y-173685771D01*
X214148628Y-173685771D01*
X214291485Y-173757200D01*
X214362914Y-173828628D01*
X214434342Y-173971485D01*
X214434342Y-174400057D01*
X214362914Y-174542914D01*
X214291485Y-174614342D01*
X214148628Y-174685771D01*
X213934342Y-174685771D01*
X215077200Y-174685771D02*
X215077200Y-173685771D01*
X215077200Y-173971485D02*
X215148628Y-173828628D01*
X215220057Y-173757200D01*
X215362914Y-173685771D01*
X215505771Y-173685771D01*
X217362914Y-174685771D02*
X217220057Y-174614342D01*
X217148628Y-174471485D01*
X217148628Y-173185771D01*
X218148628Y-174685771D02*
X218005771Y-174614342D01*
X217934342Y-174542914D01*
X217862914Y-174400057D01*
X217862914Y-173971485D01*
X217934342Y-173828628D01*
X218005771Y-173757200D01*
X218148628Y-173685771D01*
X218362914Y-173685771D01*
X218505771Y-173757200D01*
X218577200Y-173828628D01*
X218648628Y-173971485D01*
X218648628Y-174400057D01*
X218577200Y-174542914D01*
X218505771Y-174614342D01*
X218362914Y-174685771D01*
X218148628Y-174685771D01*
X219148628Y-173685771D02*
X219434342Y-174685771D01*
X219720057Y-173971485D01*
X220005771Y-174685771D01*
X220291485Y-173685771D01*
X222005771Y-173685771D02*
X222005771Y-175185771D01*
X222005771Y-173757200D02*
X222148628Y-173685771D01*
X222434342Y-173685771D01*
X222577200Y-173757200D01*
X222648628Y-173828628D01*
X222720057Y-173971485D01*
X222720057Y-174400057D01*
X222648628Y-174542914D01*
X222577200Y-174614342D01*
X222434342Y-174685771D01*
X222148628Y-174685771D01*
X222005771Y-174614342D01*
X223577200Y-174685771D02*
X223434342Y-174614342D01*
X223362914Y-174542914D01*
X223291485Y-174400057D01*
X223291485Y-173971485D01*
X223362914Y-173828628D01*
X223434342Y-173757200D01*
X223577200Y-173685771D01*
X223791485Y-173685771D01*
X223934342Y-173757200D01*
X224005771Y-173828628D01*
X224077200Y-173971485D01*
X224077200Y-174400057D01*
X224005771Y-174542914D01*
X223934342Y-174614342D01*
X223791485Y-174685771D01*
X223577200Y-174685771D01*
X224577200Y-173685771D02*
X224862914Y-174685771D01*
X225148628Y-173971485D01*
X225434342Y-174685771D01*
X225720057Y-173685771D01*
X226862914Y-174614342D02*
X226720057Y-174685771D01*
X226434342Y-174685771D01*
X226291485Y-174614342D01*
X226220057Y-174471485D01*
X226220057Y-173900057D01*
X226291485Y-173757200D01*
X226434342Y-173685771D01*
X226720057Y-173685771D01*
X226862914Y-173757200D01*
X226934342Y-173900057D01*
X226934342Y-174042914D01*
X226220057Y-174185771D01*
X227577200Y-174685771D02*
X227577200Y-173685771D01*
X227577200Y-173971485D02*
X227648628Y-173828628D01*
X227720057Y-173757200D01*
X227862914Y-173685771D01*
X228005771Y-173685771D01*
X230220057Y-174614342D02*
X230077200Y-174685771D01*
X229791485Y-174685771D01*
X229648628Y-174614342D01*
X229577200Y-174471485D01*
X229577200Y-173900057D01*
X229648628Y-173757200D01*
X229791485Y-173685771D01*
X230077200Y-173685771D01*
X230220057Y-173757200D01*
X230291485Y-173900057D01*
X230291485Y-174042914D01*
X229577200Y-174185771D01*
X230934342Y-174685771D02*
X230934342Y-173685771D01*
X230934342Y-173828628D02*
X231005771Y-173757200D01*
X231148628Y-173685771D01*
X231362914Y-173685771D01*
X231505771Y-173757200D01*
X231577200Y-173900057D01*
X231577200Y-174685771D01*
X231577200Y-173900057D02*
X231648628Y-173757200D01*
X231791485Y-173685771D01*
X232005771Y-173685771D01*
X232148628Y-173757200D01*
X232220057Y-173900057D01*
X232220057Y-174685771D01*
X232934342Y-174685771D02*
X232934342Y-173185771D01*
X232934342Y-173757200D02*
X233077200Y-173685771D01*
X233362914Y-173685771D01*
X233505771Y-173757200D01*
X233577200Y-173828628D01*
X233648628Y-173971485D01*
X233648628Y-174400057D01*
X233577200Y-174542914D01*
X233505771Y-174614342D01*
X233362914Y-174685771D01*
X233077200Y-174685771D01*
X232934342Y-174614342D01*
X234862914Y-174614342D02*
X234720057Y-174685771D01*
X234434342Y-174685771D01*
X234291485Y-174614342D01*
X234220057Y-174471485D01*
X234220057Y-173900057D01*
X234291485Y-173757200D01*
X234434342Y-173685771D01*
X234720057Y-173685771D01*
X234862914Y-173757200D01*
X234934342Y-173900057D01*
X234934342Y-174042914D01*
X234220057Y-174185771D01*
X236220057Y-174685771D02*
X236220057Y-173185771D01*
X236220057Y-174614342D02*
X236077200Y-174685771D01*
X235791485Y-174685771D01*
X235648628Y-174614342D01*
X235577200Y-174542914D01*
X235505771Y-174400057D01*
X235505771Y-173971485D01*
X235577200Y-173828628D01*
X235648628Y-173757200D01*
X235791485Y-173685771D01*
X236077200Y-173685771D01*
X236220057Y-173757200D01*
X237577200Y-174685771D02*
X237577200Y-173185771D01*
X237577200Y-174614342D02*
X237434342Y-174685771D01*
X237148628Y-174685771D01*
X237005771Y-174614342D01*
X236934342Y-174542914D01*
X236862914Y-174400057D01*
X236862914Y-173971485D01*
X236934342Y-173828628D01*
X237005771Y-173757200D01*
X237148628Y-173685771D01*
X237434342Y-173685771D01*
X237577200Y-173757200D01*
X238862914Y-174614342D02*
X238720057Y-174685771D01*
X238434342Y-174685771D01*
X238291485Y-174614342D01*
X238220057Y-174471485D01*
X238220057Y-173900057D01*
X238291485Y-173757200D01*
X238434342Y-173685771D01*
X238720057Y-173685771D01*
X238862914Y-173757200D01*
X238934342Y-173900057D01*
X238934342Y-174042914D01*
X238220057Y-174185771D01*
X240220057Y-174685771D02*
X240220057Y-173185771D01*
X240220057Y-174614342D02*
X240077200Y-174685771D01*
X239791485Y-174685771D01*
X239648628Y-174614342D01*
X239577200Y-174542914D01*
X239505771Y-174400057D01*
X239505771Y-173971485D01*
X239577200Y-173828628D01*
X239648628Y-173757200D01*
X239791485Y-173685771D01*
X240077200Y-173685771D01*
X240220057Y-173757200D01*
X242005771Y-174614342D02*
X242148628Y-174685771D01*
X242434342Y-174685771D01*
X242577200Y-174614342D01*
X242648628Y-174471485D01*
X242648628Y-174400057D01*
X242577200Y-174257200D01*
X242434342Y-174185771D01*
X242220057Y-174185771D01*
X242077200Y-174114342D01*
X242005771Y-173971485D01*
X242005771Y-173900057D01*
X242077200Y-173757200D01*
X242220057Y-173685771D01*
X242434342Y-173685771D01*
X242577200Y-173757200D01*
X243148628Y-173685771D02*
X243505771Y-174685771D01*
X243862914Y-173685771D02*
X243505771Y-174685771D01*
X243362914Y-175042914D01*
X243291485Y-175114342D01*
X243148628Y-175185771D01*
X244362914Y-174614342D02*
X244505771Y-174685771D01*
X244791485Y-174685771D01*
X244934342Y-174614342D01*
X245005771Y-174471485D01*
X245005771Y-174400057D01*
X244934342Y-174257200D01*
X244791485Y-174185771D01*
X244577200Y-174185771D01*
X244434342Y-174114342D01*
X244362914Y-173971485D01*
X244362914Y-173900057D01*
X244434342Y-173757200D01*
X244577200Y-173685771D01*
X244791485Y-173685771D01*
X244934342Y-173757200D01*
X245434342Y-173685771D02*
X246005771Y-173685771D01*
X245648628Y-173185771D02*
X245648628Y-174471485D01*
X245720057Y-174614342D01*
X245862914Y-174685771D01*
X246005771Y-174685771D01*
X247077200Y-174614342D02*
X246934342Y-174685771D01*
X246648628Y-174685771D01*
X246505771Y-174614342D01*
X246434342Y-174471485D01*
X246434342Y-173900057D01*
X246505771Y-173757200D01*
X246648628Y-173685771D01*
X246934342Y-173685771D01*
X247077200Y-173757200D01*
X247148628Y-173900057D01*
X247148628Y-174042914D01*
X246434342Y-174185771D01*
X247791485Y-174685771D02*
X247791485Y-173685771D01*
X247791485Y-173828628D02*
X247862914Y-173757200D01*
X248005771Y-173685771D01*
X248220057Y-173685771D01*
X248362914Y-173757200D01*
X248434342Y-173900057D01*
X248434342Y-174685771D01*
X248434342Y-173900057D02*
X248505771Y-173757200D01*
X248648628Y-173685771D01*
X248862914Y-173685771D01*
X249005771Y-173757200D01*
X249077200Y-173900057D01*
X249077200Y-174685771D01*
X249720057Y-174614342D02*
X249862914Y-174685771D01*
X250148628Y-174685771D01*
X250291485Y-174614342D01*
X250362914Y-174471485D01*
X250362914Y-174400057D01*
X250291485Y-174257200D01*
X250148628Y-174185771D01*
X249934342Y-174185771D01*
X249791485Y-174114342D01*
X249720057Y-173971485D01*
X249720057Y-173900057D01*
X249791485Y-173757200D01*
X249934342Y-173685771D01*
X250148628Y-173685771D01*
X250291485Y-173757200D01*
D10*
D11*
X179291485Y-171542914D02*
X179220057Y-171614342D01*
X179005771Y-171685771D01*
X178862914Y-171685771D01*
X178648628Y-171614342D01*
X178505771Y-171471485D01*
X178434342Y-171328628D01*
X178362914Y-171042914D01*
X178362914Y-170828628D01*
X178434342Y-170542914D01*
X178505771Y-170400057D01*
X178648628Y-170257200D01*
X178862914Y-170185771D01*
X179005771Y-170185771D01*
X179220057Y-170257200D01*
X179291485Y-170328628D01*
X180148628Y-171685771D02*
X180005771Y-171614342D01*
X179934342Y-171542914D01*
X179862914Y-171400057D01*
X179862914Y-170971485D01*
X179934342Y-170828628D01*
X180005771Y-170757200D01*
X180148628Y-170685771D01*
X180362914Y-170685771D01*
X180505771Y-170757200D01*
X180577200Y-170828628D01*
X180648628Y-170971485D01*
X180648628Y-171400057D01*
X180577200Y-171542914D01*
X180505771Y-171614342D01*
X180362914Y-171685771D01*
X180148628Y-171685771D01*
X181291485Y-170685771D02*
X181291485Y-172185771D01*
X181291485Y-170757200D02*
X181434342Y-170685771D01*
X181720057Y-170685771D01*
X181862914Y-170757200D01*
X181934342Y-170828628D01*
X182005771Y-170971485D01*
X182005771Y-171400057D01*
X181934342Y-171542914D01*
X181862914Y-171614342D01*
X181720057Y-171685771D01*
X181434342Y-171685771D01*
X181291485Y-171614342D01*
X182505771Y-170685771D02*
X182862914Y-171685771D01*
X183220057Y-170685771D02*
X182862914Y-171685771D01*
X182720057Y-172042914D01*
X182648628Y-172114342D01*
X182505771Y-172185771D01*
X183791485Y-171685771D02*
X183791485Y-170685771D01*
X183791485Y-170971485D02*
X183862914Y-170828628D01*
X183934342Y-170757200D01*
X184077200Y-170685771D01*
X184220057Y-170685771D01*
X184720057Y-171685771D02*
X184720057Y-170685771D01*
X184720057Y-170185771D02*
X184648628Y-170257200D01*
X184720057Y-170328628D01*
X184791485Y-170257200D01*
X184720057Y-170185771D01*
X184720057Y-170328628D01*
X186077200Y-170685771D02*
X186077200Y-171900057D01*
X186005771Y-172042914D01*
X185934342Y-172114342D01*
X185791485Y-172185771D01*
X185577200Y-172185771D01*
X185434342Y-172114342D01*
X186077200Y-171614342D02*
X185934342Y-171685771D01*
X185648628Y-171685771D01*
X185505771Y-171614342D01*
X185434342Y-171542914D01*
X185362914Y-171400057D01*
X185362914Y-170971485D01*
X185434342Y-170828628D01*
X185505771Y-170757200D01*
X185648628Y-170685771D01*
X185934342Y-170685771D01*
X186077200Y-170757200D01*
X186791485Y-171685771D02*
X186791485Y-170185771D01*
X187434342Y-171685771D02*
X187434342Y-170900057D01*
X187362914Y-170757200D01*
X187220057Y-170685771D01*
X187005771Y-170685771D01*
X186862914Y-170757200D01*
X186791485Y-170828628D01*
X187934342Y-170685771D02*
X188505771Y-170685771D01*
X188148628Y-170185771D02*
X188148628Y-171471485D01*
X188220057Y-171614342D01*
X188362914Y-171685771D01*
X188505771Y-171685771D01*
X189005771Y-171542914D02*
X189077200Y-171614342D01*
X189005771Y-171685771D01*
X188934342Y-171614342D01*
X189005771Y-171542914D01*
X189005771Y-171685771D01*
X189005771Y-170757200D02*
X189077200Y-170828628D01*
X189005771Y-170900057D01*
X188934342Y-170828628D01*
X189005771Y-170757200D01*
X189005771Y-170900057D01*
X191720057Y-171542914D02*
X191648628Y-171614342D01*
X191434342Y-171685771D01*
X191291485Y-171685771D01*
X191077200Y-171614342D01*
X190934342Y-171471485D01*
X190862914Y-171328628D01*
X190791485Y-171042914D01*
X190791485Y-170828628D01*
X190862914Y-170542914D01*
X190934342Y-170400057D01*
X191077200Y-170257200D01*
X191291485Y-170185771D01*
X191434342Y-170185771D01*
X191648628Y-170257200D01*
X191720057Y-170328628D01*
X193220057Y-171542914D02*
X193148628Y-171614342D01*
X192934342Y-171685771D01*
X192791485Y-171685771D01*
X192577200Y-171614342D01*
X192434342Y-171471485D01*
X192362914Y-171328628D01*
X192291485Y-171042914D01*
X192291485Y-170828628D01*
X192362914Y-170542914D01*
X192434342Y-170400057D01*
X192577200Y-170257200D01*
X192791485Y-170185771D01*
X192934342Y-170185771D01*
X193148628Y-170257200D01*
X193220057Y-170328628D01*
X195505771Y-170900057D02*
X195720057Y-170971485D01*
X195791485Y-171042914D01*
X195862914Y-171185771D01*
X195862914Y-171400057D01*
X195791485Y-171542914D01*
X195720057Y-171614342D01*
X195577200Y-171685771D01*
X195005771Y-171685771D01*
X195005771Y-170185771D01*
X195505771Y-170185771D01*
X195648628Y-170257200D01*
X195720057Y-170328628D01*
X195791485Y-170471485D01*
X195791485Y-170614342D01*
X195720057Y-170757200D01*
X195648628Y-170828628D01*
X195505771Y-170900057D01*
X195005771Y-170900057D01*
X196791485Y-170971485D02*
X196791485Y-171685771D01*
X196291485Y-170185771D02*
X196791485Y-170971485D01*
X197291485Y-170185771D01*
X199577200Y-170685771D02*
X199577200Y-171685771D01*
X199220057Y-170114342D02*
X198862914Y-171185771D01*
X199791485Y-171185771D01*
X200362914Y-171542914D02*
X200434342Y-171614342D01*
X200362914Y-171685771D01*
X200291485Y-171614342D01*
X200362914Y-171542914D01*
X200362914Y-171685771D01*
X201362914Y-170185771D02*
X201505771Y-170185771D01*
X201648628Y-170257200D01*
X201720057Y-170328628D01*
X201791485Y-170471485D01*
X201862914Y-170757200D01*
X201862914Y-171114342D01*
X201791485Y-171400057D01*
X201720057Y-171542914D01*
X201648628Y-171614342D01*
X201505771Y-171685771D01*
X201362914Y-171685771D01*
X201220057Y-171614342D01*
X201148628Y-171542914D01*
X201077200Y-171400057D01*
X201005771Y-171114342D01*
X201005771Y-170757200D01*
X201077200Y-170471485D01*
X201148628Y-170328628D01*
X201220057Y-170257200D01*
X201362914Y-170185771D01*
D10*
D11*
X178434342Y-168685771D02*
X178434342Y-167185771D01*
X179077200Y-168685771D02*
X179077200Y-167900057D01*
X179005771Y-167757200D01*
X178862914Y-167685771D01*
X178648628Y-167685771D01*
X178505771Y-167757200D01*
X178434342Y-167828628D01*
X179577200Y-167685771D02*
X180148628Y-167685771D01*
X179791485Y-167185771D02*
X179791485Y-168471485D01*
X179862914Y-168614342D01*
X180005771Y-168685771D01*
X180148628Y-168685771D01*
X180434342Y-167685771D02*
X181005771Y-167685771D01*
X180648628Y-167185771D02*
X180648628Y-168471485D01*
X180720057Y-168614342D01*
X180862914Y-168685771D01*
X181005771Y-168685771D01*
X181505771Y-167685771D02*
X181505771Y-169185771D01*
X181505771Y-167757200D02*
X181648628Y-167685771D01*
X181934342Y-167685771D01*
X182077200Y-167757200D01*
X182148628Y-167828628D01*
X182220057Y-167971485D01*
X182220057Y-168400057D01*
X182148628Y-168542914D01*
X182077200Y-168614342D01*
X181934342Y-168685771D01*
X181648628Y-168685771D01*
X181505771Y-168614342D01*
X182791485Y-168614342D02*
X182934342Y-168685771D01*
X183220057Y-168685771D01*
X183362914Y-168614342D01*
X183434342Y-168471485D01*
X183434342Y-168400057D01*
X183362914Y-168257200D01*
X183220057Y-168185771D01*
X183005771Y-168185771D01*
X182862914Y-168114342D01*
X182791485Y-167971485D01*
X182791485Y-167900057D01*
X182862914Y-167757200D01*
X183005771Y-167685771D01*
X183220057Y-167685771D01*
X183362914Y-167757200D01*
X184077200Y-168542914D02*
X184148628Y-168614342D01*
X184077200Y-168685771D01*
X184005771Y-168614342D01*
X184077200Y-168542914D01*
X184077200Y-168685771D01*
X184077200Y-167757200D02*
X184148628Y-167828628D01*
X184077200Y-167900057D01*
X184005771Y-167828628D01*
X184077200Y-167757200D01*
X184077200Y-167900057D01*
X185862914Y-167114342D02*
X184577200Y-169042914D01*
X187434342Y-167114342D02*
X186148628Y-169042914D01*
X188577200Y-168614342D02*
X188434342Y-168685771D01*
X188148628Y-168685771D01*
X188005771Y-168614342D01*
X187934342Y-168542914D01*
X187862914Y-168400057D01*
X187862914Y-167971485D01*
X187934342Y-167828628D01*
X188005771Y-167757200D01*
X188148628Y-167685771D01*
X188434342Y-167685771D01*
X188577200Y-167757200D01*
X189220057Y-168685771D02*
X189220057Y-167685771D01*
X189220057Y-167971485D02*
X189291485Y-167828628D01*
X189362914Y-167757200D01*
X189505771Y-167685771D01*
X189648628Y-167685771D01*
X190720057Y-168614342D02*
X190577200Y-168685771D01*
X190291485Y-168685771D01*
X190148628Y-168614342D01*
X190077200Y-168471485D01*
X190077200Y-167900057D01*
X190148628Y-167757200D01*
X190291485Y-167685771D01*
X190577200Y-167685771D01*
X190720057Y-167757200D01*
X190791485Y-167900057D01*
X190791485Y-168042914D01*
X190077200Y-168185771D01*
X192077200Y-168685771D02*
X192077200Y-167900057D01*
X192005771Y-167757200D01*
X191862914Y-167685771D01*
X191577200Y-167685771D01*
X191434342Y-167757200D01*
X192077200Y-168614342D02*
X191934342Y-168685771D01*
X191577200Y-168685771D01*
X191434342Y-168614342D01*
X191362914Y-168471485D01*
X191362914Y-168328628D01*
X191434342Y-168185771D01*
X191577200Y-168114342D01*
X191934342Y-168114342D01*
X192077200Y-168042914D01*
X192577200Y-167685771D02*
X193148628Y-167685771D01*
X192791485Y-167185771D02*
X192791485Y-168471485D01*
X192862914Y-168614342D01*
X193005771Y-168685771D01*
X193148628Y-168685771D01*
X193648628Y-168685771D02*
X193648628Y-167685771D01*
X193648628Y-167185771D02*
X193577200Y-167257200D01*
X193648628Y-167328628D01*
X193720057Y-167257200D01*
X193648628Y-167185771D01*
X193648628Y-167328628D01*
X194220057Y-167685771D02*
X194577200Y-168685771D01*
X194934342Y-167685771D01*
X196077200Y-168614342D02*
X195934342Y-168685771D01*
X195648628Y-168685771D01*
X195505771Y-168614342D01*
X195434342Y-168471485D01*
X195434342Y-167900057D01*
X195505771Y-167757200D01*
X195648628Y-167685771D01*
X195934342Y-167685771D01*
X196077200Y-167757200D01*
X196148628Y-167900057D01*
X196148628Y-168042914D01*
X195434342Y-168185771D01*
X197434342Y-168614342D02*
X197291485Y-168685771D01*
X197005771Y-168685771D01*
X196862914Y-168614342D01*
X196791485Y-168542914D01*
X196720057Y-168400057D01*
X196720057Y-167971485D01*
X196791485Y-167828628D01*
X196862914Y-167757200D01*
X197005771Y-167685771D01*
X197291485Y-167685771D01*
X197434342Y-167757200D01*
X198291485Y-168685771D02*
X198148628Y-168614342D01*
X198077200Y-168542914D01*
X198005771Y-168400057D01*
X198005771Y-167971485D01*
X198077200Y-167828628D01*
X198148628Y-167757200D01*
X198291485Y-167685771D01*
X198505771Y-167685771D01*
X198648628Y-167757200D01*
X198720057Y-167828628D01*
X198791485Y-167971485D01*
X198791485Y-168400057D01*
X198720057Y-168542914D01*
X198648628Y-168614342D01*
X198505771Y-168685771D01*
X198291485Y-168685771D01*
X199434342Y-168685771D02*
X199434342Y-167685771D01*
X199434342Y-167828628D02*
X199505771Y-167757200D01*
X199648628Y-167685771D01*
X199862914Y-167685771D01*
X200005771Y-167757200D01*
X200077200Y-167900057D01*
X200077200Y-168685771D01*
X200077200Y-167900057D02*
X200148628Y-167757200D01*
X200291485Y-167685771D01*
X200505771Y-167685771D01*
X200648628Y-167757200D01*
X200720057Y-167900057D01*
X200720057Y-168685771D01*
X201434342Y-168685771D02*
X201434342Y-167685771D01*
X201434342Y-167828628D02*
X201505771Y-167757200D01*
X201648628Y-167685771D01*
X201862914Y-167685771D01*
X202005771Y-167757200D01*
X202077200Y-167900057D01*
X202077200Y-168685771D01*
X202077200Y-167900057D02*
X202148628Y-167757200D01*
X202291485Y-167685771D01*
X202505771Y-167685771D01*
X202648628Y-167757200D01*
X202720057Y-167900057D01*
X202720057Y-168685771D01*
X203648628Y-168685771D02*
X203505771Y-168614342D01*
X203434342Y-168542914D01*
X203362914Y-168400057D01*
X203362914Y-167971485D01*
X203434342Y-167828628D01*
X203505771Y-167757200D01*
X203648628Y-167685771D01*
X203862914Y-167685771D01*
X204005771Y-167757200D01*
X204077200Y-167828628D01*
X204148628Y-167971485D01*
X204148628Y-168400057D01*
X204077200Y-168542914D01*
X204005771Y-168614342D01*
X203862914Y-168685771D01*
X203648628Y-168685771D01*
X204791485Y-167685771D02*
X204791485Y-168685771D01*
X204791485Y-167828628D02*
X204862914Y-167757200D01*
X205005771Y-167685771D01*
X205220057Y-167685771D01*
X205362914Y-167757200D01*
X205434342Y-167900057D01*
X205434342Y-168685771D01*
X206077200Y-168614342D02*
X206220057Y-168685771D01*
X206505771Y-168685771D01*
X206648628Y-168614342D01*
X206720057Y-168471485D01*
X206720057Y-168400057D01*
X206648628Y-168257200D01*
X206505771Y-168185771D01*
X206291485Y-168185771D01*
X206148628Y-168114342D01*
X206077200Y-167971485D01*
X206077200Y-167900057D01*
X206148628Y-167757200D01*
X206291485Y-167685771D01*
X206505771Y-167685771D01*
X206648628Y-167757200D01*
X207362914Y-168542914D02*
X207434342Y-168614342D01*
X207362914Y-168685771D01*
X207291485Y-168614342D01*
X207362914Y-168542914D01*
X207362914Y-168685771D01*
X208291485Y-168685771D02*
X208148628Y-168614342D01*
X208077200Y-168542914D01*
X208005771Y-168400057D01*
X208005771Y-167971485D01*
X208077200Y-167828628D01*
X208148628Y-167757200D01*
X208291485Y-167685771D01*
X208505771Y-167685771D01*
X208648628Y-167757200D01*
X208720057Y-167828628D01*
X208791485Y-167971485D01*
X208791485Y-168400057D01*
X208720057Y-168542914D01*
X208648628Y-168614342D01*
X208505771Y-168685771D01*
X208291485Y-168685771D01*
X209434342Y-168685771D02*
X209434342Y-167685771D01*
X209434342Y-167971485D02*
X209505771Y-167828628D01*
X209577200Y-167757200D01*
X209720057Y-167685771D01*
X209862914Y-167685771D01*
X211005771Y-167685771D02*
X211005771Y-168900057D01*
X210934342Y-169042914D01*
X210862914Y-169114342D01*
X210720057Y-169185771D01*
X210505771Y-169185771D01*
X210362914Y-169114342D01*
X211005771Y-168614342D02*
X210862914Y-168685771D01*
X210577200Y-168685771D01*
X210434342Y-168614342D01*
X210362914Y-168542914D01*
X210291485Y-168400057D01*
X210291485Y-167971485D01*
X210362914Y-167828628D01*
X210434342Y-167757200D01*
X210577200Y-167685771D01*
X210862914Y-167685771D01*
X211005771Y-167757200D01*
X212791485Y-167114342D02*
X211505771Y-169042914D01*
X213505771Y-168685771D02*
X213362914Y-168614342D01*
X213291485Y-168471485D01*
X213291485Y-167185771D01*
X214077200Y-168685771D02*
X214077200Y-167685771D01*
X214077200Y-167185771D02*
X214005771Y-167257200D01*
X214077200Y-167328628D01*
X214148628Y-167257200D01*
X214077200Y-167185771D01*
X214077200Y-167328628D01*
X215434342Y-168614342D02*
X215291485Y-168685771D01*
X215005771Y-168685771D01*
X214862914Y-168614342D01*
X214791485Y-168542914D01*
X214720057Y-168400057D01*
X214720057Y-167971485D01*
X214791485Y-167828628D01*
X214862914Y-167757200D01*
X215005771Y-167685771D01*
X215291485Y-167685771D01*
X215434342Y-167757200D01*
X216648628Y-168614342D02*
X216505771Y-168685771D01*
X216220057Y-168685771D01*
X216077200Y-168614342D01*
X216005771Y-168471485D01*
X216005771Y-167900057D01*
X216077200Y-167757200D01*
X216220057Y-167685771D01*
X216505771Y-167685771D01*
X216648628Y-167757200D01*
X216720057Y-167900057D01*
X216720057Y-168042914D01*
X216005771Y-168185771D01*
X217362914Y-167685771D02*
X217362914Y-168685771D01*
X217362914Y-167828628D02*
X217434342Y-167757200D01*
X217577200Y-167685771D01*
X217791485Y-167685771D01*
X217934342Y-167757200D01*
X218005771Y-167900057D01*
X218005771Y-168685771D01*
X218648628Y-168614342D02*
X218791485Y-168685771D01*
X219077200Y-168685771D01*
X219220057Y-168614342D01*
X219291485Y-168471485D01*
X219291485Y-168400057D01*
X219220057Y-168257200D01*
X219077200Y-168185771D01*
X218862914Y-168185771D01*
X218720057Y-168114342D01*
X218648628Y-167971485D01*
X218648628Y-167900057D01*
X218720057Y-167757200D01*
X218862914Y-167685771D01*
X219077200Y-167685771D01*
X219220057Y-167757200D01*
X220505771Y-168614342D02*
X220362914Y-168685771D01*
X220077200Y-168685771D01*
X219934342Y-168614342D01*
X219862914Y-168471485D01*
X219862914Y-167900057D01*
X219934342Y-167757200D01*
X220077200Y-167685771D01*
X220362914Y-167685771D01*
X220505771Y-167757200D01*
X220577200Y-167900057D01*
X220577200Y-168042914D01*
X219862914Y-168185771D01*
X221148628Y-168614342D02*
X221291485Y-168685771D01*
X221577200Y-168685771D01*
X221720057Y-168614342D01*
X221791485Y-168471485D01*
X221791485Y-168400057D01*
X221720057Y-168257200D01*
X221577200Y-168185771D01*
X221362914Y-168185771D01*
X221220057Y-168114342D01*
X221148628Y-167971485D01*
X221148628Y-167900057D01*
X221220057Y-167757200D01*
X221362914Y-167685771D01*
X221577200Y-167685771D01*
X221720057Y-167757200D01*
X223505771Y-167114342D02*
X222220057Y-169042914D01*
X224005771Y-168685771D02*
X224005771Y-167185771D01*
X224005771Y-167757200D02*
X224148628Y-167685771D01*
X224434342Y-167685771D01*
X224577200Y-167757200D01*
X224648628Y-167828628D01*
X224720057Y-167971485D01*
X224720057Y-168400057D01*
X224648628Y-168542914D01*
X224577200Y-168614342D01*
X224434342Y-168685771D01*
X224148628Y-168685771D01*
X224005771Y-168614342D01*
X225220057Y-167685771D02*
X225577200Y-168685771D01*
X225934342Y-167685771D02*
X225577200Y-168685771D01*
X225434342Y-169042914D01*
X225362914Y-169114342D01*
X225220057Y-169185771D01*
X227577200Y-167114342D02*
X226291485Y-169042914D01*
X228720057Y-167685771D02*
X228720057Y-168685771D01*
X228362914Y-167114342D02*
X228005771Y-168185771D01*
X228934342Y-168185771D01*
X229505771Y-168542914D02*
X229577200Y-168614342D01*
X229505771Y-168685771D01*
X229434342Y-168614342D01*
X229505771Y-168542914D01*
X229505771Y-168685771D01*
X230505771Y-167185771D02*
X230648628Y-167185771D01*
X230791485Y-167257200D01*
X230862914Y-167328628D01*
X230934342Y-167471485D01*
X231005771Y-167757200D01*
X231005771Y-168114342D01*
X230934342Y-168400057D01*
X230862914Y-168542914D01*
X230791485Y-168614342D01*
X230648628Y-168685771D01*
X230505771Y-168685771D01*
X230362914Y-168614342D01*
X230291485Y-168542914D01*
X230220057Y-168400057D01*
X230148628Y-168114342D01*
X230148628Y-167757200D01*
X230220057Y-167471485D01*
X230291485Y-167328628D01*
X230362914Y-167257200D01*
X230505771Y-167185771D01*
X232720057Y-167114342D02*
X231434342Y-169042914D01*
D10*
D11*
X197002200Y-191507200D02*
X197002200Y-194507200D01*
D10*
D11*
X261002200Y-191507200D02*
X261002200Y-198007200D01*
D14*
X188188600Y-59512200D02*
X77851000Y-59436000D01*
X188214000Y-150215600D02*
X188188600Y-59486800D01*
X77825600Y-59512200D02*
X77774800Y-150063200D01*
X84531200Y-150088600D02*
X77724000Y-150088600D01*
X188214000Y-150266400D02*
X84531200Y-150088600D01*
D11*
X181868180Y-152894776D02*
X181868180Y-152275728D01*
X182249133Y-152609061D01*
X182249133Y-152466204D01*
X182296752Y-152370966D01*
X182344371Y-152323347D01*
X182439609Y-152275728D01*
X182677704Y-152275728D01*
X182772942Y-152323347D01*
X182820561Y-152370966D01*
X182868180Y-152466204D01*
X182868180Y-152751919D01*
X182820561Y-152847157D01*
X182772942Y-152894776D01*
X182772942Y-151847157D02*
X182820561Y-151799538D01*
X182868180Y-151847157D01*
X182820561Y-151894776D01*
X182772942Y-151847157D01*
X182868180Y-151847157D01*
X181868180Y-151180490D02*
X181868180Y-151085252D01*
X181915800Y-150990014D01*
X181963419Y-150942395D01*
X182058657Y-150894776D01*
X182249133Y-150847157D01*
X182487228Y-150847157D01*
X182677704Y-150894776D01*
X182772942Y-150942395D01*
X182820561Y-150990014D01*
X182868180Y-151085252D01*
X182868180Y-151180490D01*
X182820561Y-151275728D01*
X182772942Y-151323347D01*
X182677704Y-151370966D01*
X182487228Y-151418585D01*
X182249133Y-151418585D01*
X182058657Y-151370966D01*
X181963419Y-151323347D01*
X181915800Y-151275728D01*
X181868180Y-151180490D01*
X181963419Y-150466204D02*
X181915800Y-150418585D01*
X181868180Y-150323347D01*
X181868180Y-150085252D01*
X181915800Y-149990014D01*
X181963419Y-149942395D01*
X182058657Y-149894776D01*
X182153895Y-149894776D01*
X182296752Y-149942395D01*
X182868180Y-150513823D01*
X182868180Y-149894776D01*
X181963419Y-149513823D02*
X181915800Y-149466204D01*
X181868180Y-149370966D01*
X181868180Y-149132871D01*
X181915800Y-149037633D01*
X181963419Y-148990014D01*
X182058657Y-148942395D01*
X182153895Y-148942395D01*
X182296752Y-148990014D01*
X182868180Y-149561442D01*
X182868180Y-148942395D01*
X181868180Y-148085252D02*
X181868180Y-148275728D01*
X181915800Y-148370966D01*
X181963419Y-148418585D01*
X182106276Y-148513823D01*
X182296752Y-148561442D01*
X182677704Y-148561442D01*
X182772942Y-148513823D01*
X182820561Y-148466204D01*
X182868180Y-148370966D01*
X182868180Y-148180490D01*
X182820561Y-148085252D01*
X182772942Y-148037633D01*
X182677704Y-147990014D01*
X182439609Y-147990014D01*
X182344371Y-148037633D01*
X182296752Y-148085252D01*
X182249133Y-148180490D01*
X182249133Y-148370966D01*
X182296752Y-148466204D01*
X182344371Y-148513823D01*
X182439609Y-148561442D01*
X182868180Y-146799538D02*
X182201514Y-146799538D01*
X182296752Y-146799538D02*
X182249133Y-146751919D01*
X182201514Y-146656680D01*
X182201514Y-146513823D01*
X182249133Y-146418585D01*
X182344371Y-146370966D01*
X182868180Y-146370966D01*
X182344371Y-146370966D02*
X182249133Y-146323347D01*
X182201514Y-146228109D01*
X182201514Y-146085252D01*
X182249133Y-145990014D01*
X182344371Y-145942395D01*
X182868180Y-145942395D01*
X182868180Y-145466204D02*
X182201514Y-145466204D01*
X182296752Y-145466204D02*
X182249133Y-145418585D01*
X182201514Y-145323347D01*
X182201514Y-145180490D01*
X182249133Y-145085252D01*
X182344371Y-145037633D01*
X182868180Y-145037633D01*
X182344371Y-145037633D02*
X182249133Y-144990014D01*
X182201514Y-144894776D01*
X182201514Y-144751919D01*
X182249133Y-144656680D01*
X182344371Y-144609061D01*
X182868180Y-144609061D01*
X181533800Y-150215600D02*
X184152220Y-150215600D01*
X181533800Y-147193000D02*
X184152220Y-147193000D01*
X183565800Y-150215600D02*
X183565800Y-147193000D01*
X183565800Y-150215600D02*
X183565800Y-147193000D01*
X183565800Y-150215600D02*
X184152221Y-149089096D01*
X183565800Y-150215600D02*
X182979379Y-149089096D01*
X183565800Y-147193000D02*
X182979379Y-148319504D01*
X183565800Y-147193000D02*
X184152221Y-148319504D01*
X182474123Y-142091780D02*
X183093171Y-142091780D01*
X182759838Y-142472733D01*
X182902695Y-142472733D01*
X182997933Y-142520352D01*
X183045552Y-142567971D01*
X183093171Y-142663209D01*
X183093171Y-142901304D01*
X183045552Y-142996542D01*
X182997933Y-143044161D01*
X182902695Y-143091780D01*
X182616980Y-143091780D01*
X182521742Y-143044161D01*
X182474123Y-142996542D01*
X183521742Y-142996542D02*
X183569361Y-143044161D01*
X183521742Y-143091780D01*
X183474123Y-143044161D01*
X183521742Y-142996542D01*
X183521742Y-143091780D01*
X184188409Y-142091780D02*
X184283647Y-142091780D01*
X184378885Y-142139400D01*
X184426504Y-142187019D01*
X184474123Y-142282257D01*
X184521742Y-142472733D01*
X184521742Y-142710828D01*
X184474123Y-142901304D01*
X184426504Y-142996542D01*
X184378885Y-143044161D01*
X184283647Y-143091780D01*
X184188409Y-143091780D01*
X184093171Y-143044161D01*
X184045552Y-142996542D01*
X183997933Y-142901304D01*
X183950314Y-142710828D01*
X183950314Y-142472733D01*
X183997933Y-142282257D01*
X184045552Y-142187019D01*
X184093171Y-142139400D01*
X184188409Y-142091780D01*
X185378885Y-142425114D02*
X185378885Y-143091780D01*
X185140790Y-142044161D02*
X184902695Y-142758447D01*
X185521742Y-142758447D01*
X186045552Y-142520352D02*
X185950314Y-142472733D01*
X185902695Y-142425114D01*
X185855076Y-142329876D01*
X185855076Y-142282257D01*
X185902695Y-142187019D01*
X185950314Y-142139400D01*
X186045552Y-142091780D01*
X186236028Y-142091780D01*
X186331266Y-142139400D01*
X186378885Y-142187019D01*
X186426504Y-142282257D01*
X186426504Y-142329876D01*
X186378885Y-142425114D01*
X186331266Y-142472733D01*
X186236028Y-142520352D01*
X186045552Y-142520352D01*
X185950314Y-142567971D01*
X185902695Y-142615590D01*
X185855076Y-142710828D01*
X185855076Y-142901304D01*
X185902695Y-142996542D01*
X185950314Y-143044161D01*
X186045552Y-143091780D01*
X186236028Y-143091780D01*
X186331266Y-143044161D01*
X186378885Y-142996542D01*
X186426504Y-142901304D01*
X186426504Y-142710828D01*
X186378885Y-142615590D01*
X186331266Y-142567971D01*
X186236028Y-142520352D01*
X187045552Y-142091780D02*
X187140790Y-142091780D01*
X187236028Y-142139400D01*
X187283647Y-142187019D01*
X187331266Y-142282257D01*
X187378885Y-142472733D01*
X187378885Y-142710828D01*
X187331266Y-142901304D01*
X187283647Y-142996542D01*
X187236028Y-143044161D01*
X187140790Y-143091780D01*
X187045552Y-143091780D01*
X186950314Y-143044161D01*
X186902695Y-142996542D01*
X186855076Y-142901304D01*
X186807457Y-142710828D01*
X186807457Y-142472733D01*
X186855076Y-142282257D01*
X186902695Y-142187019D01*
X186950314Y-142139400D01*
X187045552Y-142091780D01*
X188569361Y-143091780D02*
X188569361Y-142425114D01*
X188569361Y-142520352D02*
X188616980Y-142472733D01*
X188712219Y-142425114D01*
X188855076Y-142425114D01*
X188950314Y-142472733D01*
X188997933Y-142567971D01*
X188997933Y-143091780D01*
X188997933Y-142567971D02*
X189045552Y-142472733D01*
X189140790Y-142425114D01*
X189283647Y-142425114D01*
X189378885Y-142472733D01*
X189426504Y-142567971D01*
X189426504Y-143091780D01*
X189902695Y-143091780D02*
X189902695Y-142425114D01*
X189902695Y-142520352D02*
X189950314Y-142472733D01*
X190045552Y-142425114D01*
X190188409Y-142425114D01*
X190283647Y-142472733D01*
X190331266Y-142567971D01*
X190331266Y-143091780D01*
X190331266Y-142567971D02*
X190378885Y-142472733D01*
X190474123Y-142425114D01*
X190616980Y-142425114D01*
X190712219Y-142472733D01*
X190759838Y-142567971D01*
X190759838Y-143091780D01*
X185140600Y-145669000D02*
X185140600Y-143202980D01*
X188188600Y-145669000D02*
X188188600Y-143202980D01*
X185140600Y-143789400D02*
X188188600Y-143789400D01*
X185140600Y-143789400D02*
X188188600Y-143789400D01*
X185140600Y-143789400D02*
X186267104Y-144375821D01*
X185140600Y-143789400D02*
X186267104Y-143202979D01*
X188188600Y-143789400D02*
X187062096Y-143202979D01*
X188188600Y-143789400D02*
X187062096Y-144375821D01*
X182147580Y-65213976D02*
X182147580Y-64594928D01*
X182528533Y-64928261D01*
X182528533Y-64785404D01*
X182576152Y-64690166D01*
X182623771Y-64642547D01*
X182719009Y-64594928D01*
X182957104Y-64594928D01*
X183052342Y-64642547D01*
X183099961Y-64690166D01*
X183147580Y-64785404D01*
X183147580Y-65071119D01*
X183099961Y-65166357D01*
X183052342Y-65213976D01*
X183052342Y-64166357D02*
X183099961Y-64118738D01*
X183147580Y-64166357D01*
X183099961Y-64213976D01*
X183052342Y-64166357D01*
X183147580Y-64166357D01*
X182147580Y-63499690D02*
X182147580Y-63404452D01*
X182195200Y-63309214D01*
X182242819Y-63261595D01*
X182338057Y-63213976D01*
X182528533Y-63166357D01*
X182766628Y-63166357D01*
X182957104Y-63213976D01*
X183052342Y-63261595D01*
X183099961Y-63309214D01*
X183147580Y-63404452D01*
X183147580Y-63499690D01*
X183099961Y-63594928D01*
X183052342Y-63642547D01*
X182957104Y-63690166D01*
X182766628Y-63737785D01*
X182528533Y-63737785D01*
X182338057Y-63690166D01*
X182242819Y-63642547D01*
X182195200Y-63594928D01*
X182147580Y-63499690D01*
X182242819Y-62785404D02*
X182195200Y-62737785D01*
X182147580Y-62642547D01*
X182147580Y-62404452D01*
X182195200Y-62309214D01*
X182242819Y-62261595D01*
X182338057Y-62213976D01*
X182433295Y-62213976D01*
X182576152Y-62261595D01*
X183147580Y-62833023D01*
X183147580Y-62213976D01*
X182242819Y-61833023D02*
X182195200Y-61785404D01*
X182147580Y-61690166D01*
X182147580Y-61452071D01*
X182195200Y-61356833D01*
X182242819Y-61309214D01*
X182338057Y-61261595D01*
X182433295Y-61261595D01*
X182576152Y-61309214D01*
X183147580Y-61880642D01*
X183147580Y-61261595D01*
X182147580Y-60404452D02*
X182147580Y-60594928D01*
X182195200Y-60690166D01*
X182242819Y-60737785D01*
X182385676Y-60833023D01*
X182576152Y-60880642D01*
X182957104Y-60880642D01*
X183052342Y-60833023D01*
X183099961Y-60785404D01*
X183147580Y-60690166D01*
X183147580Y-60499690D01*
X183099961Y-60404452D01*
X183052342Y-60356833D01*
X182957104Y-60309214D01*
X182719009Y-60309214D01*
X182623771Y-60356833D01*
X182576152Y-60404452D01*
X182528533Y-60499690D01*
X182528533Y-60690166D01*
X182576152Y-60785404D01*
X182623771Y-60833023D01*
X182719009Y-60880642D01*
X183147580Y-59118738D02*
X182480914Y-59118738D01*
X182576152Y-59118738D02*
X182528533Y-59071119D01*
X182480914Y-58975880D01*
X182480914Y-58833023D01*
X182528533Y-58737785D01*
X182623771Y-58690166D01*
X183147580Y-58690166D01*
X182623771Y-58690166D02*
X182528533Y-58642547D01*
X182480914Y-58547309D01*
X182480914Y-58404452D01*
X182528533Y-58309214D01*
X182623771Y-58261595D01*
X183147580Y-58261595D01*
X183147580Y-57785404D02*
X182480914Y-57785404D01*
X182576152Y-57785404D02*
X182528533Y-57737785D01*
X182480914Y-57642547D01*
X182480914Y-57499690D01*
X182528533Y-57404452D01*
X182623771Y-57356833D01*
X183147580Y-57356833D01*
X182623771Y-57356833D02*
X182528533Y-57309214D01*
X182480914Y-57213976D01*
X182480914Y-57071119D01*
X182528533Y-56975880D01*
X182623771Y-56928261D01*
X183147580Y-56928261D01*
X181813200Y-62534800D02*
X184431620Y-62534800D01*
X181813200Y-59512200D02*
X184431620Y-59512200D01*
X183845200Y-62534800D02*
X183845200Y-59512200D01*
X183845200Y-62534800D02*
X183845200Y-59512200D01*
X183845200Y-62534800D02*
X184431621Y-61408296D01*
X183845200Y-62534800D02*
X183258779Y-61408296D01*
X183845200Y-59512200D02*
X183258779Y-60638704D01*
X183845200Y-59512200D02*
X184431621Y-60638704D01*
X182448723Y-62335780D02*
X183067771Y-62335780D01*
X182734438Y-62716733D01*
X182877295Y-62716733D01*
X182972533Y-62764352D01*
X183020152Y-62811971D01*
X183067771Y-62907209D01*
X183067771Y-63145304D01*
X183020152Y-63240542D01*
X182972533Y-63288161D01*
X182877295Y-63335780D01*
X182591580Y-63335780D01*
X182496342Y-63288161D01*
X182448723Y-63240542D01*
X183496342Y-63240542D02*
X183543961Y-63288161D01*
X183496342Y-63335780D01*
X183448723Y-63288161D01*
X183496342Y-63240542D01*
X183496342Y-63335780D01*
X184163009Y-62335780D02*
X184258247Y-62335780D01*
X184353485Y-62383400D01*
X184401104Y-62431019D01*
X184448723Y-62526257D01*
X184496342Y-62716733D01*
X184496342Y-62954828D01*
X184448723Y-63145304D01*
X184401104Y-63240542D01*
X184353485Y-63288161D01*
X184258247Y-63335780D01*
X184163009Y-63335780D01*
X184067771Y-63288161D01*
X184020152Y-63240542D01*
X183972533Y-63145304D01*
X183924914Y-62954828D01*
X183924914Y-62716733D01*
X183972533Y-62526257D01*
X184020152Y-62431019D01*
X184067771Y-62383400D01*
X184163009Y-62335780D01*
X185353485Y-62669114D02*
X185353485Y-63335780D01*
X185115390Y-62288161D02*
X184877295Y-63002447D01*
X185496342Y-63002447D01*
X186020152Y-62764352D02*
X185924914Y-62716733D01*
X185877295Y-62669114D01*
X185829676Y-62573876D01*
X185829676Y-62526257D01*
X185877295Y-62431019D01*
X185924914Y-62383400D01*
X186020152Y-62335780D01*
X186210628Y-62335780D01*
X186305866Y-62383400D01*
X186353485Y-62431019D01*
X186401104Y-62526257D01*
X186401104Y-62573876D01*
X186353485Y-62669114D01*
X186305866Y-62716733D01*
X186210628Y-62764352D01*
X186020152Y-62764352D01*
X185924914Y-62811971D01*
X185877295Y-62859590D01*
X185829676Y-62954828D01*
X185829676Y-63145304D01*
X185877295Y-63240542D01*
X185924914Y-63288161D01*
X186020152Y-63335780D01*
X186210628Y-63335780D01*
X186305866Y-63288161D01*
X186353485Y-63240542D01*
X186401104Y-63145304D01*
X186401104Y-62954828D01*
X186353485Y-62859590D01*
X186305866Y-62811971D01*
X186210628Y-62764352D01*
X187020152Y-62335780D02*
X187115390Y-62335780D01*
X187210628Y-62383400D01*
X187258247Y-62431019D01*
X187305866Y-62526257D01*
X187353485Y-62716733D01*
X187353485Y-62954828D01*
X187305866Y-63145304D01*
X187258247Y-63240542D01*
X187210628Y-63288161D01*
X187115390Y-63335780D01*
X187020152Y-63335780D01*
X186924914Y-63288161D01*
X186877295Y-63240542D01*
X186829676Y-63145304D01*
X186782057Y-62954828D01*
X186782057Y-62716733D01*
X186829676Y-62526257D01*
X186877295Y-62431019D01*
X186924914Y-62383400D01*
X187020152Y-62335780D01*
X188543961Y-63335780D02*
X188543961Y-62669114D01*
X188543961Y-62764352D02*
X188591580Y-62716733D01*
X188686819Y-62669114D01*
X188829676Y-62669114D01*
X188924914Y-62716733D01*
X188972533Y-62811971D01*
X188972533Y-63335780D01*
X188972533Y-62811971D02*
X189020152Y-62716733D01*
X189115390Y-62669114D01*
X189258247Y-62669114D01*
X189353485Y-62716733D01*
X189401104Y-62811971D01*
X189401104Y-63335780D01*
X189877295Y-63335780D02*
X189877295Y-62669114D01*
X189877295Y-62764352D02*
X189924914Y-62716733D01*
X190020152Y-62669114D01*
X190163009Y-62669114D01*
X190258247Y-62716733D01*
X190305866Y-62811971D01*
X190305866Y-63335780D01*
X190305866Y-62811971D02*
X190353485Y-62716733D01*
X190448723Y-62669114D01*
X190591580Y-62669114D01*
X190686819Y-62716733D01*
X190734438Y-62811971D01*
X190734438Y-63335780D01*
X185115200Y-65913000D02*
X185115200Y-63446980D01*
X188163200Y-65913000D02*
X188163200Y-63446980D01*
X185115200Y-64033400D02*
X188163200Y-64033400D01*
X185115200Y-64033400D02*
X188163200Y-64033400D01*
X185115200Y-64033400D02*
X186241704Y-64619821D01*
X185115200Y-64033400D02*
X186241704Y-63446979D01*
X188163200Y-64033400D02*
X187036696Y-63446979D01*
X188163200Y-64033400D02*
X187036696Y-64619821D01*
X82528780Y-65137776D02*
X82528780Y-64518728D01*
X82909733Y-64852061D01*
X82909733Y-64709204D01*
X82957352Y-64613966D01*
X83004971Y-64566347D01*
X83100209Y-64518728D01*
X83338304Y-64518728D01*
X83433542Y-64566347D01*
X83481161Y-64613966D01*
X83528780Y-64709204D01*
X83528780Y-64994919D01*
X83481161Y-65090157D01*
X83433542Y-65137776D01*
X83433542Y-64090157D02*
X83481161Y-64042538D01*
X83528780Y-64090157D01*
X83481161Y-64137776D01*
X83433542Y-64090157D01*
X83528780Y-64090157D01*
X82528780Y-63423490D02*
X82528780Y-63328252D01*
X82576400Y-63233014D01*
X82624019Y-63185395D01*
X82719257Y-63137776D01*
X82909733Y-63090157D01*
X83147828Y-63090157D01*
X83338304Y-63137776D01*
X83433542Y-63185395D01*
X83481161Y-63233014D01*
X83528780Y-63328252D01*
X83528780Y-63423490D01*
X83481161Y-63518728D01*
X83433542Y-63566347D01*
X83338304Y-63613966D01*
X83147828Y-63661585D01*
X82909733Y-63661585D01*
X82719257Y-63613966D01*
X82624019Y-63566347D01*
X82576400Y-63518728D01*
X82528780Y-63423490D01*
X82624019Y-62709204D02*
X82576400Y-62661585D01*
X82528780Y-62566347D01*
X82528780Y-62328252D01*
X82576400Y-62233014D01*
X82624019Y-62185395D01*
X82719257Y-62137776D01*
X82814495Y-62137776D01*
X82957352Y-62185395D01*
X83528780Y-62756823D01*
X83528780Y-62137776D01*
X82624019Y-61756823D02*
X82576400Y-61709204D01*
X82528780Y-61613966D01*
X82528780Y-61375871D01*
X82576400Y-61280633D01*
X82624019Y-61233014D01*
X82719257Y-61185395D01*
X82814495Y-61185395D01*
X82957352Y-61233014D01*
X83528780Y-61804442D01*
X83528780Y-61185395D01*
X82528780Y-60328252D02*
X82528780Y-60518728D01*
X82576400Y-60613966D01*
X82624019Y-60661585D01*
X82766876Y-60756823D01*
X82957352Y-60804442D01*
X83338304Y-60804442D01*
X83433542Y-60756823D01*
X83481161Y-60709204D01*
X83528780Y-60613966D01*
X83528780Y-60423490D01*
X83481161Y-60328252D01*
X83433542Y-60280633D01*
X83338304Y-60233014D01*
X83100209Y-60233014D01*
X83004971Y-60280633D01*
X82957352Y-60328252D01*
X82909733Y-60423490D01*
X82909733Y-60613966D01*
X82957352Y-60709204D01*
X83004971Y-60756823D01*
X83100209Y-60804442D01*
X83528780Y-59042538D02*
X82862114Y-59042538D01*
X82957352Y-59042538D02*
X82909733Y-58994919D01*
X82862114Y-58899680D01*
X82862114Y-58756823D01*
X82909733Y-58661585D01*
X83004971Y-58613966D01*
X83528780Y-58613966D01*
X83004971Y-58613966D02*
X82909733Y-58566347D01*
X82862114Y-58471109D01*
X82862114Y-58328252D01*
X82909733Y-58233014D01*
X83004971Y-58185395D01*
X83528780Y-58185395D01*
X83528780Y-57709204D02*
X82862114Y-57709204D01*
X82957352Y-57709204D02*
X82909733Y-57661585D01*
X82862114Y-57566347D01*
X82862114Y-57423490D01*
X82909733Y-57328252D01*
X83004971Y-57280633D01*
X83528780Y-57280633D01*
X83004971Y-57280633D02*
X82909733Y-57233014D01*
X82862114Y-57137776D01*
X82862114Y-56994919D01*
X82909733Y-56899680D01*
X83004971Y-56852061D01*
X83528780Y-56852061D01*
X82194400Y-62458600D02*
X84812820Y-62458600D01*
X82194400Y-59436000D02*
X84812820Y-59436000D01*
X84226400Y-62458600D02*
X84226400Y-59436000D01*
X84226400Y-62458600D02*
X84226400Y-59436000D01*
X84226400Y-62458600D02*
X84812821Y-61332096D01*
X84226400Y-62458600D02*
X83639979Y-61332096D01*
X84226400Y-59436000D02*
X83639979Y-60562504D01*
X84226400Y-59436000D02*
X84812821Y-60562504D01*
X75159123Y-62208780D02*
X75778171Y-62208780D01*
X75444838Y-62589733D01*
X75587695Y-62589733D01*
X75682933Y-62637352D01*
X75730552Y-62684971D01*
X75778171Y-62780209D01*
X75778171Y-63018304D01*
X75730552Y-63113542D01*
X75682933Y-63161161D01*
X75587695Y-63208780D01*
X75301980Y-63208780D01*
X75206742Y-63161161D01*
X75159123Y-63113542D01*
X76206742Y-63113542D02*
X76254361Y-63161161D01*
X76206742Y-63208780D01*
X76159123Y-63161161D01*
X76206742Y-63113542D01*
X76206742Y-63208780D01*
X76873409Y-62208780D02*
X76968647Y-62208780D01*
X77063885Y-62256400D01*
X77111504Y-62304019D01*
X77159123Y-62399257D01*
X77206742Y-62589733D01*
X77206742Y-62827828D01*
X77159123Y-63018304D01*
X77111504Y-63113542D01*
X77063885Y-63161161D01*
X76968647Y-63208780D01*
X76873409Y-63208780D01*
X76778171Y-63161161D01*
X76730552Y-63113542D01*
X76682933Y-63018304D01*
X76635314Y-62827828D01*
X76635314Y-62589733D01*
X76682933Y-62399257D01*
X76730552Y-62304019D01*
X76778171Y-62256400D01*
X76873409Y-62208780D01*
X78063885Y-62542114D02*
X78063885Y-63208780D01*
X77825790Y-62161161D02*
X77587695Y-62875447D01*
X78206742Y-62875447D01*
X78730552Y-62637352D02*
X78635314Y-62589733D01*
X78587695Y-62542114D01*
X78540076Y-62446876D01*
X78540076Y-62399257D01*
X78587695Y-62304019D01*
X78635314Y-62256400D01*
X78730552Y-62208780D01*
X78921028Y-62208780D01*
X79016266Y-62256400D01*
X79063885Y-62304019D01*
X79111504Y-62399257D01*
X79111504Y-62446876D01*
X79063885Y-62542114D01*
X79016266Y-62589733D01*
X78921028Y-62637352D01*
X78730552Y-62637352D01*
X78635314Y-62684971D01*
X78587695Y-62732590D01*
X78540076Y-62827828D01*
X78540076Y-63018304D01*
X78587695Y-63113542D01*
X78635314Y-63161161D01*
X78730552Y-63208780D01*
X78921028Y-63208780D01*
X79016266Y-63161161D01*
X79063885Y-63113542D01*
X79111504Y-63018304D01*
X79111504Y-62827828D01*
X79063885Y-62732590D01*
X79016266Y-62684971D01*
X78921028Y-62637352D01*
X79730552Y-62208780D02*
X79825790Y-62208780D01*
X79921028Y-62256400D01*
X79968647Y-62304019D01*
X80016266Y-62399257D01*
X80063885Y-62589733D01*
X80063885Y-62827828D01*
X80016266Y-63018304D01*
X79968647Y-63113542D01*
X79921028Y-63161161D01*
X79825790Y-63208780D01*
X79730552Y-63208780D01*
X79635314Y-63161161D01*
X79587695Y-63113542D01*
X79540076Y-63018304D01*
X79492457Y-62827828D01*
X79492457Y-62589733D01*
X79540076Y-62399257D01*
X79587695Y-62304019D01*
X79635314Y-62256400D01*
X79730552Y-62208780D01*
X81254361Y-63208780D02*
X81254361Y-62542114D01*
X81254361Y-62637352D02*
X81301980Y-62589733D01*
X81397219Y-62542114D01*
X81540076Y-62542114D01*
X81635314Y-62589733D01*
X81682933Y-62684971D01*
X81682933Y-63208780D01*
X81682933Y-62684971D02*
X81730552Y-62589733D01*
X81825790Y-62542114D01*
X81968647Y-62542114D01*
X82063885Y-62589733D01*
X82111504Y-62684971D01*
X82111504Y-63208780D01*
X82587695Y-63208780D02*
X82587695Y-62542114D01*
X82587695Y-62637352D02*
X82635314Y-62589733D01*
X82730552Y-62542114D01*
X82873409Y-62542114D01*
X82968647Y-62589733D01*
X83016266Y-62684971D01*
X83016266Y-63208780D01*
X83016266Y-62684971D02*
X83063885Y-62589733D01*
X83159123Y-62542114D01*
X83301980Y-62542114D01*
X83397219Y-62589733D01*
X83444838Y-62684971D01*
X83444838Y-63208780D01*
X77825600Y-65786000D02*
X77825600Y-63319980D01*
X80873600Y-65786000D02*
X80873600Y-63319980D01*
X77825600Y-63906400D02*
X80873600Y-63906400D01*
X77825600Y-63906400D02*
X80873600Y-63906400D01*
X77825600Y-63906400D02*
X78952104Y-64492821D01*
X77825600Y-63906400D02*
X78952104Y-63319979D01*
X80873600Y-63906400D02*
X79747096Y-63319979D01*
X80873600Y-63906400D02*
X79747096Y-64492821D01*
X82122380Y-152793176D02*
X82122380Y-152174128D01*
X82503333Y-152507461D01*
X82503333Y-152364604D01*
X82550952Y-152269366D01*
X82598571Y-152221747D01*
X82693809Y-152174128D01*
X82931904Y-152174128D01*
X83027142Y-152221747D01*
X83074761Y-152269366D01*
X83122380Y-152364604D01*
X83122380Y-152650319D01*
X83074761Y-152745557D01*
X83027142Y-152793176D01*
X83027142Y-151745557D02*
X83074761Y-151697938D01*
X83122380Y-151745557D01*
X83074761Y-151793176D01*
X83027142Y-151745557D01*
X83122380Y-151745557D01*
X82122380Y-151078890D02*
X82122380Y-150983652D01*
X82170000Y-150888414D01*
X82217619Y-150840795D01*
X82312857Y-150793176D01*
X82503333Y-150745557D01*
X82741428Y-150745557D01*
X82931904Y-150793176D01*
X83027142Y-150840795D01*
X83074761Y-150888414D01*
X83122380Y-150983652D01*
X83122380Y-151078890D01*
X83074761Y-151174128D01*
X83027142Y-151221747D01*
X82931904Y-151269366D01*
X82741428Y-151316985D01*
X82503333Y-151316985D01*
X82312857Y-151269366D01*
X82217619Y-151221747D01*
X82170000Y-151174128D01*
X82122380Y-151078890D01*
X82217619Y-150364604D02*
X82170000Y-150316985D01*
X82122380Y-150221747D01*
X82122380Y-149983652D01*
X82170000Y-149888414D01*
X82217619Y-149840795D01*
X82312857Y-149793176D01*
X82408095Y-149793176D01*
X82550952Y-149840795D01*
X83122380Y-150412223D01*
X83122380Y-149793176D01*
X82217619Y-149412223D02*
X82170000Y-149364604D01*
X82122380Y-149269366D01*
X82122380Y-149031271D01*
X82170000Y-148936033D01*
X82217619Y-148888414D01*
X82312857Y-148840795D01*
X82408095Y-148840795D01*
X82550952Y-148888414D01*
X83122380Y-149459842D01*
X83122380Y-148840795D01*
X82122380Y-147983652D02*
X82122380Y-148174128D01*
X82170000Y-148269366D01*
X82217619Y-148316985D01*
X82360476Y-148412223D01*
X82550952Y-148459842D01*
X82931904Y-148459842D01*
X83027142Y-148412223D01*
X83074761Y-148364604D01*
X83122380Y-148269366D01*
X83122380Y-148078890D01*
X83074761Y-147983652D01*
X83027142Y-147936033D01*
X82931904Y-147888414D01*
X82693809Y-147888414D01*
X82598571Y-147936033D01*
X82550952Y-147983652D01*
X82503333Y-148078890D01*
X82503333Y-148269366D01*
X82550952Y-148364604D01*
X82598571Y-148412223D01*
X82693809Y-148459842D01*
X83122380Y-146697938D02*
X82455714Y-146697938D01*
X82550952Y-146697938D02*
X82503333Y-146650319D01*
X82455714Y-146555080D01*
X82455714Y-146412223D01*
X82503333Y-146316985D01*
X82598571Y-146269366D01*
X83122380Y-146269366D01*
X82598571Y-146269366D02*
X82503333Y-146221747D01*
X82455714Y-146126509D01*
X82455714Y-145983652D01*
X82503333Y-145888414D01*
X82598571Y-145840795D01*
X83122380Y-145840795D01*
X83122380Y-145364604D02*
X82455714Y-145364604D01*
X82550952Y-145364604D02*
X82503333Y-145316985D01*
X82455714Y-145221747D01*
X82455714Y-145078890D01*
X82503333Y-144983652D01*
X82598571Y-144936033D01*
X83122380Y-144936033D01*
X82598571Y-144936033D02*
X82503333Y-144888414D01*
X82455714Y-144793176D01*
X82455714Y-144650319D01*
X82503333Y-144555080D01*
X82598571Y-144507461D01*
X83122380Y-144507461D01*
X81788000Y-150114000D02*
X84406420Y-150114000D01*
X81788000Y-147091400D02*
X84406420Y-147091400D01*
X83820000Y-150114000D02*
X83820000Y-147091400D01*
X83820000Y-150114000D02*
X83820000Y-147091400D01*
X83820000Y-150114000D02*
X84406421Y-148987496D01*
X83820000Y-150114000D02*
X83233579Y-148987496D01*
X83820000Y-147091400D02*
X83233579Y-148217904D01*
X83820000Y-147091400D02*
X84406421Y-148217904D01*
X75082923Y-143183980D02*
X75701971Y-143183980D01*
X75368638Y-143564933D01*
X75511495Y-143564933D01*
X75606733Y-143612552D01*
X75654352Y-143660171D01*
X75701971Y-143755409D01*
X75701971Y-143993504D01*
X75654352Y-144088742D01*
X75606733Y-144136361D01*
X75511495Y-144183980D01*
X75225780Y-144183980D01*
X75130542Y-144136361D01*
X75082923Y-144088742D01*
X76130542Y-144088742D02*
X76178161Y-144136361D01*
X76130542Y-144183980D01*
X76082923Y-144136361D01*
X76130542Y-144088742D01*
X76130542Y-144183980D01*
X76797209Y-143183980D02*
X76892447Y-143183980D01*
X76987685Y-143231600D01*
X77035304Y-143279219D01*
X77082923Y-143374457D01*
X77130542Y-143564933D01*
X77130542Y-143803028D01*
X77082923Y-143993504D01*
X77035304Y-144088742D01*
X76987685Y-144136361D01*
X76892447Y-144183980D01*
X76797209Y-144183980D01*
X76701971Y-144136361D01*
X76654352Y-144088742D01*
X76606733Y-143993504D01*
X76559114Y-143803028D01*
X76559114Y-143564933D01*
X76606733Y-143374457D01*
X76654352Y-143279219D01*
X76701971Y-143231600D01*
X76797209Y-143183980D01*
X77987685Y-143517314D02*
X77987685Y-144183980D01*
X77749590Y-143136361D02*
X77511495Y-143850647D01*
X78130542Y-143850647D01*
X78654352Y-143612552D02*
X78559114Y-143564933D01*
X78511495Y-143517314D01*
X78463876Y-143422076D01*
X78463876Y-143374457D01*
X78511495Y-143279219D01*
X78559114Y-143231600D01*
X78654352Y-143183980D01*
X78844828Y-143183980D01*
X78940066Y-143231600D01*
X78987685Y-143279219D01*
X79035304Y-143374457D01*
X79035304Y-143422076D01*
X78987685Y-143517314D01*
X78940066Y-143564933D01*
X78844828Y-143612552D01*
X78654352Y-143612552D01*
X78559114Y-143660171D01*
X78511495Y-143707790D01*
X78463876Y-143803028D01*
X78463876Y-143993504D01*
X78511495Y-144088742D01*
X78559114Y-144136361D01*
X78654352Y-144183980D01*
X78844828Y-144183980D01*
X78940066Y-144136361D01*
X78987685Y-144088742D01*
X79035304Y-143993504D01*
X79035304Y-143803028D01*
X78987685Y-143707790D01*
X78940066Y-143660171D01*
X78844828Y-143612552D01*
X79654352Y-143183980D02*
X79749590Y-143183980D01*
X79844828Y-143231600D01*
X79892447Y-143279219D01*
X79940066Y-143374457D01*
X79987685Y-143564933D01*
X79987685Y-143803028D01*
X79940066Y-143993504D01*
X79892447Y-144088742D01*
X79844828Y-144136361D01*
X79749590Y-144183980D01*
X79654352Y-144183980D01*
X79559114Y-144136361D01*
X79511495Y-144088742D01*
X79463876Y-143993504D01*
X79416257Y-143803028D01*
X79416257Y-143564933D01*
X79463876Y-143374457D01*
X79511495Y-143279219D01*
X79559114Y-143231600D01*
X79654352Y-143183980D01*
X81178161Y-144183980D02*
X81178161Y-143517314D01*
X81178161Y-143612552D02*
X81225780Y-143564933D01*
X81321019Y-143517314D01*
X81463876Y-143517314D01*
X81559114Y-143564933D01*
X81606733Y-143660171D01*
X81606733Y-144183980D01*
X81606733Y-143660171D02*
X81654352Y-143564933D01*
X81749590Y-143517314D01*
X81892447Y-143517314D01*
X81987685Y-143564933D01*
X82035304Y-143660171D01*
X82035304Y-144183980D01*
X82511495Y-144183980D02*
X82511495Y-143517314D01*
X82511495Y-143612552D02*
X82559114Y-143564933D01*
X82654352Y-143517314D01*
X82797209Y-143517314D01*
X82892447Y-143564933D01*
X82940066Y-143660171D01*
X82940066Y-144183980D01*
X82940066Y-143660171D02*
X82987685Y-143564933D01*
X83082923Y-143517314D01*
X83225780Y-143517314D01*
X83321019Y-143564933D01*
X83368638Y-143660171D01*
X83368638Y-144183980D01*
X77749400Y-146761200D02*
X77749400Y-144295180D01*
X80797400Y-146761200D02*
X80797400Y-144295180D01*
X77749400Y-144881600D02*
X80797400Y-144881600D01*
X77749400Y-144881600D02*
X80797400Y-144881600D01*
X77749400Y-144881600D02*
X78875904Y-145468021D01*
X77749400Y-144881600D02*
X78875904Y-144295179D01*
X80797400Y-144881600D02*
X79670896Y-144295179D01*
X80797400Y-144881600D02*
X79670896Y-145468021D01*
M02*
