M48
; DRILL file {KiCad 6.0.2+dfsg-1} date Fri 07 Jun 2024 15:20:27 -03
; FORMAT={-:-/ absolute / inch / decimal}
; #@! TF.CreationDate,2024-06-07T15:20:27-03:00
; #@! TF.GenerationSoftware,Kicad,Pcbnew,6.0.2+dfsg-1
; #@! TF.FileFunction,NonPlated,1,2,NPTH
FMAT,2
INCH
; #@! TA.AperFunction,NonPlated,NPTH,ComponentDrill
T1C0.0394
; #@! TA.AperFunction,NonPlated,NPTH,ComponentDrill
T2C0.1575
%
G90
G05
T2
X3.275Y-2.55
X3.275Y-5.7
X7.2Y-2.55
X7.2Y-5.7
T1
G00X3.2426Y-3.1474
M15
G01X3.4374Y-2.9526
M16
G05
G00X3.9Y-4.4878
M15
G01X3.9Y-4.2122
M16
G05
G00X4.3726Y-2.9326
M15
G01X4.5674Y-3.1274
M16
G05
G00X4.7526Y-4.9974
M15
G01X4.9474Y-4.8026
M16
G05
G00X4.8622Y-4.28
M15
G01X5.1378Y-4.28
M16
G05
G00X5.59Y-4.1222
M15
G01X5.59Y-4.3978
M16
G05
G00X5.59Y-4.7283
M15
G01X5.59Y-4.5117
M16
G05
G00X5.6513Y-4.7913
M15
G01X5.5887Y-4.7287
M16
G05
G00X5.8137Y-4.795
M15
G01X5.6563Y-4.795
M16
G05
G00X5.8187Y-4.7913
M15
G01X5.8813Y-4.7287
M16
G05
G00X5.88Y-4.7283
M15
G01X5.88Y-4.5117
M16
G05
G00X6.01Y-4.1222
M15
G01X6.01Y-4.3978
M16
G05
G00X6.7222Y-3.64
M15
G01X6.9978Y-3.64
M16
G05
G00X7.0122Y-3.64
M15
G01X7.2878Y-3.64
M16
G05
T0
M30
