%TF.GenerationSoftware,KiCad,Pcbnew,8.0.4-8.0.4-0~ubuntu22.04.1*%
%TF.CreationDate,2024-08-04T23:42:01-03:00*%
%TF.ProjectId,tesla_smps,7465736c-615f-4736-9d70-732e6b696361,0.2.0*%
%TF.SameCoordinates,Original*%
%TF.FileFunction,Soldermask,Bot*%
%TF.FilePolarity,Negative*%
%FSLAX46Y46*%
G04 Gerber Fmt 4.6, Leading zero omitted, Abs format (unit mm)*
G04 Created by KiCad (PCBNEW 8.0.4-8.0.4-0~ubuntu22.04.1) date 2024-08-04 23:42:01*
%MOMM*%
%LPD*%
G01*
G04 APERTURE LIST*
G04 Aperture macros list*
%AMRoundRect*
0 Rectangle with rounded corners*
0 $1 Rounding radius*
0 $2 $3 $4 $5 $6 $7 $8 $9 X,Y pos of 4 corners*
0 Add a 4 corners polygon primitive as box body*
4,1,4,$2,$3,$4,$5,$6,$7,$8,$9,$2,$3,0*
0 Add four circle primitives for the rounded corners*
1,1,$1+$1,$2,$3*
1,1,$1+$1,$4,$5*
1,1,$1+$1,$6,$7*
1,1,$1+$1,$8,$9*
0 Add four rect primitives between the rounded corners*
20,1,$1+$1,$2,$3,$4,$5,0*
20,1,$1+$1,$4,$5,$6,$7,0*
20,1,$1+$1,$6,$7,$8,$9,0*
20,1,$1+$1,$8,$9,$2,$3,0*%
%AMHorizOval*
0 Thick line with rounded ends*
0 $1 width*
0 $2 $3 position (X,Y) of the first rounded end (center of the circle)*
0 $4 $5 position (X,Y) of the second rounded end (center of the circle)*
0 Add line between two ends*
20,1,$1,$2,$3,$4,$5,0*
0 Add two circle primitives to create the rounded ends*
1,1,$1,$2,$3*
1,1,$1,$4,$5*%
G04 Aperture macros list end*
%ADD10C,0.100000*%
%ADD11C,0.150000*%
%ADD12C,0.300000*%
%ADD13C,0.400000*%
%ADD14RoundRect,0.200000X0.800000X0.800000X-0.800000X0.800000X-0.800000X-0.800000X0.800000X-0.800000X0*%
%ADD15C,2.000000*%
%ADD16RoundRect,0.200000X-0.800000X0.800000X-0.800000X-0.800000X0.800000X-0.800000X0.800000X0.800000X0*%
%ADD17RoundRect,0.200000X0.800000X-0.800000X0.800000X0.800000X-0.800000X0.800000X-0.800000X-0.800000X0*%
%ADD18RoundRect,0.200000X-0.600000X0.600000X-0.600000X-0.600000X0.600000X-0.600000X0.600000X0.600000X0*%
%ADD19C,1.600000*%
%ADD20C,2.400000*%
%ADD21RoundRect,0.200000X-1.600000X-1.600000X1.600000X-1.600000X1.600000X1.600000X-1.600000X1.600000X0*%
%ADD22O,3.600000X3.600000*%
%ADD23RoundRect,0.200000X0.900000X-0.900000X0.900000X0.900000X-0.900000X0.900000X-0.900000X-0.900000X0*%
%ADD24C,2.200000*%
%ADD25RoundRect,0.200000X-0.650000X-0.650000X0.650000X-0.650000X0.650000X0.650000X-0.650000X0.650000X0*%
%ADD26C,1.700000*%
%ADD27C,2.410000*%
%ADD28C,2.800000*%
%ADD29RoundRect,0.200000X-1.015000X-0.865000X1.015000X-0.865000X1.015000X0.865000X-1.015000X0.865000X0*%
%ADD30O,2.430000X2.130000*%
%ADD31C,3.000000*%
%ADD32C,5.400000*%
%ADD33O,2.800000X2.800000*%
%ADD34O,2.000000X2.000000*%
%ADD35C,3.200000*%
%ADD36O,3.200000X3.200000*%
%ADD37RoundRect,0.200000X-0.525000X-0.750000X0.525000X-0.750000X0.525000X0.750000X-0.525000X0.750000X0*%
%ADD38O,1.450000X1.900000*%
%ADD39O,1.400000X6.900000*%
%ADD40HorizOval,1.400000X0.795495X0.795495X-0.795495X-0.795495X0*%
%ADD41O,5.400000X1.400000*%
%ADD42HorizOval,1.400000X-0.795495X0.795495X0.795495X-0.795495X0*%
%ADD43O,2.900000X4.900000*%
%ADD44RoundRect,0.200000X0.650000X-0.650000X0.650000X0.650000X-0.650000X0.650000X-0.650000X-0.650000X0*%
%ADD45C,3.400000*%
%ADD46RoundRect,0.200000X-0.800000X1.200000X-0.800000X-1.200000X0.800000X-1.200000X0.800000X1.200000X0*%
%ADD47O,2.000000X2.800000*%
%ADD48C,4.400000*%
%ADD49O,1.400000X8.400000*%
%ADD50O,8.400000X1.400000*%
%ADD51HorizOval,1.400000X2.474874X2.474874X-2.474874X-2.474874X0*%
%ADD52HorizOval,1.400000X-2.474874X2.474874X2.474874X-2.474874X0*%
%ADD53C,2.900000*%
%ADD54RoundRect,0.200000X0.900000X-1.750000X0.900000X1.750000X-0.900000X1.750000X-0.900000X-1.750000X0*%
%ADD55RoundRect,0.200000X-1.750000X-0.900000X1.750000X-0.900000X1.750000X0.900000X-1.750000X0.900000X0*%
%ADD56RoundRect,0.200000X1.750000X0.900000X-1.750000X0.900000X-1.750000X-0.900000X1.750000X-0.900000X0*%
%ADD57RoundRect,0.200000X-0.250000X0.250000X-0.250000X-0.250000X0.250000X-0.250000X0.250000X0.250000X0*%
%ADD58RoundRect,0.200000X-0.900000X1.750000X-0.900000X-1.750000X0.900000X-1.750000X0.900000X1.750000X0*%
%ADD59RoundRect,0.235000X-0.235000X-0.285000X0.235000X-0.285000X0.235000X0.285000X-0.235000X0.285000X0*%
%ADD60RoundRect,0.235000X0.235000X0.285000X-0.235000X0.285000X-0.235000X-0.285000X0.235000X-0.285000X0*%
%ADD61RoundRect,0.235000X-0.285000X0.235000X-0.285000X-0.235000X0.285000X-0.235000X0.285000X0.235000X0*%
%ADD62RoundRect,0.235000X0.285000X-0.235000X0.285000X0.235000X-0.285000X0.235000X-0.285000X-0.235000X0*%
%TA.AperFunction,Profile*%
%ADD63C,0.150000*%
%TD*%
G04 APERTURE END LIST*
D10*
D11*
X177002200Y-166007200D02*
X285002200Y-166007200D01*
X285002200Y-198007200D01*
X177002200Y-198007200D01*
X177002200Y-166007200D01*
D10*
D11*
X10000000Y-10000000D02*
X287002200Y-10000000D01*
X287002200Y-200007200D01*
X10000000Y-200007200D01*
X10000000Y-10000000D01*
D10*
D11*
X12000000Y-12000000D02*
X285002200Y-12000000D01*
X285002200Y-198007200D01*
X12000000Y-198007200D01*
X12000000Y-12000000D01*
D10*
D11*
X60000000Y-12000000D02*
X60000000Y-10000000D01*
D10*
D11*
X110000000Y-12000000D02*
X110000000Y-10000000D01*
D10*
D11*
X160000000Y-12000000D02*
X160000000Y-10000000D01*
D10*
D11*
X210000000Y-12000000D02*
X210000000Y-10000000D01*
D10*
D11*
X260000000Y-12000000D02*
X260000000Y-10000000D01*
D10*
D11*
X36089160Y-11593604D02*
X35346303Y-11593604D01*
X35717731Y-11593604D02*
X35717731Y-10293604D01*
X35717731Y-10293604D02*
X35593922Y-10479319D01*
X35593922Y-10479319D02*
X35470112Y-10603128D01*
X35470112Y-10603128D02*
X35346303Y-10665033D01*
D10*
D11*
X85346303Y-10417414D02*
X85408207Y-10355509D01*
X85408207Y-10355509D02*
X85532017Y-10293604D01*
X85532017Y-10293604D02*
X85841541Y-10293604D01*
X85841541Y-10293604D02*
X85965350Y-10355509D01*
X85965350Y-10355509D02*
X86027255Y-10417414D01*
X86027255Y-10417414D02*
X86089160Y-10541223D01*
X86089160Y-10541223D02*
X86089160Y-10665033D01*
X86089160Y-10665033D02*
X86027255Y-10850747D01*
X86027255Y-10850747D02*
X85284398Y-11593604D01*
X85284398Y-11593604D02*
X86089160Y-11593604D01*
D10*
D11*
X135284398Y-10293604D02*
X136089160Y-10293604D01*
X136089160Y-10293604D02*
X135655826Y-10788842D01*
X135655826Y-10788842D02*
X135841541Y-10788842D01*
X135841541Y-10788842D02*
X135965350Y-10850747D01*
X135965350Y-10850747D02*
X136027255Y-10912652D01*
X136027255Y-10912652D02*
X136089160Y-11036461D01*
X136089160Y-11036461D02*
X136089160Y-11345985D01*
X136089160Y-11345985D02*
X136027255Y-11469795D01*
X136027255Y-11469795D02*
X135965350Y-11531700D01*
X135965350Y-11531700D02*
X135841541Y-11593604D01*
X135841541Y-11593604D02*
X135470112Y-11593604D01*
X135470112Y-11593604D02*
X135346303Y-11531700D01*
X135346303Y-11531700D02*
X135284398Y-11469795D01*
D10*
D11*
X185965350Y-10726938D02*
X185965350Y-11593604D01*
X185655826Y-10231700D02*
X185346303Y-11160271D01*
X185346303Y-11160271D02*
X186151064Y-11160271D01*
D10*
D11*
X236027255Y-10293604D02*
X235408207Y-10293604D01*
X235408207Y-10293604D02*
X235346303Y-10912652D01*
X235346303Y-10912652D02*
X235408207Y-10850747D01*
X235408207Y-10850747D02*
X235532017Y-10788842D01*
X235532017Y-10788842D02*
X235841541Y-10788842D01*
X235841541Y-10788842D02*
X235965350Y-10850747D01*
X235965350Y-10850747D02*
X236027255Y-10912652D01*
X236027255Y-10912652D02*
X236089160Y-11036461D01*
X236089160Y-11036461D02*
X236089160Y-11345985D01*
X236089160Y-11345985D02*
X236027255Y-11469795D01*
X236027255Y-11469795D02*
X235965350Y-11531700D01*
X235965350Y-11531700D02*
X235841541Y-11593604D01*
X235841541Y-11593604D02*
X235532017Y-11593604D01*
X235532017Y-11593604D02*
X235408207Y-11531700D01*
X235408207Y-11531700D02*
X235346303Y-11469795D01*
D10*
D11*
X285965350Y-10293604D02*
X285717731Y-10293604D01*
X285717731Y-10293604D02*
X285593922Y-10355509D01*
X285593922Y-10355509D02*
X285532017Y-10417414D01*
X285532017Y-10417414D02*
X285408207Y-10603128D01*
X285408207Y-10603128D02*
X285346303Y-10850747D01*
X285346303Y-10850747D02*
X285346303Y-11345985D01*
X285346303Y-11345985D02*
X285408207Y-11469795D01*
X285408207Y-11469795D02*
X285470112Y-11531700D01*
X285470112Y-11531700D02*
X285593922Y-11593604D01*
X285593922Y-11593604D02*
X285841541Y-11593604D01*
X285841541Y-11593604D02*
X285965350Y-11531700D01*
X285965350Y-11531700D02*
X286027255Y-11469795D01*
X286027255Y-11469795D02*
X286089160Y-11345985D01*
X286089160Y-11345985D02*
X286089160Y-11036461D01*
X286089160Y-11036461D02*
X286027255Y-10912652D01*
X286027255Y-10912652D02*
X285965350Y-10850747D01*
X285965350Y-10850747D02*
X285841541Y-10788842D01*
X285841541Y-10788842D02*
X285593922Y-10788842D01*
X285593922Y-10788842D02*
X285470112Y-10850747D01*
X285470112Y-10850747D02*
X285408207Y-10912652D01*
X285408207Y-10912652D02*
X285346303Y-11036461D01*
D10*
D11*
X60000000Y-198007200D02*
X60000000Y-200007200D01*
D10*
D11*
X110000000Y-198007200D02*
X110000000Y-200007200D01*
D10*
D11*
X160000000Y-198007200D02*
X160000000Y-200007200D01*
D10*
D11*
X210000000Y-198007200D02*
X210000000Y-200007200D01*
D10*
D11*
X260000000Y-198007200D02*
X260000000Y-200007200D01*
D10*
D11*
X36089160Y-199600804D02*
X35346303Y-199600804D01*
X35717731Y-199600804D02*
X35717731Y-198300804D01*
X35717731Y-198300804D02*
X35593922Y-198486519D01*
X35593922Y-198486519D02*
X35470112Y-198610328D01*
X35470112Y-198610328D02*
X35346303Y-198672233D01*
D10*
D11*
X85346303Y-198424614D02*
X85408207Y-198362709D01*
X85408207Y-198362709D02*
X85532017Y-198300804D01*
X85532017Y-198300804D02*
X85841541Y-198300804D01*
X85841541Y-198300804D02*
X85965350Y-198362709D01*
X85965350Y-198362709D02*
X86027255Y-198424614D01*
X86027255Y-198424614D02*
X86089160Y-198548423D01*
X86089160Y-198548423D02*
X86089160Y-198672233D01*
X86089160Y-198672233D02*
X86027255Y-198857947D01*
X86027255Y-198857947D02*
X85284398Y-199600804D01*
X85284398Y-199600804D02*
X86089160Y-199600804D01*
D10*
D11*
X135284398Y-198300804D02*
X136089160Y-198300804D01*
X136089160Y-198300804D02*
X135655826Y-198796042D01*
X135655826Y-198796042D02*
X135841541Y-198796042D01*
X135841541Y-198796042D02*
X135965350Y-198857947D01*
X135965350Y-198857947D02*
X136027255Y-198919852D01*
X136027255Y-198919852D02*
X136089160Y-199043661D01*
X136089160Y-199043661D02*
X136089160Y-199353185D01*
X136089160Y-199353185D02*
X136027255Y-199476995D01*
X136027255Y-199476995D02*
X135965350Y-199538900D01*
X135965350Y-199538900D02*
X135841541Y-199600804D01*
X135841541Y-199600804D02*
X135470112Y-199600804D01*
X135470112Y-199600804D02*
X135346303Y-199538900D01*
X135346303Y-199538900D02*
X135284398Y-199476995D01*
D10*
D11*
X185965350Y-198734138D02*
X185965350Y-199600804D01*
X185655826Y-198238900D02*
X185346303Y-199167471D01*
X185346303Y-199167471D02*
X186151064Y-199167471D01*
D10*
D11*
X236027255Y-198300804D02*
X235408207Y-198300804D01*
X235408207Y-198300804D02*
X235346303Y-198919852D01*
X235346303Y-198919852D02*
X235408207Y-198857947D01*
X235408207Y-198857947D02*
X235532017Y-198796042D01*
X235532017Y-198796042D02*
X235841541Y-198796042D01*
X235841541Y-198796042D02*
X235965350Y-198857947D01*
X235965350Y-198857947D02*
X236027255Y-198919852D01*
X236027255Y-198919852D02*
X236089160Y-199043661D01*
X236089160Y-199043661D02*
X236089160Y-199353185D01*
X236089160Y-199353185D02*
X236027255Y-199476995D01*
X236027255Y-199476995D02*
X235965350Y-199538900D01*
X235965350Y-199538900D02*
X235841541Y-199600804D01*
X235841541Y-199600804D02*
X235532017Y-199600804D01*
X235532017Y-199600804D02*
X235408207Y-199538900D01*
X235408207Y-199538900D02*
X235346303Y-199476995D01*
D10*
D11*
X285965350Y-198300804D02*
X285717731Y-198300804D01*
X285717731Y-198300804D02*
X285593922Y-198362709D01*
X285593922Y-198362709D02*
X285532017Y-198424614D01*
X285532017Y-198424614D02*
X285408207Y-198610328D01*
X285408207Y-198610328D02*
X285346303Y-198857947D01*
X285346303Y-198857947D02*
X285346303Y-199353185D01*
X285346303Y-199353185D02*
X285408207Y-199476995D01*
X285408207Y-199476995D02*
X285470112Y-199538900D01*
X285470112Y-199538900D02*
X285593922Y-199600804D01*
X285593922Y-199600804D02*
X285841541Y-199600804D01*
X285841541Y-199600804D02*
X285965350Y-199538900D01*
X285965350Y-199538900D02*
X286027255Y-199476995D01*
X286027255Y-199476995D02*
X286089160Y-199353185D01*
X286089160Y-199353185D02*
X286089160Y-199043661D01*
X286089160Y-199043661D02*
X286027255Y-198919852D01*
X286027255Y-198919852D02*
X285965350Y-198857947D01*
X285965350Y-198857947D02*
X285841541Y-198796042D01*
X285841541Y-198796042D02*
X285593922Y-198796042D01*
X285593922Y-198796042D02*
X285470112Y-198857947D01*
X285470112Y-198857947D02*
X285408207Y-198919852D01*
X285408207Y-198919852D02*
X285346303Y-199043661D01*
D10*
D11*
X10000000Y-60000000D02*
X12000000Y-60000000D01*
D10*
D11*
X10000000Y-110000000D02*
X12000000Y-110000000D01*
D10*
D11*
X10000000Y-160000000D02*
X12000000Y-160000000D01*
D10*
D11*
X10690476Y-35222176D02*
X11309523Y-35222176D01*
X10566666Y-35593604D02*
X10999999Y-34293604D01*
X10999999Y-34293604D02*
X11433333Y-35593604D01*
D10*
D11*
X11092857Y-84912652D02*
X11278571Y-84974557D01*
X11278571Y-84974557D02*
X11340476Y-85036461D01*
X11340476Y-85036461D02*
X11402380Y-85160271D01*
X11402380Y-85160271D02*
X11402380Y-85345985D01*
X11402380Y-85345985D02*
X11340476Y-85469795D01*
X11340476Y-85469795D02*
X11278571Y-85531700D01*
X11278571Y-85531700D02*
X11154761Y-85593604D01*
X11154761Y-85593604D02*
X10659523Y-85593604D01*
X10659523Y-85593604D02*
X10659523Y-84293604D01*
X10659523Y-84293604D02*
X11092857Y-84293604D01*
X11092857Y-84293604D02*
X11216666Y-84355509D01*
X11216666Y-84355509D02*
X11278571Y-84417414D01*
X11278571Y-84417414D02*
X11340476Y-84541223D01*
X11340476Y-84541223D02*
X11340476Y-84665033D01*
X11340476Y-84665033D02*
X11278571Y-84788842D01*
X11278571Y-84788842D02*
X11216666Y-84850747D01*
X11216666Y-84850747D02*
X11092857Y-84912652D01*
X11092857Y-84912652D02*
X10659523Y-84912652D01*
D10*
D11*
X11402380Y-135469795D02*
X11340476Y-135531700D01*
X11340476Y-135531700D02*
X11154761Y-135593604D01*
X11154761Y-135593604D02*
X11030952Y-135593604D01*
X11030952Y-135593604D02*
X10845238Y-135531700D01*
X10845238Y-135531700D02*
X10721428Y-135407890D01*
X10721428Y-135407890D02*
X10659523Y-135284080D01*
X10659523Y-135284080D02*
X10597619Y-135036461D01*
X10597619Y-135036461D02*
X10597619Y-134850747D01*
X10597619Y-134850747D02*
X10659523Y-134603128D01*
X10659523Y-134603128D02*
X10721428Y-134479319D01*
X10721428Y-134479319D02*
X10845238Y-134355509D01*
X10845238Y-134355509D02*
X11030952Y-134293604D01*
X11030952Y-134293604D02*
X11154761Y-134293604D01*
X11154761Y-134293604D02*
X11340476Y-134355509D01*
X11340476Y-134355509D02*
X11402380Y-134417414D01*
D10*
D11*
X10659523Y-185593604D02*
X10659523Y-184293604D01*
X10659523Y-184293604D02*
X10969047Y-184293604D01*
X10969047Y-184293604D02*
X11154761Y-184355509D01*
X11154761Y-184355509D02*
X11278571Y-184479319D01*
X11278571Y-184479319D02*
X11340476Y-184603128D01*
X11340476Y-184603128D02*
X11402380Y-184850747D01*
X11402380Y-184850747D02*
X11402380Y-185036461D01*
X11402380Y-185036461D02*
X11340476Y-185284080D01*
X11340476Y-185284080D02*
X11278571Y-185407890D01*
X11278571Y-185407890D02*
X11154761Y-185531700D01*
X11154761Y-185531700D02*
X10969047Y-185593604D01*
X10969047Y-185593604D02*
X10659523Y-185593604D01*
D10*
D11*
X287002200Y-60000000D02*
X285002200Y-60000000D01*
D10*
D11*
X287002200Y-110000000D02*
X285002200Y-110000000D01*
D10*
D11*
X287002200Y-160000000D02*
X285002200Y-160000000D01*
D10*
D11*
X285692676Y-35222176D02*
X286311723Y-35222176D01*
X285568866Y-35593604D02*
X286002199Y-34293604D01*
X286002199Y-34293604D02*
X286435533Y-35593604D01*
D10*
D11*
X286095057Y-84912652D02*
X286280771Y-84974557D01*
X286280771Y-84974557D02*
X286342676Y-85036461D01*
X286342676Y-85036461D02*
X286404580Y-85160271D01*
X286404580Y-85160271D02*
X286404580Y-85345985D01*
X286404580Y-85345985D02*
X286342676Y-85469795D01*
X286342676Y-85469795D02*
X286280771Y-85531700D01*
X286280771Y-85531700D02*
X286156961Y-85593604D01*
X286156961Y-85593604D02*
X285661723Y-85593604D01*
X285661723Y-85593604D02*
X285661723Y-84293604D01*
X285661723Y-84293604D02*
X286095057Y-84293604D01*
X286095057Y-84293604D02*
X286218866Y-84355509D01*
X286218866Y-84355509D02*
X286280771Y-84417414D01*
X286280771Y-84417414D02*
X286342676Y-84541223D01*
X286342676Y-84541223D02*
X286342676Y-84665033D01*
X286342676Y-84665033D02*
X286280771Y-84788842D01*
X286280771Y-84788842D02*
X286218866Y-84850747D01*
X286218866Y-84850747D02*
X286095057Y-84912652D01*
X286095057Y-84912652D02*
X285661723Y-84912652D01*
D10*
D11*
X286404580Y-135469795D02*
X286342676Y-135531700D01*
X286342676Y-135531700D02*
X286156961Y-135593604D01*
X286156961Y-135593604D02*
X286033152Y-135593604D01*
X286033152Y-135593604D02*
X285847438Y-135531700D01*
X285847438Y-135531700D02*
X285723628Y-135407890D01*
X285723628Y-135407890D02*
X285661723Y-135284080D01*
X285661723Y-135284080D02*
X285599819Y-135036461D01*
X285599819Y-135036461D02*
X285599819Y-134850747D01*
X285599819Y-134850747D02*
X285661723Y-134603128D01*
X285661723Y-134603128D02*
X285723628Y-134479319D01*
X285723628Y-134479319D02*
X285847438Y-134355509D01*
X285847438Y-134355509D02*
X286033152Y-134293604D01*
X286033152Y-134293604D02*
X286156961Y-134293604D01*
X286156961Y-134293604D02*
X286342676Y-134355509D01*
X286342676Y-134355509D02*
X286404580Y-134417414D01*
D10*
D11*
X285661723Y-185593604D02*
X285661723Y-184293604D01*
X285661723Y-184293604D02*
X285971247Y-184293604D01*
X285971247Y-184293604D02*
X286156961Y-184355509D01*
X286156961Y-184355509D02*
X286280771Y-184479319D01*
X286280771Y-184479319D02*
X286342676Y-184603128D01*
X286342676Y-184603128D02*
X286404580Y-184850747D01*
X286404580Y-184850747D02*
X286404580Y-185036461D01*
X286404580Y-185036461D02*
X286342676Y-185284080D01*
X286342676Y-185284080D02*
X286280771Y-185407890D01*
X286280771Y-185407890D02*
X286156961Y-185531700D01*
X286156961Y-185531700D02*
X285971247Y-185593604D01*
X285971247Y-185593604D02*
X285661723Y-185593604D01*
D10*
D11*
X200458026Y-193793328D02*
X200458026Y-192293328D01*
X200458026Y-192293328D02*
X200815169Y-192293328D01*
X200815169Y-192293328D02*
X201029455Y-192364757D01*
X201029455Y-192364757D02*
X201172312Y-192507614D01*
X201172312Y-192507614D02*
X201243741Y-192650471D01*
X201243741Y-192650471D02*
X201315169Y-192936185D01*
X201315169Y-192936185D02*
X201315169Y-193150471D01*
X201315169Y-193150471D02*
X201243741Y-193436185D01*
X201243741Y-193436185D02*
X201172312Y-193579042D01*
X201172312Y-193579042D02*
X201029455Y-193721900D01*
X201029455Y-193721900D02*
X200815169Y-193793328D01*
X200815169Y-193793328D02*
X200458026Y-193793328D01*
X202600884Y-193793328D02*
X202600884Y-193007614D01*
X202600884Y-193007614D02*
X202529455Y-192864757D01*
X202529455Y-192864757D02*
X202386598Y-192793328D01*
X202386598Y-192793328D02*
X202100884Y-192793328D01*
X202100884Y-192793328D02*
X201958026Y-192864757D01*
X202600884Y-193721900D02*
X202458026Y-193793328D01*
X202458026Y-193793328D02*
X202100884Y-193793328D01*
X202100884Y-193793328D02*
X201958026Y-193721900D01*
X201958026Y-193721900D02*
X201886598Y-193579042D01*
X201886598Y-193579042D02*
X201886598Y-193436185D01*
X201886598Y-193436185D02*
X201958026Y-193293328D01*
X201958026Y-193293328D02*
X202100884Y-193221900D01*
X202100884Y-193221900D02*
X202458026Y-193221900D01*
X202458026Y-193221900D02*
X202600884Y-193150471D01*
X203100884Y-192793328D02*
X203672312Y-192793328D01*
X203315169Y-192293328D02*
X203315169Y-193579042D01*
X203315169Y-193579042D02*
X203386598Y-193721900D01*
X203386598Y-193721900D02*
X203529455Y-193793328D01*
X203529455Y-193793328D02*
X203672312Y-193793328D01*
X204743741Y-193721900D02*
X204600884Y-193793328D01*
X204600884Y-193793328D02*
X204315170Y-193793328D01*
X204315170Y-193793328D02*
X204172312Y-193721900D01*
X204172312Y-193721900D02*
X204100884Y-193579042D01*
X204100884Y-193579042D02*
X204100884Y-193007614D01*
X204100884Y-193007614D02*
X204172312Y-192864757D01*
X204172312Y-192864757D02*
X204315170Y-192793328D01*
X204315170Y-192793328D02*
X204600884Y-192793328D01*
X204600884Y-192793328D02*
X204743741Y-192864757D01*
X204743741Y-192864757D02*
X204815170Y-193007614D01*
X204815170Y-193007614D02*
X204815170Y-193150471D01*
X204815170Y-193150471D02*
X204100884Y-193293328D01*
X205458026Y-193650471D02*
X205529455Y-193721900D01*
X205529455Y-193721900D02*
X205458026Y-193793328D01*
X205458026Y-193793328D02*
X205386598Y-193721900D01*
X205386598Y-193721900D02*
X205458026Y-193650471D01*
X205458026Y-193650471D02*
X205458026Y-193793328D01*
X205458026Y-192864757D02*
X205529455Y-192936185D01*
X205529455Y-192936185D02*
X205458026Y-193007614D01*
X205458026Y-193007614D02*
X205386598Y-192936185D01*
X205386598Y-192936185D02*
X205458026Y-192864757D01*
X205458026Y-192864757D02*
X205458026Y-193007614D01*
X207243741Y-192436185D02*
X207315169Y-192364757D01*
X207315169Y-192364757D02*
X207458027Y-192293328D01*
X207458027Y-192293328D02*
X207815169Y-192293328D01*
X207815169Y-192293328D02*
X207958027Y-192364757D01*
X207958027Y-192364757D02*
X208029455Y-192436185D01*
X208029455Y-192436185D02*
X208100884Y-192579042D01*
X208100884Y-192579042D02*
X208100884Y-192721900D01*
X208100884Y-192721900D02*
X208029455Y-192936185D01*
X208029455Y-192936185D02*
X207172312Y-193793328D01*
X207172312Y-193793328D02*
X208100884Y-193793328D01*
X209029455Y-192293328D02*
X209172312Y-192293328D01*
X209172312Y-192293328D02*
X209315169Y-192364757D01*
X209315169Y-192364757D02*
X209386598Y-192436185D01*
X209386598Y-192436185D02*
X209458026Y-192579042D01*
X209458026Y-192579042D02*
X209529455Y-192864757D01*
X209529455Y-192864757D02*
X209529455Y-193221900D01*
X209529455Y-193221900D02*
X209458026Y-193507614D01*
X209458026Y-193507614D02*
X209386598Y-193650471D01*
X209386598Y-193650471D02*
X209315169Y-193721900D01*
X209315169Y-193721900D02*
X209172312Y-193793328D01*
X209172312Y-193793328D02*
X209029455Y-193793328D01*
X209029455Y-193793328D02*
X208886598Y-193721900D01*
X208886598Y-193721900D02*
X208815169Y-193650471D01*
X208815169Y-193650471D02*
X208743740Y-193507614D01*
X208743740Y-193507614D02*
X208672312Y-193221900D01*
X208672312Y-193221900D02*
X208672312Y-192864757D01*
X208672312Y-192864757D02*
X208743740Y-192579042D01*
X208743740Y-192579042D02*
X208815169Y-192436185D01*
X208815169Y-192436185D02*
X208886598Y-192364757D01*
X208886598Y-192364757D02*
X209029455Y-192293328D01*
X210100883Y-192436185D02*
X210172311Y-192364757D01*
X210172311Y-192364757D02*
X210315169Y-192293328D01*
X210315169Y-192293328D02*
X210672311Y-192293328D01*
X210672311Y-192293328D02*
X210815169Y-192364757D01*
X210815169Y-192364757D02*
X210886597Y-192436185D01*
X210886597Y-192436185D02*
X210958026Y-192579042D01*
X210958026Y-192579042D02*
X210958026Y-192721900D01*
X210958026Y-192721900D02*
X210886597Y-192936185D01*
X210886597Y-192936185D02*
X210029454Y-193793328D01*
X210029454Y-193793328D02*
X210958026Y-193793328D01*
X212386597Y-193793328D02*
X211529454Y-193793328D01*
X211958025Y-193793328D02*
X211958025Y-192293328D01*
X211958025Y-192293328D02*
X211815168Y-192507614D01*
X211815168Y-192507614D02*
X211672311Y-192650471D01*
X211672311Y-192650471D02*
X211529454Y-192721900D01*
X213029453Y-193221900D02*
X214172311Y-193221900D01*
X215172311Y-192293328D02*
X215315168Y-192293328D01*
X215315168Y-192293328D02*
X215458025Y-192364757D01*
X215458025Y-192364757D02*
X215529454Y-192436185D01*
X215529454Y-192436185D02*
X215600882Y-192579042D01*
X215600882Y-192579042D02*
X215672311Y-192864757D01*
X215672311Y-192864757D02*
X215672311Y-193221900D01*
X215672311Y-193221900D02*
X215600882Y-193507614D01*
X215600882Y-193507614D02*
X215529454Y-193650471D01*
X215529454Y-193650471D02*
X215458025Y-193721900D01*
X215458025Y-193721900D02*
X215315168Y-193793328D01*
X215315168Y-193793328D02*
X215172311Y-193793328D01*
X215172311Y-193793328D02*
X215029454Y-193721900D01*
X215029454Y-193721900D02*
X214958025Y-193650471D01*
X214958025Y-193650471D02*
X214886596Y-193507614D01*
X214886596Y-193507614D02*
X214815168Y-193221900D01*
X214815168Y-193221900D02*
X214815168Y-192864757D01*
X214815168Y-192864757D02*
X214886596Y-192579042D01*
X214886596Y-192579042D02*
X214958025Y-192436185D01*
X214958025Y-192436185D02*
X215029454Y-192364757D01*
X215029454Y-192364757D02*
X215172311Y-192293328D01*
X216958025Y-192293328D02*
X216672310Y-192293328D01*
X216672310Y-192293328D02*
X216529453Y-192364757D01*
X216529453Y-192364757D02*
X216458025Y-192436185D01*
X216458025Y-192436185D02*
X216315167Y-192650471D01*
X216315167Y-192650471D02*
X216243739Y-192936185D01*
X216243739Y-192936185D02*
X216243739Y-193507614D01*
X216243739Y-193507614D02*
X216315167Y-193650471D01*
X216315167Y-193650471D02*
X216386596Y-193721900D01*
X216386596Y-193721900D02*
X216529453Y-193793328D01*
X216529453Y-193793328D02*
X216815167Y-193793328D01*
X216815167Y-193793328D02*
X216958025Y-193721900D01*
X216958025Y-193721900D02*
X217029453Y-193650471D01*
X217029453Y-193650471D02*
X217100882Y-193507614D01*
X217100882Y-193507614D02*
X217100882Y-193150471D01*
X217100882Y-193150471D02*
X217029453Y-193007614D01*
X217029453Y-193007614D02*
X216958025Y-192936185D01*
X216958025Y-192936185D02*
X216815167Y-192864757D01*
X216815167Y-192864757D02*
X216529453Y-192864757D01*
X216529453Y-192864757D02*
X216386596Y-192936185D01*
X216386596Y-192936185D02*
X216315167Y-193007614D01*
X216315167Y-193007614D02*
X216243739Y-193150471D01*
X217743738Y-193221900D02*
X218886596Y-193221900D01*
X219886596Y-192293328D02*
X220029453Y-192293328D01*
X220029453Y-192293328D02*
X220172310Y-192364757D01*
X220172310Y-192364757D02*
X220243739Y-192436185D01*
X220243739Y-192436185D02*
X220315167Y-192579042D01*
X220315167Y-192579042D02*
X220386596Y-192864757D01*
X220386596Y-192864757D02*
X220386596Y-193221900D01*
X220386596Y-193221900D02*
X220315167Y-193507614D01*
X220315167Y-193507614D02*
X220243739Y-193650471D01*
X220243739Y-193650471D02*
X220172310Y-193721900D01*
X220172310Y-193721900D02*
X220029453Y-193793328D01*
X220029453Y-193793328D02*
X219886596Y-193793328D01*
X219886596Y-193793328D02*
X219743739Y-193721900D01*
X219743739Y-193721900D02*
X219672310Y-193650471D01*
X219672310Y-193650471D02*
X219600881Y-193507614D01*
X219600881Y-193507614D02*
X219529453Y-193221900D01*
X219529453Y-193221900D02*
X219529453Y-192864757D01*
X219529453Y-192864757D02*
X219600881Y-192579042D01*
X219600881Y-192579042D02*
X219672310Y-192436185D01*
X219672310Y-192436185D02*
X219743739Y-192364757D01*
X219743739Y-192364757D02*
X219886596Y-192293328D01*
X221743738Y-192293328D02*
X221029452Y-192293328D01*
X221029452Y-192293328D02*
X220958024Y-193007614D01*
X220958024Y-193007614D02*
X221029452Y-192936185D01*
X221029452Y-192936185D02*
X221172310Y-192864757D01*
X221172310Y-192864757D02*
X221529452Y-192864757D01*
X221529452Y-192864757D02*
X221672310Y-192936185D01*
X221672310Y-192936185D02*
X221743738Y-193007614D01*
X221743738Y-193007614D02*
X221815167Y-193150471D01*
X221815167Y-193150471D02*
X221815167Y-193507614D01*
X221815167Y-193507614D02*
X221743738Y-193650471D01*
X221743738Y-193650471D02*
X221672310Y-193721900D01*
X221672310Y-193721900D02*
X221529452Y-193793328D01*
X221529452Y-193793328D02*
X221172310Y-193793328D01*
X221172310Y-193793328D02*
X221029452Y-193721900D01*
X221029452Y-193721900D02*
X220958024Y-193650471D01*
D10*
D11*
X177002200Y-194507200D02*
X285002200Y-194507200D01*
D10*
D11*
X178458026Y-196593328D02*
X178458026Y-195093328D01*
X179315169Y-196593328D02*
X178672312Y-195736185D01*
X179315169Y-195093328D02*
X178458026Y-195950471D01*
X179958026Y-196593328D02*
X179958026Y-195593328D01*
X179958026Y-195093328D02*
X179886598Y-195164757D01*
X179886598Y-195164757D02*
X179958026Y-195236185D01*
X179958026Y-195236185D02*
X180029455Y-195164757D01*
X180029455Y-195164757D02*
X179958026Y-195093328D01*
X179958026Y-195093328D02*
X179958026Y-195236185D01*
X181529455Y-196450471D02*
X181458027Y-196521900D01*
X181458027Y-196521900D02*
X181243741Y-196593328D01*
X181243741Y-196593328D02*
X181100884Y-196593328D01*
X181100884Y-196593328D02*
X180886598Y-196521900D01*
X180886598Y-196521900D02*
X180743741Y-196379042D01*
X180743741Y-196379042D02*
X180672312Y-196236185D01*
X180672312Y-196236185D02*
X180600884Y-195950471D01*
X180600884Y-195950471D02*
X180600884Y-195736185D01*
X180600884Y-195736185D02*
X180672312Y-195450471D01*
X180672312Y-195450471D02*
X180743741Y-195307614D01*
X180743741Y-195307614D02*
X180886598Y-195164757D01*
X180886598Y-195164757D02*
X181100884Y-195093328D01*
X181100884Y-195093328D02*
X181243741Y-195093328D01*
X181243741Y-195093328D02*
X181458027Y-195164757D01*
X181458027Y-195164757D02*
X181529455Y-195236185D01*
X182815170Y-196593328D02*
X182815170Y-195807614D01*
X182815170Y-195807614D02*
X182743741Y-195664757D01*
X182743741Y-195664757D02*
X182600884Y-195593328D01*
X182600884Y-195593328D02*
X182315170Y-195593328D01*
X182315170Y-195593328D02*
X182172312Y-195664757D01*
X182815170Y-196521900D02*
X182672312Y-196593328D01*
X182672312Y-196593328D02*
X182315170Y-196593328D01*
X182315170Y-196593328D02*
X182172312Y-196521900D01*
X182172312Y-196521900D02*
X182100884Y-196379042D01*
X182100884Y-196379042D02*
X182100884Y-196236185D01*
X182100884Y-196236185D02*
X182172312Y-196093328D01*
X182172312Y-196093328D02*
X182315170Y-196021900D01*
X182315170Y-196021900D02*
X182672312Y-196021900D01*
X182672312Y-196021900D02*
X182815170Y-195950471D01*
X184172313Y-196593328D02*
X184172313Y-195093328D01*
X184172313Y-196521900D02*
X184029455Y-196593328D01*
X184029455Y-196593328D02*
X183743741Y-196593328D01*
X183743741Y-196593328D02*
X183600884Y-196521900D01*
X183600884Y-196521900D02*
X183529455Y-196450471D01*
X183529455Y-196450471D02*
X183458027Y-196307614D01*
X183458027Y-196307614D02*
X183458027Y-195879042D01*
X183458027Y-195879042D02*
X183529455Y-195736185D01*
X183529455Y-195736185D02*
X183600884Y-195664757D01*
X183600884Y-195664757D02*
X183743741Y-195593328D01*
X183743741Y-195593328D02*
X184029455Y-195593328D01*
X184029455Y-195593328D02*
X184172313Y-195664757D01*
X186029455Y-195807614D02*
X186529455Y-195807614D01*
X186743741Y-196593328D02*
X186029455Y-196593328D01*
X186029455Y-196593328D02*
X186029455Y-195093328D01*
X186029455Y-195093328D02*
X186743741Y-195093328D01*
X187386598Y-196450471D02*
X187458027Y-196521900D01*
X187458027Y-196521900D02*
X187386598Y-196593328D01*
X187386598Y-196593328D02*
X187315170Y-196521900D01*
X187315170Y-196521900D02*
X187386598Y-196450471D01*
X187386598Y-196450471D02*
X187386598Y-196593328D01*
X188100884Y-196593328D02*
X188100884Y-195093328D01*
X188100884Y-195093328D02*
X188458027Y-195093328D01*
X188458027Y-195093328D02*
X188672313Y-195164757D01*
X188672313Y-195164757D02*
X188815170Y-195307614D01*
X188815170Y-195307614D02*
X188886599Y-195450471D01*
X188886599Y-195450471D02*
X188958027Y-195736185D01*
X188958027Y-195736185D02*
X188958027Y-195950471D01*
X188958027Y-195950471D02*
X188886599Y-196236185D01*
X188886599Y-196236185D02*
X188815170Y-196379042D01*
X188815170Y-196379042D02*
X188672313Y-196521900D01*
X188672313Y-196521900D02*
X188458027Y-196593328D01*
X188458027Y-196593328D02*
X188100884Y-196593328D01*
X189600884Y-196450471D02*
X189672313Y-196521900D01*
X189672313Y-196521900D02*
X189600884Y-196593328D01*
X189600884Y-196593328D02*
X189529456Y-196521900D01*
X189529456Y-196521900D02*
X189600884Y-196450471D01*
X189600884Y-196450471D02*
X189600884Y-196593328D01*
X190243742Y-196164757D02*
X190958028Y-196164757D01*
X190100885Y-196593328D02*
X190600885Y-195093328D01*
X190600885Y-195093328D02*
X191100885Y-196593328D01*
X191600884Y-196450471D02*
X191672313Y-196521900D01*
X191672313Y-196521900D02*
X191600884Y-196593328D01*
X191600884Y-196593328D02*
X191529456Y-196521900D01*
X191529456Y-196521900D02*
X191600884Y-196450471D01*
X191600884Y-196450471D02*
X191600884Y-196593328D01*
X193672313Y-195736185D02*
X193529456Y-195664757D01*
X193529456Y-195664757D02*
X193458027Y-195593328D01*
X193458027Y-195593328D02*
X193386599Y-195450471D01*
X193386599Y-195450471D02*
X193386599Y-195379042D01*
X193386599Y-195379042D02*
X193458027Y-195236185D01*
X193458027Y-195236185D02*
X193529456Y-195164757D01*
X193529456Y-195164757D02*
X193672313Y-195093328D01*
X193672313Y-195093328D02*
X193958027Y-195093328D01*
X193958027Y-195093328D02*
X194100885Y-195164757D01*
X194100885Y-195164757D02*
X194172313Y-195236185D01*
X194172313Y-195236185D02*
X194243742Y-195379042D01*
X194243742Y-195379042D02*
X194243742Y-195450471D01*
X194243742Y-195450471D02*
X194172313Y-195593328D01*
X194172313Y-195593328D02*
X194100885Y-195664757D01*
X194100885Y-195664757D02*
X193958027Y-195736185D01*
X193958027Y-195736185D02*
X193672313Y-195736185D01*
X193672313Y-195736185D02*
X193529456Y-195807614D01*
X193529456Y-195807614D02*
X193458027Y-195879042D01*
X193458027Y-195879042D02*
X193386599Y-196021900D01*
X193386599Y-196021900D02*
X193386599Y-196307614D01*
X193386599Y-196307614D02*
X193458027Y-196450471D01*
X193458027Y-196450471D02*
X193529456Y-196521900D01*
X193529456Y-196521900D02*
X193672313Y-196593328D01*
X193672313Y-196593328D02*
X193958027Y-196593328D01*
X193958027Y-196593328D02*
X194100885Y-196521900D01*
X194100885Y-196521900D02*
X194172313Y-196450471D01*
X194172313Y-196450471D02*
X194243742Y-196307614D01*
X194243742Y-196307614D02*
X194243742Y-196021900D01*
X194243742Y-196021900D02*
X194172313Y-195879042D01*
X194172313Y-195879042D02*
X194100885Y-195807614D01*
X194100885Y-195807614D02*
X193958027Y-195736185D01*
X194886598Y-196450471D02*
X194958027Y-196521900D01*
X194958027Y-196521900D02*
X194886598Y-196593328D01*
X194886598Y-196593328D02*
X194815170Y-196521900D01*
X194815170Y-196521900D02*
X194886598Y-196450471D01*
X194886598Y-196450471D02*
X194886598Y-196593328D01*
X195886599Y-195093328D02*
X196029456Y-195093328D01*
X196029456Y-195093328D02*
X196172313Y-195164757D01*
X196172313Y-195164757D02*
X196243742Y-195236185D01*
X196243742Y-195236185D02*
X196315170Y-195379042D01*
X196315170Y-195379042D02*
X196386599Y-195664757D01*
X196386599Y-195664757D02*
X196386599Y-196021900D01*
X196386599Y-196021900D02*
X196315170Y-196307614D01*
X196315170Y-196307614D02*
X196243742Y-196450471D01*
X196243742Y-196450471D02*
X196172313Y-196521900D01*
X196172313Y-196521900D02*
X196029456Y-196593328D01*
X196029456Y-196593328D02*
X195886599Y-196593328D01*
X195886599Y-196593328D02*
X195743742Y-196521900D01*
X195743742Y-196521900D02*
X195672313Y-196450471D01*
X195672313Y-196450471D02*
X195600884Y-196307614D01*
X195600884Y-196307614D02*
X195529456Y-196021900D01*
X195529456Y-196021900D02*
X195529456Y-195664757D01*
X195529456Y-195664757D02*
X195600884Y-195379042D01*
X195600884Y-195379042D02*
X195672313Y-195236185D01*
X195672313Y-195236185D02*
X195743742Y-195164757D01*
X195743742Y-195164757D02*
X195886599Y-195093328D01*
X197029455Y-196450471D02*
X197100884Y-196521900D01*
X197100884Y-196521900D02*
X197029455Y-196593328D01*
X197029455Y-196593328D02*
X196958027Y-196521900D01*
X196958027Y-196521900D02*
X197029455Y-196450471D01*
X197029455Y-196450471D02*
X197029455Y-196593328D01*
X198386599Y-195593328D02*
X198386599Y-196593328D01*
X198029456Y-195021900D02*
X197672313Y-196093328D01*
X197672313Y-196093328D02*
X198600884Y-196093328D01*
D10*
D11*
X177002200Y-191507200D02*
X285002200Y-191507200D01*
D10*
D12*
X264413853Y-193785528D02*
X263913853Y-193071242D01*
X263556710Y-193785528D02*
X263556710Y-192285528D01*
X263556710Y-192285528D02*
X264128139Y-192285528D01*
X264128139Y-192285528D02*
X264270996Y-192356957D01*
X264270996Y-192356957D02*
X264342425Y-192428385D01*
X264342425Y-192428385D02*
X264413853Y-192571242D01*
X264413853Y-192571242D02*
X264413853Y-192785528D01*
X264413853Y-192785528D02*
X264342425Y-192928385D01*
X264342425Y-192928385D02*
X264270996Y-192999814D01*
X264270996Y-192999814D02*
X264128139Y-193071242D01*
X264128139Y-193071242D02*
X263556710Y-193071242D01*
X265628139Y-193714100D02*
X265485282Y-193785528D01*
X265485282Y-193785528D02*
X265199568Y-193785528D01*
X265199568Y-193785528D02*
X265056710Y-193714100D01*
X265056710Y-193714100D02*
X264985282Y-193571242D01*
X264985282Y-193571242D02*
X264985282Y-192999814D01*
X264985282Y-192999814D02*
X265056710Y-192856957D01*
X265056710Y-192856957D02*
X265199568Y-192785528D01*
X265199568Y-192785528D02*
X265485282Y-192785528D01*
X265485282Y-192785528D02*
X265628139Y-192856957D01*
X265628139Y-192856957D02*
X265699568Y-192999814D01*
X265699568Y-192999814D02*
X265699568Y-193142671D01*
X265699568Y-193142671D02*
X264985282Y-193285528D01*
X266199567Y-192785528D02*
X266556710Y-193785528D01*
X266556710Y-193785528D02*
X266913853Y-192785528D01*
X267485281Y-193642671D02*
X267556710Y-193714100D01*
X267556710Y-193714100D02*
X267485281Y-193785528D01*
X267485281Y-193785528D02*
X267413853Y-193714100D01*
X267413853Y-193714100D02*
X267485281Y-193642671D01*
X267485281Y-193642671D02*
X267485281Y-193785528D01*
X267485281Y-192856957D02*
X267556710Y-192928385D01*
X267556710Y-192928385D02*
X267485281Y-192999814D01*
X267485281Y-192999814D02*
X267413853Y-192928385D01*
X267413853Y-192928385D02*
X267485281Y-192856957D01*
X267485281Y-192856957D02*
X267485281Y-192999814D01*
X269628139Y-192285528D02*
X269770996Y-192285528D01*
X269770996Y-192285528D02*
X269913853Y-192356957D01*
X269913853Y-192356957D02*
X269985282Y-192428385D01*
X269985282Y-192428385D02*
X270056710Y-192571242D01*
X270056710Y-192571242D02*
X270128139Y-192856957D01*
X270128139Y-192856957D02*
X270128139Y-193214100D01*
X270128139Y-193214100D02*
X270056710Y-193499814D01*
X270056710Y-193499814D02*
X269985282Y-193642671D01*
X269985282Y-193642671D02*
X269913853Y-193714100D01*
X269913853Y-193714100D02*
X269770996Y-193785528D01*
X269770996Y-193785528D02*
X269628139Y-193785528D01*
X269628139Y-193785528D02*
X269485282Y-193714100D01*
X269485282Y-193714100D02*
X269413853Y-193642671D01*
X269413853Y-193642671D02*
X269342424Y-193499814D01*
X269342424Y-193499814D02*
X269270996Y-193214100D01*
X269270996Y-193214100D02*
X269270996Y-192856957D01*
X269270996Y-192856957D02*
X269342424Y-192571242D01*
X269342424Y-192571242D02*
X269413853Y-192428385D01*
X269413853Y-192428385D02*
X269485282Y-192356957D01*
X269485282Y-192356957D02*
X269628139Y-192285528D01*
X270770995Y-193642671D02*
X270842424Y-193714100D01*
X270842424Y-193714100D02*
X270770995Y-193785528D01*
X270770995Y-193785528D02*
X270699567Y-193714100D01*
X270699567Y-193714100D02*
X270770995Y-193642671D01*
X270770995Y-193642671D02*
X270770995Y-193785528D01*
X271413853Y-192428385D02*
X271485281Y-192356957D01*
X271485281Y-192356957D02*
X271628139Y-192285528D01*
X271628139Y-192285528D02*
X271985281Y-192285528D01*
X271985281Y-192285528D02*
X272128139Y-192356957D01*
X272128139Y-192356957D02*
X272199567Y-192428385D01*
X272199567Y-192428385D02*
X272270996Y-192571242D01*
X272270996Y-192571242D02*
X272270996Y-192714100D01*
X272270996Y-192714100D02*
X272199567Y-192928385D01*
X272199567Y-192928385D02*
X271342424Y-193785528D01*
X271342424Y-193785528D02*
X272270996Y-193785528D01*
X272913852Y-193642671D02*
X272985281Y-193714100D01*
X272985281Y-193714100D02*
X272913852Y-193785528D01*
X272913852Y-193785528D02*
X272842424Y-193714100D01*
X272842424Y-193714100D02*
X272913852Y-193642671D01*
X272913852Y-193642671D02*
X272913852Y-193785528D01*
X273913853Y-192285528D02*
X274056710Y-192285528D01*
X274056710Y-192285528D02*
X274199567Y-192356957D01*
X274199567Y-192356957D02*
X274270996Y-192428385D01*
X274270996Y-192428385D02*
X274342424Y-192571242D01*
X274342424Y-192571242D02*
X274413853Y-192856957D01*
X274413853Y-192856957D02*
X274413853Y-193214100D01*
X274413853Y-193214100D02*
X274342424Y-193499814D01*
X274342424Y-193499814D02*
X274270996Y-193642671D01*
X274270996Y-193642671D02*
X274199567Y-193714100D01*
X274199567Y-193714100D02*
X274056710Y-193785528D01*
X274056710Y-193785528D02*
X273913853Y-193785528D01*
X273913853Y-193785528D02*
X273770996Y-193714100D01*
X273770996Y-193714100D02*
X273699567Y-193642671D01*
X273699567Y-193642671D02*
X273628138Y-193499814D01*
X273628138Y-193499814D02*
X273556710Y-193214100D01*
X273556710Y-193214100D02*
X273556710Y-192856957D01*
X273556710Y-192856957D02*
X273628138Y-192571242D01*
X273628138Y-192571242D02*
X273699567Y-192428385D01*
X273699567Y-192428385D02*
X273770996Y-192356957D01*
X273770996Y-192356957D02*
X273913853Y-192285528D01*
D10*
D11*
X178386598Y-193721900D02*
X178600884Y-193793328D01*
X178600884Y-193793328D02*
X178958026Y-193793328D01*
X178958026Y-193793328D02*
X179100884Y-193721900D01*
X179100884Y-193721900D02*
X179172312Y-193650471D01*
X179172312Y-193650471D02*
X179243741Y-193507614D01*
X179243741Y-193507614D02*
X179243741Y-193364757D01*
X179243741Y-193364757D02*
X179172312Y-193221900D01*
X179172312Y-193221900D02*
X179100884Y-193150471D01*
X179100884Y-193150471D02*
X178958026Y-193079042D01*
X178958026Y-193079042D02*
X178672312Y-193007614D01*
X178672312Y-193007614D02*
X178529455Y-192936185D01*
X178529455Y-192936185D02*
X178458026Y-192864757D01*
X178458026Y-192864757D02*
X178386598Y-192721900D01*
X178386598Y-192721900D02*
X178386598Y-192579042D01*
X178386598Y-192579042D02*
X178458026Y-192436185D01*
X178458026Y-192436185D02*
X178529455Y-192364757D01*
X178529455Y-192364757D02*
X178672312Y-192293328D01*
X178672312Y-192293328D02*
X179029455Y-192293328D01*
X179029455Y-192293328D02*
X179243741Y-192364757D01*
X179886597Y-193793328D02*
X179886597Y-192793328D01*
X179886597Y-192293328D02*
X179815169Y-192364757D01*
X179815169Y-192364757D02*
X179886597Y-192436185D01*
X179886597Y-192436185D02*
X179958026Y-192364757D01*
X179958026Y-192364757D02*
X179886597Y-192293328D01*
X179886597Y-192293328D02*
X179886597Y-192436185D01*
X180458026Y-192793328D02*
X181243741Y-192793328D01*
X181243741Y-192793328D02*
X180458026Y-193793328D01*
X180458026Y-193793328D02*
X181243741Y-193793328D01*
X182386598Y-193721900D02*
X182243741Y-193793328D01*
X182243741Y-193793328D02*
X181958027Y-193793328D01*
X181958027Y-193793328D02*
X181815169Y-193721900D01*
X181815169Y-193721900D02*
X181743741Y-193579042D01*
X181743741Y-193579042D02*
X181743741Y-193007614D01*
X181743741Y-193007614D02*
X181815169Y-192864757D01*
X181815169Y-192864757D02*
X181958027Y-192793328D01*
X181958027Y-192793328D02*
X182243741Y-192793328D01*
X182243741Y-192793328D02*
X182386598Y-192864757D01*
X182386598Y-192864757D02*
X182458027Y-193007614D01*
X182458027Y-193007614D02*
X182458027Y-193150471D01*
X182458027Y-193150471D02*
X181743741Y-193293328D01*
X183100883Y-193650471D02*
X183172312Y-193721900D01*
X183172312Y-193721900D02*
X183100883Y-193793328D01*
X183100883Y-193793328D02*
X183029455Y-193721900D01*
X183029455Y-193721900D02*
X183100883Y-193650471D01*
X183100883Y-193650471D02*
X183100883Y-193793328D01*
X183100883Y-192864757D02*
X183172312Y-192936185D01*
X183172312Y-192936185D02*
X183100883Y-193007614D01*
X183100883Y-193007614D02*
X183029455Y-192936185D01*
X183029455Y-192936185D02*
X183100883Y-192864757D01*
X183100883Y-192864757D02*
X183100883Y-193007614D01*
X184886598Y-193364757D02*
X185600884Y-193364757D01*
X184743741Y-193793328D02*
X185243741Y-192293328D01*
X185243741Y-192293328D02*
X185743741Y-193793328D01*
X186886598Y-192793328D02*
X186886598Y-193793328D01*
X186529455Y-192221900D02*
X186172312Y-193293328D01*
X186172312Y-193293328D02*
X187100883Y-193293328D01*
D10*
D11*
X263458026Y-196593328D02*
X263458026Y-195093328D01*
X264815170Y-196593328D02*
X264815170Y-195093328D01*
X264815170Y-196521900D02*
X264672312Y-196593328D01*
X264672312Y-196593328D02*
X264386598Y-196593328D01*
X264386598Y-196593328D02*
X264243741Y-196521900D01*
X264243741Y-196521900D02*
X264172312Y-196450471D01*
X264172312Y-196450471D02*
X264100884Y-196307614D01*
X264100884Y-196307614D02*
X264100884Y-195879042D01*
X264100884Y-195879042D02*
X264172312Y-195736185D01*
X264172312Y-195736185D02*
X264243741Y-195664757D01*
X264243741Y-195664757D02*
X264386598Y-195593328D01*
X264386598Y-195593328D02*
X264672312Y-195593328D01*
X264672312Y-195593328D02*
X264815170Y-195664757D01*
X265529455Y-196450471D02*
X265600884Y-196521900D01*
X265600884Y-196521900D02*
X265529455Y-196593328D01*
X265529455Y-196593328D02*
X265458027Y-196521900D01*
X265458027Y-196521900D02*
X265529455Y-196450471D01*
X265529455Y-196450471D02*
X265529455Y-196593328D01*
X265529455Y-195664757D02*
X265600884Y-195736185D01*
X265600884Y-195736185D02*
X265529455Y-195807614D01*
X265529455Y-195807614D02*
X265458027Y-195736185D01*
X265458027Y-195736185D02*
X265529455Y-195664757D01*
X265529455Y-195664757D02*
X265529455Y-195807614D01*
X268172313Y-196593328D02*
X267315170Y-196593328D01*
X267743741Y-196593328D02*
X267743741Y-195093328D01*
X267743741Y-195093328D02*
X267600884Y-195307614D01*
X267600884Y-195307614D02*
X267458027Y-195450471D01*
X267458027Y-195450471D02*
X267315170Y-195521900D01*
X269886598Y-195021900D02*
X268600884Y-196950471D01*
X271172313Y-196593328D02*
X270315170Y-196593328D01*
X270743741Y-196593328D02*
X270743741Y-195093328D01*
X270743741Y-195093328D02*
X270600884Y-195307614D01*
X270600884Y-195307614D02*
X270458027Y-195450471D01*
X270458027Y-195450471D02*
X270315170Y-195521900D01*
D10*
D11*
X177002200Y-187507200D02*
X285002200Y-187507200D01*
D10*
D13*
X178693928Y-188211638D02*
X179836785Y-188211638D01*
X179015357Y-190211638D02*
X179265357Y-188211638D01*
X180253452Y-190211638D02*
X180420119Y-188878304D01*
X180503452Y-188211638D02*
X180396309Y-188306876D01*
X180396309Y-188306876D02*
X180479643Y-188402114D01*
X180479643Y-188402114D02*
X180586786Y-188306876D01*
X180586786Y-188306876D02*
X180503452Y-188211638D01*
X180503452Y-188211638D02*
X180479643Y-188402114D01*
X181086786Y-188878304D02*
X181848690Y-188878304D01*
X181455833Y-188211638D02*
X181241548Y-189925923D01*
X181241548Y-189925923D02*
X181312976Y-190116400D01*
X181312976Y-190116400D02*
X181491548Y-190211638D01*
X181491548Y-190211638D02*
X181682024Y-190211638D01*
X182634405Y-190211638D02*
X182455833Y-190116400D01*
X182455833Y-190116400D02*
X182384405Y-189925923D01*
X182384405Y-189925923D02*
X182598690Y-188211638D01*
X184170119Y-190116400D02*
X183967738Y-190211638D01*
X183967738Y-190211638D02*
X183586785Y-190211638D01*
X183586785Y-190211638D02*
X183408214Y-190116400D01*
X183408214Y-190116400D02*
X183336785Y-189925923D01*
X183336785Y-189925923D02*
X183432024Y-189164019D01*
X183432024Y-189164019D02*
X183551071Y-188973542D01*
X183551071Y-188973542D02*
X183753452Y-188878304D01*
X183753452Y-188878304D02*
X184134404Y-188878304D01*
X184134404Y-188878304D02*
X184312976Y-188973542D01*
X184312976Y-188973542D02*
X184384404Y-189164019D01*
X184384404Y-189164019D02*
X184360595Y-189354495D01*
X184360595Y-189354495D02*
X183384404Y-189544971D01*
X185134405Y-190021161D02*
X185217738Y-190116400D01*
X185217738Y-190116400D02*
X185110595Y-190211638D01*
X185110595Y-190211638D02*
X185027262Y-190116400D01*
X185027262Y-190116400D02*
X185134405Y-190021161D01*
X185134405Y-190021161D02*
X185110595Y-190211638D01*
X185265357Y-188973542D02*
X185348690Y-189068780D01*
X185348690Y-189068780D02*
X185241548Y-189164019D01*
X185241548Y-189164019D02*
X185158214Y-189068780D01*
X185158214Y-189068780D02*
X185265357Y-188973542D01*
X185265357Y-188973542D02*
X185241548Y-189164019D01*
X187551072Y-188211638D02*
X188693929Y-188211638D01*
X187872501Y-190211638D02*
X188122501Y-188211638D01*
X189884406Y-190116400D02*
X189682025Y-190211638D01*
X189682025Y-190211638D02*
X189301072Y-190211638D01*
X189301072Y-190211638D02*
X189122501Y-190116400D01*
X189122501Y-190116400D02*
X189051072Y-189925923D01*
X189051072Y-189925923D02*
X189146311Y-189164019D01*
X189146311Y-189164019D02*
X189265358Y-188973542D01*
X189265358Y-188973542D02*
X189467739Y-188878304D01*
X189467739Y-188878304D02*
X189848691Y-188878304D01*
X189848691Y-188878304D02*
X190027263Y-188973542D01*
X190027263Y-188973542D02*
X190098691Y-189164019D01*
X190098691Y-189164019D02*
X190074882Y-189354495D01*
X190074882Y-189354495D02*
X189098691Y-189544971D01*
X190741549Y-190116400D02*
X190920120Y-190211638D01*
X190920120Y-190211638D02*
X191301073Y-190211638D01*
X191301073Y-190211638D02*
X191503454Y-190116400D01*
X191503454Y-190116400D02*
X191622501Y-189925923D01*
X191622501Y-189925923D02*
X191634406Y-189830685D01*
X191634406Y-189830685D02*
X191562977Y-189640209D01*
X191562977Y-189640209D02*
X191384406Y-189544971D01*
X191384406Y-189544971D02*
X191098692Y-189544971D01*
X191098692Y-189544971D02*
X190920120Y-189449733D01*
X190920120Y-189449733D02*
X190848692Y-189259257D01*
X190848692Y-189259257D02*
X190860597Y-189164019D01*
X190860597Y-189164019D02*
X190979644Y-188973542D01*
X190979644Y-188973542D02*
X191182025Y-188878304D01*
X191182025Y-188878304D02*
X191467739Y-188878304D01*
X191467739Y-188878304D02*
X191646311Y-188973542D01*
X192729645Y-190211638D02*
X192551073Y-190116400D01*
X192551073Y-190116400D02*
X192479645Y-189925923D01*
X192479645Y-189925923D02*
X192693930Y-188211638D01*
X194348692Y-190211638D02*
X194479644Y-189164019D01*
X194479644Y-189164019D02*
X194408216Y-188973542D01*
X194408216Y-188973542D02*
X194229644Y-188878304D01*
X194229644Y-188878304D02*
X193848692Y-188878304D01*
X193848692Y-188878304D02*
X193646311Y-188973542D01*
X194360597Y-190116400D02*
X194158216Y-190211638D01*
X194158216Y-190211638D02*
X193682025Y-190211638D01*
X193682025Y-190211638D02*
X193503454Y-190116400D01*
X193503454Y-190116400D02*
X193432025Y-189925923D01*
X193432025Y-189925923D02*
X193455835Y-189735447D01*
X193455835Y-189735447D02*
X193574883Y-189544971D01*
X193574883Y-189544971D02*
X193777264Y-189449733D01*
X193777264Y-189449733D02*
X194253454Y-189449733D01*
X194253454Y-189449733D02*
X194455835Y-189354495D01*
X196741550Y-190116400D02*
X197015359Y-190211638D01*
X197015359Y-190211638D02*
X197491550Y-190211638D01*
X197491550Y-190211638D02*
X197693931Y-190116400D01*
X197693931Y-190116400D02*
X197801074Y-190021161D01*
X197801074Y-190021161D02*
X197920121Y-189830685D01*
X197920121Y-189830685D02*
X197943931Y-189640209D01*
X197943931Y-189640209D02*
X197872502Y-189449733D01*
X197872502Y-189449733D02*
X197789169Y-189354495D01*
X197789169Y-189354495D02*
X197610598Y-189259257D01*
X197610598Y-189259257D02*
X197241550Y-189164019D01*
X197241550Y-189164019D02*
X197062978Y-189068780D01*
X197062978Y-189068780D02*
X196979645Y-188973542D01*
X196979645Y-188973542D02*
X196908217Y-188783066D01*
X196908217Y-188783066D02*
X196932026Y-188592590D01*
X196932026Y-188592590D02*
X197051074Y-188402114D01*
X197051074Y-188402114D02*
X197158217Y-188306876D01*
X197158217Y-188306876D02*
X197360598Y-188211638D01*
X197360598Y-188211638D02*
X197836788Y-188211638D01*
X197836788Y-188211638D02*
X198110598Y-188306876D01*
X198729645Y-190211638D02*
X198979645Y-188211638D01*
X198979645Y-188211638D02*
X199467740Y-189640209D01*
X199467740Y-189640209D02*
X200312979Y-188211638D01*
X200312979Y-188211638D02*
X200062979Y-190211638D01*
X201015359Y-190211638D02*
X201265359Y-188211638D01*
X201265359Y-188211638D02*
X202027264Y-188211638D01*
X202027264Y-188211638D02*
X202205835Y-188306876D01*
X202205835Y-188306876D02*
X202289169Y-188402114D01*
X202289169Y-188402114D02*
X202360597Y-188592590D01*
X202360597Y-188592590D02*
X202324883Y-188878304D01*
X202324883Y-188878304D02*
X202205835Y-189068780D01*
X202205835Y-189068780D02*
X202098693Y-189164019D01*
X202098693Y-189164019D02*
X201896312Y-189259257D01*
X201896312Y-189259257D02*
X201134407Y-189259257D01*
X202932026Y-190116400D02*
X203205835Y-190211638D01*
X203205835Y-190211638D02*
X203682026Y-190211638D01*
X203682026Y-190211638D02*
X203884407Y-190116400D01*
X203884407Y-190116400D02*
X203991550Y-190021161D01*
X203991550Y-190021161D02*
X204110597Y-189830685D01*
X204110597Y-189830685D02*
X204134407Y-189640209D01*
X204134407Y-189640209D02*
X204062978Y-189449733D01*
X204062978Y-189449733D02*
X203979645Y-189354495D01*
X203979645Y-189354495D02*
X203801074Y-189259257D01*
X203801074Y-189259257D02*
X203432026Y-189164019D01*
X203432026Y-189164019D02*
X203253454Y-189068780D01*
X203253454Y-189068780D02*
X203170121Y-188973542D01*
X203170121Y-188973542D02*
X203098693Y-188783066D01*
X203098693Y-188783066D02*
X203122502Y-188592590D01*
X203122502Y-188592590D02*
X203241550Y-188402114D01*
X203241550Y-188402114D02*
X203348693Y-188306876D01*
X203348693Y-188306876D02*
X203551074Y-188211638D01*
X203551074Y-188211638D02*
X204027264Y-188211638D01*
X204027264Y-188211638D02*
X204301074Y-188306876D01*
X206539169Y-189449733D02*
X208062979Y-189449733D01*
X210443931Y-190211638D02*
X210693931Y-188211638D01*
X210574884Y-189164019D02*
X211717741Y-189164019D01*
X211586788Y-190211638D02*
X211836788Y-188211638D01*
X212503455Y-188211638D02*
X212920122Y-190211638D01*
X212920122Y-190211638D02*
X213836788Y-188211638D01*
X214170122Y-190116400D02*
X214443931Y-190211638D01*
X214443931Y-190211638D02*
X214920122Y-190211638D01*
X214920122Y-190211638D02*
X215122503Y-190116400D01*
X215122503Y-190116400D02*
X215229646Y-190021161D01*
X215229646Y-190021161D02*
X215348693Y-189830685D01*
X215348693Y-189830685D02*
X215372503Y-189640209D01*
X215372503Y-189640209D02*
X215301074Y-189449733D01*
X215301074Y-189449733D02*
X215217741Y-189354495D01*
X215217741Y-189354495D02*
X215039170Y-189259257D01*
X215039170Y-189259257D02*
X214670122Y-189164019D01*
X214670122Y-189164019D02*
X214491550Y-189068780D01*
X214491550Y-189068780D02*
X214408217Y-188973542D01*
X214408217Y-188973542D02*
X214336789Y-188783066D01*
X214336789Y-188783066D02*
X214360598Y-188592590D01*
X214360598Y-188592590D02*
X214479646Y-188402114D01*
X214479646Y-188402114D02*
X214586789Y-188306876D01*
X214586789Y-188306876D02*
X214789170Y-188211638D01*
X214789170Y-188211638D02*
X215265360Y-188211638D01*
X215265360Y-188211638D02*
X215539170Y-188306876D01*
X216158217Y-190211638D02*
X216408217Y-188211638D01*
X216408217Y-188211638D02*
X216896312Y-189640209D01*
X216896312Y-189640209D02*
X217741551Y-188211638D01*
X217741551Y-188211638D02*
X217491551Y-190211638D01*
X218443931Y-190211638D02*
X218693931Y-188211638D01*
X218693931Y-188211638D02*
X219455836Y-188211638D01*
X219455836Y-188211638D02*
X219634407Y-188306876D01*
X219634407Y-188306876D02*
X219717741Y-188402114D01*
X219717741Y-188402114D02*
X219789169Y-188592590D01*
X219789169Y-188592590D02*
X219753455Y-188878304D01*
X219753455Y-188878304D02*
X219634407Y-189068780D01*
X219634407Y-189068780D02*
X219527265Y-189164019D01*
X219527265Y-189164019D02*
X219324884Y-189259257D01*
X219324884Y-189259257D02*
X218562979Y-189259257D01*
X220360598Y-190116400D02*
X220634407Y-190211638D01*
X220634407Y-190211638D02*
X221110598Y-190211638D01*
X221110598Y-190211638D02*
X221312979Y-190116400D01*
X221312979Y-190116400D02*
X221420122Y-190021161D01*
X221420122Y-190021161D02*
X221539169Y-189830685D01*
X221539169Y-189830685D02*
X221562979Y-189640209D01*
X221562979Y-189640209D02*
X221491550Y-189449733D01*
X221491550Y-189449733D02*
X221408217Y-189354495D01*
X221408217Y-189354495D02*
X221229646Y-189259257D01*
X221229646Y-189259257D02*
X220860598Y-189164019D01*
X220860598Y-189164019D02*
X220682026Y-189068780D01*
X220682026Y-189068780D02*
X220598693Y-188973542D01*
X220598693Y-188973542D02*
X220527265Y-188783066D01*
X220527265Y-188783066D02*
X220551074Y-188592590D01*
X220551074Y-188592590D02*
X220670122Y-188402114D01*
X220670122Y-188402114D02*
X220777265Y-188306876D01*
X220777265Y-188306876D02*
X220979646Y-188211638D01*
X220979646Y-188211638D02*
X221455836Y-188211638D01*
X221455836Y-188211638D02*
X221729646Y-188306876D01*
D10*
D11*
X178958026Y-185607614D02*
X178458026Y-185607614D01*
X178458026Y-186393328D02*
X178458026Y-184893328D01*
X178458026Y-184893328D02*
X179172312Y-184893328D01*
X179743740Y-186393328D02*
X179743740Y-185393328D01*
X179743740Y-184893328D02*
X179672312Y-184964757D01*
X179672312Y-184964757D02*
X179743740Y-185036185D01*
X179743740Y-185036185D02*
X179815169Y-184964757D01*
X179815169Y-184964757D02*
X179743740Y-184893328D01*
X179743740Y-184893328D02*
X179743740Y-185036185D01*
X180672312Y-186393328D02*
X180529455Y-186321900D01*
X180529455Y-186321900D02*
X180458026Y-186179042D01*
X180458026Y-186179042D02*
X180458026Y-184893328D01*
X181815169Y-186321900D02*
X181672312Y-186393328D01*
X181672312Y-186393328D02*
X181386598Y-186393328D01*
X181386598Y-186393328D02*
X181243740Y-186321900D01*
X181243740Y-186321900D02*
X181172312Y-186179042D01*
X181172312Y-186179042D02*
X181172312Y-185607614D01*
X181172312Y-185607614D02*
X181243740Y-185464757D01*
X181243740Y-185464757D02*
X181386598Y-185393328D01*
X181386598Y-185393328D02*
X181672312Y-185393328D01*
X181672312Y-185393328D02*
X181815169Y-185464757D01*
X181815169Y-185464757D02*
X181886598Y-185607614D01*
X181886598Y-185607614D02*
X181886598Y-185750471D01*
X181886598Y-185750471D02*
X181172312Y-185893328D01*
X182529454Y-186250471D02*
X182600883Y-186321900D01*
X182600883Y-186321900D02*
X182529454Y-186393328D01*
X182529454Y-186393328D02*
X182458026Y-186321900D01*
X182458026Y-186321900D02*
X182529454Y-186250471D01*
X182529454Y-186250471D02*
X182529454Y-186393328D01*
X182529454Y-185464757D02*
X182600883Y-185536185D01*
X182600883Y-185536185D02*
X182529454Y-185607614D01*
X182529454Y-185607614D02*
X182458026Y-185536185D01*
X182458026Y-185536185D02*
X182529454Y-185464757D01*
X182529454Y-185464757D02*
X182529454Y-185607614D01*
X184172312Y-185393328D02*
X184743740Y-185393328D01*
X184386597Y-184893328D02*
X184386597Y-186179042D01*
X184386597Y-186179042D02*
X184458026Y-186321900D01*
X184458026Y-186321900D02*
X184600883Y-186393328D01*
X184600883Y-186393328D02*
X184743740Y-186393328D01*
X185815169Y-186321900D02*
X185672312Y-186393328D01*
X185672312Y-186393328D02*
X185386598Y-186393328D01*
X185386598Y-186393328D02*
X185243740Y-186321900D01*
X185243740Y-186321900D02*
X185172312Y-186179042D01*
X185172312Y-186179042D02*
X185172312Y-185607614D01*
X185172312Y-185607614D02*
X185243740Y-185464757D01*
X185243740Y-185464757D02*
X185386598Y-185393328D01*
X185386598Y-185393328D02*
X185672312Y-185393328D01*
X185672312Y-185393328D02*
X185815169Y-185464757D01*
X185815169Y-185464757D02*
X185886598Y-185607614D01*
X185886598Y-185607614D02*
X185886598Y-185750471D01*
X185886598Y-185750471D02*
X185172312Y-185893328D01*
X186458026Y-186321900D02*
X186600883Y-186393328D01*
X186600883Y-186393328D02*
X186886597Y-186393328D01*
X186886597Y-186393328D02*
X187029454Y-186321900D01*
X187029454Y-186321900D02*
X187100883Y-186179042D01*
X187100883Y-186179042D02*
X187100883Y-186107614D01*
X187100883Y-186107614D02*
X187029454Y-185964757D01*
X187029454Y-185964757D02*
X186886597Y-185893328D01*
X186886597Y-185893328D02*
X186672312Y-185893328D01*
X186672312Y-185893328D02*
X186529454Y-185821900D01*
X186529454Y-185821900D02*
X186458026Y-185679042D01*
X186458026Y-185679042D02*
X186458026Y-185607614D01*
X186458026Y-185607614D02*
X186529454Y-185464757D01*
X186529454Y-185464757D02*
X186672312Y-185393328D01*
X186672312Y-185393328D02*
X186886597Y-185393328D01*
X186886597Y-185393328D02*
X187029454Y-185464757D01*
X187958026Y-186393328D02*
X187815169Y-186321900D01*
X187815169Y-186321900D02*
X187743740Y-186179042D01*
X187743740Y-186179042D02*
X187743740Y-184893328D01*
X189172312Y-186393328D02*
X189172312Y-185607614D01*
X189172312Y-185607614D02*
X189100883Y-185464757D01*
X189100883Y-185464757D02*
X188958026Y-185393328D01*
X188958026Y-185393328D02*
X188672312Y-185393328D01*
X188672312Y-185393328D02*
X188529454Y-185464757D01*
X189172312Y-186321900D02*
X189029454Y-186393328D01*
X189029454Y-186393328D02*
X188672312Y-186393328D01*
X188672312Y-186393328D02*
X188529454Y-186321900D01*
X188529454Y-186321900D02*
X188458026Y-186179042D01*
X188458026Y-186179042D02*
X188458026Y-186036185D01*
X188458026Y-186036185D02*
X188529454Y-185893328D01*
X188529454Y-185893328D02*
X188672312Y-185821900D01*
X188672312Y-185821900D02*
X189029454Y-185821900D01*
X189029454Y-185821900D02*
X189172312Y-185750471D01*
X189529455Y-186536185D02*
X190672312Y-186536185D01*
X190958026Y-186321900D02*
X191100883Y-186393328D01*
X191100883Y-186393328D02*
X191386597Y-186393328D01*
X191386597Y-186393328D02*
X191529454Y-186321900D01*
X191529454Y-186321900D02*
X191600883Y-186179042D01*
X191600883Y-186179042D02*
X191600883Y-186107614D01*
X191600883Y-186107614D02*
X191529454Y-185964757D01*
X191529454Y-185964757D02*
X191386597Y-185893328D01*
X191386597Y-185893328D02*
X191172312Y-185893328D01*
X191172312Y-185893328D02*
X191029454Y-185821900D01*
X191029454Y-185821900D02*
X190958026Y-185679042D01*
X190958026Y-185679042D02*
X190958026Y-185607614D01*
X190958026Y-185607614D02*
X191029454Y-185464757D01*
X191029454Y-185464757D02*
X191172312Y-185393328D01*
X191172312Y-185393328D02*
X191386597Y-185393328D01*
X191386597Y-185393328D02*
X191529454Y-185464757D01*
X192243740Y-186393328D02*
X192243740Y-185393328D01*
X192243740Y-185536185D02*
X192315169Y-185464757D01*
X192315169Y-185464757D02*
X192458026Y-185393328D01*
X192458026Y-185393328D02*
X192672312Y-185393328D01*
X192672312Y-185393328D02*
X192815169Y-185464757D01*
X192815169Y-185464757D02*
X192886598Y-185607614D01*
X192886598Y-185607614D02*
X192886598Y-186393328D01*
X192886598Y-185607614D02*
X192958026Y-185464757D01*
X192958026Y-185464757D02*
X193100883Y-185393328D01*
X193100883Y-185393328D02*
X193315169Y-185393328D01*
X193315169Y-185393328D02*
X193458026Y-185464757D01*
X193458026Y-185464757D02*
X193529455Y-185607614D01*
X193529455Y-185607614D02*
X193529455Y-186393328D01*
X194243740Y-185393328D02*
X194243740Y-186893328D01*
X194243740Y-185464757D02*
X194386598Y-185393328D01*
X194386598Y-185393328D02*
X194672312Y-185393328D01*
X194672312Y-185393328D02*
X194815169Y-185464757D01*
X194815169Y-185464757D02*
X194886598Y-185536185D01*
X194886598Y-185536185D02*
X194958026Y-185679042D01*
X194958026Y-185679042D02*
X194958026Y-186107614D01*
X194958026Y-186107614D02*
X194886598Y-186250471D01*
X194886598Y-186250471D02*
X194815169Y-186321900D01*
X194815169Y-186321900D02*
X194672312Y-186393328D01*
X194672312Y-186393328D02*
X194386598Y-186393328D01*
X194386598Y-186393328D02*
X194243740Y-186321900D01*
X195529455Y-186321900D02*
X195672312Y-186393328D01*
X195672312Y-186393328D02*
X195958026Y-186393328D01*
X195958026Y-186393328D02*
X196100883Y-186321900D01*
X196100883Y-186321900D02*
X196172312Y-186179042D01*
X196172312Y-186179042D02*
X196172312Y-186107614D01*
X196172312Y-186107614D02*
X196100883Y-185964757D01*
X196100883Y-185964757D02*
X195958026Y-185893328D01*
X195958026Y-185893328D02*
X195743741Y-185893328D01*
X195743741Y-185893328D02*
X195600883Y-185821900D01*
X195600883Y-185821900D02*
X195529455Y-185679042D01*
X195529455Y-185679042D02*
X195529455Y-185607614D01*
X195529455Y-185607614D02*
X195600883Y-185464757D01*
X195600883Y-185464757D02*
X195743741Y-185393328D01*
X195743741Y-185393328D02*
X195958026Y-185393328D01*
X195958026Y-185393328D02*
X196100883Y-185464757D01*
X196815169Y-186250471D02*
X196886598Y-186321900D01*
X196886598Y-186321900D02*
X196815169Y-186393328D01*
X196815169Y-186393328D02*
X196743741Y-186321900D01*
X196743741Y-186321900D02*
X196815169Y-186250471D01*
X196815169Y-186250471D02*
X196815169Y-186393328D01*
X197529455Y-186393328D02*
X197529455Y-184893328D01*
X197672313Y-185821900D02*
X198100884Y-186393328D01*
X198100884Y-185393328D02*
X197529455Y-185964757D01*
X198743741Y-186393328D02*
X198743741Y-185393328D01*
X198743741Y-184893328D02*
X198672313Y-184964757D01*
X198672313Y-184964757D02*
X198743741Y-185036185D01*
X198743741Y-185036185D02*
X198815170Y-184964757D01*
X198815170Y-184964757D02*
X198743741Y-184893328D01*
X198743741Y-184893328D02*
X198743741Y-185036185D01*
X200100885Y-186321900D02*
X199958027Y-186393328D01*
X199958027Y-186393328D02*
X199672313Y-186393328D01*
X199672313Y-186393328D02*
X199529456Y-186321900D01*
X199529456Y-186321900D02*
X199458027Y-186250471D01*
X199458027Y-186250471D02*
X199386599Y-186107614D01*
X199386599Y-186107614D02*
X199386599Y-185679042D01*
X199386599Y-185679042D02*
X199458027Y-185536185D01*
X199458027Y-185536185D02*
X199529456Y-185464757D01*
X199529456Y-185464757D02*
X199672313Y-185393328D01*
X199672313Y-185393328D02*
X199958027Y-185393328D01*
X199958027Y-185393328D02*
X200100885Y-185464757D01*
X201386599Y-186393328D02*
X201386599Y-185607614D01*
X201386599Y-185607614D02*
X201315170Y-185464757D01*
X201315170Y-185464757D02*
X201172313Y-185393328D01*
X201172313Y-185393328D02*
X200886599Y-185393328D01*
X200886599Y-185393328D02*
X200743741Y-185464757D01*
X201386599Y-186321900D02*
X201243741Y-186393328D01*
X201243741Y-186393328D02*
X200886599Y-186393328D01*
X200886599Y-186393328D02*
X200743741Y-186321900D01*
X200743741Y-186321900D02*
X200672313Y-186179042D01*
X200672313Y-186179042D02*
X200672313Y-186036185D01*
X200672313Y-186036185D02*
X200743741Y-185893328D01*
X200743741Y-185893328D02*
X200886599Y-185821900D01*
X200886599Y-185821900D02*
X201243741Y-185821900D01*
X201243741Y-185821900D02*
X201386599Y-185750471D01*
X202743742Y-186393328D02*
X202743742Y-184893328D01*
X202743742Y-186321900D02*
X202600884Y-186393328D01*
X202600884Y-186393328D02*
X202315170Y-186393328D01*
X202315170Y-186393328D02*
X202172313Y-186321900D01*
X202172313Y-186321900D02*
X202100884Y-186250471D01*
X202100884Y-186250471D02*
X202029456Y-186107614D01*
X202029456Y-186107614D02*
X202029456Y-185679042D01*
X202029456Y-185679042D02*
X202100884Y-185536185D01*
X202100884Y-185536185D02*
X202172313Y-185464757D01*
X202172313Y-185464757D02*
X202315170Y-185393328D01*
X202315170Y-185393328D02*
X202600884Y-185393328D01*
X202600884Y-185393328D02*
X202743742Y-185464757D01*
X203100885Y-186536185D02*
X204243742Y-186536185D01*
X204600884Y-185393328D02*
X204600884Y-186893328D01*
X204600884Y-185464757D02*
X204743742Y-185393328D01*
X204743742Y-185393328D02*
X205029456Y-185393328D01*
X205029456Y-185393328D02*
X205172313Y-185464757D01*
X205172313Y-185464757D02*
X205243742Y-185536185D01*
X205243742Y-185536185D02*
X205315170Y-185679042D01*
X205315170Y-185679042D02*
X205315170Y-186107614D01*
X205315170Y-186107614D02*
X205243742Y-186250471D01*
X205243742Y-186250471D02*
X205172313Y-186321900D01*
X205172313Y-186321900D02*
X205029456Y-186393328D01*
X205029456Y-186393328D02*
X204743742Y-186393328D01*
X204743742Y-186393328D02*
X204600884Y-186321900D01*
X206600885Y-186321900D02*
X206458027Y-186393328D01*
X206458027Y-186393328D02*
X206172313Y-186393328D01*
X206172313Y-186393328D02*
X206029456Y-186321900D01*
X206029456Y-186321900D02*
X205958027Y-186250471D01*
X205958027Y-186250471D02*
X205886599Y-186107614D01*
X205886599Y-186107614D02*
X205886599Y-185679042D01*
X205886599Y-185679042D02*
X205958027Y-185536185D01*
X205958027Y-185536185D02*
X206029456Y-185464757D01*
X206029456Y-185464757D02*
X206172313Y-185393328D01*
X206172313Y-185393328D02*
X206458027Y-185393328D01*
X206458027Y-185393328D02*
X206600885Y-185464757D01*
X207243741Y-186393328D02*
X207243741Y-184893328D01*
X207243741Y-185464757D02*
X207386599Y-185393328D01*
X207386599Y-185393328D02*
X207672313Y-185393328D01*
X207672313Y-185393328D02*
X207815170Y-185464757D01*
X207815170Y-185464757D02*
X207886599Y-185536185D01*
X207886599Y-185536185D02*
X207958027Y-185679042D01*
X207958027Y-185679042D02*
X207958027Y-186107614D01*
X207958027Y-186107614D02*
X207886599Y-186250471D01*
X207886599Y-186250471D02*
X207815170Y-186321900D01*
X207815170Y-186321900D02*
X207672313Y-186393328D01*
X207672313Y-186393328D02*
X207386599Y-186393328D01*
X207386599Y-186393328D02*
X207243741Y-186321900D01*
D10*
D11*
X177002200Y-181507200D02*
X285002200Y-181507200D01*
D10*
D11*
X178386598Y-183621900D02*
X178600884Y-183693328D01*
X178600884Y-183693328D02*
X178958026Y-183693328D01*
X178958026Y-183693328D02*
X179100884Y-183621900D01*
X179100884Y-183621900D02*
X179172312Y-183550471D01*
X179172312Y-183550471D02*
X179243741Y-183407614D01*
X179243741Y-183407614D02*
X179243741Y-183264757D01*
X179243741Y-183264757D02*
X179172312Y-183121900D01*
X179172312Y-183121900D02*
X179100884Y-183050471D01*
X179100884Y-183050471D02*
X178958026Y-182979042D01*
X178958026Y-182979042D02*
X178672312Y-182907614D01*
X178672312Y-182907614D02*
X178529455Y-182836185D01*
X178529455Y-182836185D02*
X178458026Y-182764757D01*
X178458026Y-182764757D02*
X178386598Y-182621900D01*
X178386598Y-182621900D02*
X178386598Y-182479042D01*
X178386598Y-182479042D02*
X178458026Y-182336185D01*
X178458026Y-182336185D02*
X178529455Y-182264757D01*
X178529455Y-182264757D02*
X178672312Y-182193328D01*
X178672312Y-182193328D02*
X179029455Y-182193328D01*
X179029455Y-182193328D02*
X179243741Y-182264757D01*
X179886597Y-183693328D02*
X179886597Y-182193328D01*
X180529455Y-183693328D02*
X180529455Y-182907614D01*
X180529455Y-182907614D02*
X180458026Y-182764757D01*
X180458026Y-182764757D02*
X180315169Y-182693328D01*
X180315169Y-182693328D02*
X180100883Y-182693328D01*
X180100883Y-182693328D02*
X179958026Y-182764757D01*
X179958026Y-182764757D02*
X179886597Y-182836185D01*
X181815169Y-183621900D02*
X181672312Y-183693328D01*
X181672312Y-183693328D02*
X181386598Y-183693328D01*
X181386598Y-183693328D02*
X181243740Y-183621900D01*
X181243740Y-183621900D02*
X181172312Y-183479042D01*
X181172312Y-183479042D02*
X181172312Y-182907614D01*
X181172312Y-182907614D02*
X181243740Y-182764757D01*
X181243740Y-182764757D02*
X181386598Y-182693328D01*
X181386598Y-182693328D02*
X181672312Y-182693328D01*
X181672312Y-182693328D02*
X181815169Y-182764757D01*
X181815169Y-182764757D02*
X181886598Y-182907614D01*
X181886598Y-182907614D02*
X181886598Y-183050471D01*
X181886598Y-183050471D02*
X181172312Y-183193328D01*
X183100883Y-183621900D02*
X182958026Y-183693328D01*
X182958026Y-183693328D02*
X182672312Y-183693328D01*
X182672312Y-183693328D02*
X182529454Y-183621900D01*
X182529454Y-183621900D02*
X182458026Y-183479042D01*
X182458026Y-183479042D02*
X182458026Y-182907614D01*
X182458026Y-182907614D02*
X182529454Y-182764757D01*
X182529454Y-182764757D02*
X182672312Y-182693328D01*
X182672312Y-182693328D02*
X182958026Y-182693328D01*
X182958026Y-182693328D02*
X183100883Y-182764757D01*
X183100883Y-182764757D02*
X183172312Y-182907614D01*
X183172312Y-182907614D02*
X183172312Y-183050471D01*
X183172312Y-183050471D02*
X182458026Y-183193328D01*
X183600883Y-182693328D02*
X184172311Y-182693328D01*
X183815168Y-182193328D02*
X183815168Y-183479042D01*
X183815168Y-183479042D02*
X183886597Y-183621900D01*
X183886597Y-183621900D02*
X184029454Y-183693328D01*
X184029454Y-183693328D02*
X184172311Y-183693328D01*
X184672311Y-183550471D02*
X184743740Y-183621900D01*
X184743740Y-183621900D02*
X184672311Y-183693328D01*
X184672311Y-183693328D02*
X184600883Y-183621900D01*
X184600883Y-183621900D02*
X184672311Y-183550471D01*
X184672311Y-183550471D02*
X184672311Y-183693328D01*
X184672311Y-182764757D02*
X184743740Y-182836185D01*
X184743740Y-182836185D02*
X184672311Y-182907614D01*
X184672311Y-182907614D02*
X184600883Y-182836185D01*
X184600883Y-182836185D02*
X184672311Y-182764757D01*
X184672311Y-182764757D02*
X184672311Y-182907614D01*
D10*
D11*
X178386598Y-177264757D02*
X179100884Y-177264757D01*
X178243741Y-177693328D02*
X178743741Y-176193328D01*
X178743741Y-176193328D02*
X179243741Y-177693328D01*
X180386598Y-176693328D02*
X180386598Y-177693328D01*
X179743740Y-176693328D02*
X179743740Y-177479042D01*
X179743740Y-177479042D02*
X179815169Y-177621900D01*
X179815169Y-177621900D02*
X179958026Y-177693328D01*
X179958026Y-177693328D02*
X180172312Y-177693328D01*
X180172312Y-177693328D02*
X180315169Y-177621900D01*
X180315169Y-177621900D02*
X180386598Y-177550471D01*
X180886598Y-176693328D02*
X181458026Y-176693328D01*
X181100883Y-176193328D02*
X181100883Y-177479042D01*
X181100883Y-177479042D02*
X181172312Y-177621900D01*
X181172312Y-177621900D02*
X181315169Y-177693328D01*
X181315169Y-177693328D02*
X181458026Y-177693328D01*
X181958026Y-177693328D02*
X181958026Y-176193328D01*
X182600884Y-177693328D02*
X182600884Y-176907614D01*
X182600884Y-176907614D02*
X182529455Y-176764757D01*
X182529455Y-176764757D02*
X182386598Y-176693328D01*
X182386598Y-176693328D02*
X182172312Y-176693328D01*
X182172312Y-176693328D02*
X182029455Y-176764757D01*
X182029455Y-176764757D02*
X181958026Y-176836185D01*
X183529455Y-177693328D02*
X183386598Y-177621900D01*
X183386598Y-177621900D02*
X183315169Y-177550471D01*
X183315169Y-177550471D02*
X183243741Y-177407614D01*
X183243741Y-177407614D02*
X183243741Y-176979042D01*
X183243741Y-176979042D02*
X183315169Y-176836185D01*
X183315169Y-176836185D02*
X183386598Y-176764757D01*
X183386598Y-176764757D02*
X183529455Y-176693328D01*
X183529455Y-176693328D02*
X183743741Y-176693328D01*
X183743741Y-176693328D02*
X183886598Y-176764757D01*
X183886598Y-176764757D02*
X183958027Y-176836185D01*
X183958027Y-176836185D02*
X184029455Y-176979042D01*
X184029455Y-176979042D02*
X184029455Y-177407614D01*
X184029455Y-177407614D02*
X183958027Y-177550471D01*
X183958027Y-177550471D02*
X183886598Y-177621900D01*
X183886598Y-177621900D02*
X183743741Y-177693328D01*
X183743741Y-177693328D02*
X183529455Y-177693328D01*
X184672312Y-177693328D02*
X184672312Y-176693328D01*
X184672312Y-176979042D02*
X184743741Y-176836185D01*
X184743741Y-176836185D02*
X184815170Y-176764757D01*
X184815170Y-176764757D02*
X184958027Y-176693328D01*
X184958027Y-176693328D02*
X185100884Y-176693328D01*
X185600883Y-177550471D02*
X185672312Y-177621900D01*
X185672312Y-177621900D02*
X185600883Y-177693328D01*
X185600883Y-177693328D02*
X185529455Y-177621900D01*
X185529455Y-177621900D02*
X185600883Y-177550471D01*
X185600883Y-177550471D02*
X185600883Y-177693328D01*
X185600883Y-176764757D02*
X185672312Y-176836185D01*
X185672312Y-176836185D02*
X185600883Y-176907614D01*
X185600883Y-176907614D02*
X185529455Y-176836185D01*
X185529455Y-176836185D02*
X185600883Y-176764757D01*
X185600883Y-176764757D02*
X185600883Y-176907614D01*
X187958026Y-176907614D02*
X187458026Y-176907614D01*
X187458026Y-177693328D02*
X187458026Y-176193328D01*
X187458026Y-176193328D02*
X188172312Y-176193328D01*
X189386598Y-177693328D02*
X189386598Y-176907614D01*
X189386598Y-176907614D02*
X189315169Y-176764757D01*
X189315169Y-176764757D02*
X189172312Y-176693328D01*
X189172312Y-176693328D02*
X188886598Y-176693328D01*
X188886598Y-176693328D02*
X188743740Y-176764757D01*
X189386598Y-177621900D02*
X189243740Y-177693328D01*
X189243740Y-177693328D02*
X188886598Y-177693328D01*
X188886598Y-177693328D02*
X188743740Y-177621900D01*
X188743740Y-177621900D02*
X188672312Y-177479042D01*
X188672312Y-177479042D02*
X188672312Y-177336185D01*
X188672312Y-177336185D02*
X188743740Y-177193328D01*
X188743740Y-177193328D02*
X188886598Y-177121900D01*
X188886598Y-177121900D02*
X189243740Y-177121900D01*
X189243740Y-177121900D02*
X189386598Y-177050471D01*
X189172312Y-176121900D02*
X188958026Y-176336185D01*
X190100883Y-177693328D02*
X190100883Y-176193328D01*
X190100883Y-176764757D02*
X190243741Y-176693328D01*
X190243741Y-176693328D02*
X190529455Y-176693328D01*
X190529455Y-176693328D02*
X190672312Y-176764757D01*
X190672312Y-176764757D02*
X190743741Y-176836185D01*
X190743741Y-176836185D02*
X190815169Y-176979042D01*
X190815169Y-176979042D02*
X190815169Y-177407614D01*
X190815169Y-177407614D02*
X190743741Y-177550471D01*
X190743741Y-177550471D02*
X190672312Y-177621900D01*
X190672312Y-177621900D02*
X190529455Y-177693328D01*
X190529455Y-177693328D02*
X190243741Y-177693328D01*
X190243741Y-177693328D02*
X190100883Y-177621900D01*
X191458026Y-177693328D02*
X191458026Y-176693328D01*
X191458026Y-176193328D02*
X191386598Y-176264757D01*
X191386598Y-176264757D02*
X191458026Y-176336185D01*
X191458026Y-176336185D02*
X191529455Y-176264757D01*
X191529455Y-176264757D02*
X191458026Y-176193328D01*
X191458026Y-176193328D02*
X191458026Y-176336185D01*
X192386598Y-177693328D02*
X192243741Y-177621900D01*
X192243741Y-177621900D02*
X192172312Y-177550471D01*
X192172312Y-177550471D02*
X192100884Y-177407614D01*
X192100884Y-177407614D02*
X192100884Y-176979042D01*
X192100884Y-176979042D02*
X192172312Y-176836185D01*
X192172312Y-176836185D02*
X192243741Y-176764757D01*
X192243741Y-176764757D02*
X192386598Y-176693328D01*
X192386598Y-176693328D02*
X192600884Y-176693328D01*
X192600884Y-176693328D02*
X192743741Y-176764757D01*
X192743741Y-176764757D02*
X192815170Y-176836185D01*
X192815170Y-176836185D02*
X192886598Y-176979042D01*
X192886598Y-176979042D02*
X192886598Y-177407614D01*
X192886598Y-177407614D02*
X192815170Y-177550471D01*
X192815170Y-177550471D02*
X192743741Y-177621900D01*
X192743741Y-177621900D02*
X192600884Y-177693328D01*
X192600884Y-177693328D02*
X192386598Y-177693328D01*
X194672312Y-177693328D02*
X194672312Y-176193328D01*
X194672312Y-176193328D02*
X195243741Y-176193328D01*
X195243741Y-176193328D02*
X195386598Y-176264757D01*
X195386598Y-176264757D02*
X195458027Y-176336185D01*
X195458027Y-176336185D02*
X195529455Y-176479042D01*
X195529455Y-176479042D02*
X195529455Y-176693328D01*
X195529455Y-176693328D02*
X195458027Y-176836185D01*
X195458027Y-176836185D02*
X195386598Y-176907614D01*
X195386598Y-176907614D02*
X195243741Y-176979042D01*
X195243741Y-176979042D02*
X194672312Y-176979042D01*
X196743741Y-177621900D02*
X196600884Y-177693328D01*
X196600884Y-177693328D02*
X196315170Y-177693328D01*
X196315170Y-177693328D02*
X196172312Y-177621900D01*
X196172312Y-177621900D02*
X196100884Y-177479042D01*
X196100884Y-177479042D02*
X196100884Y-176907614D01*
X196100884Y-176907614D02*
X196172312Y-176764757D01*
X196172312Y-176764757D02*
X196315170Y-176693328D01*
X196315170Y-176693328D02*
X196600884Y-176693328D01*
X196600884Y-176693328D02*
X196743741Y-176764757D01*
X196743741Y-176764757D02*
X196815170Y-176907614D01*
X196815170Y-176907614D02*
X196815170Y-177050471D01*
X196815170Y-177050471D02*
X196100884Y-177193328D01*
X197458026Y-177693328D02*
X197458026Y-176693328D01*
X197458026Y-176979042D02*
X197529455Y-176836185D01*
X197529455Y-176836185D02*
X197600884Y-176764757D01*
X197600884Y-176764757D02*
X197743741Y-176693328D01*
X197743741Y-176693328D02*
X197886598Y-176693328D01*
X198958026Y-177621900D02*
X198815169Y-177693328D01*
X198815169Y-177693328D02*
X198529455Y-177693328D01*
X198529455Y-177693328D02*
X198386597Y-177621900D01*
X198386597Y-177621900D02*
X198315169Y-177479042D01*
X198315169Y-177479042D02*
X198315169Y-176907614D01*
X198315169Y-176907614D02*
X198386597Y-176764757D01*
X198386597Y-176764757D02*
X198529455Y-176693328D01*
X198529455Y-176693328D02*
X198815169Y-176693328D01*
X198815169Y-176693328D02*
X198958026Y-176764757D01*
X198958026Y-176764757D02*
X199029455Y-176907614D01*
X199029455Y-176907614D02*
X199029455Y-177050471D01*
X199029455Y-177050471D02*
X198315169Y-177193328D01*
X199672311Y-177693328D02*
X199672311Y-176693328D01*
X199672311Y-176193328D02*
X199600883Y-176264757D01*
X199600883Y-176264757D02*
X199672311Y-176336185D01*
X199672311Y-176336185D02*
X199743740Y-176264757D01*
X199743740Y-176264757D02*
X199672311Y-176193328D01*
X199672311Y-176193328D02*
X199672311Y-176336185D01*
X200386597Y-177693328D02*
X200386597Y-176693328D01*
X200386597Y-176979042D02*
X200458026Y-176836185D01*
X200458026Y-176836185D02*
X200529455Y-176764757D01*
X200529455Y-176764757D02*
X200672312Y-176693328D01*
X200672312Y-176693328D02*
X200815169Y-176693328D01*
X201958026Y-177693328D02*
X201958026Y-176907614D01*
X201958026Y-176907614D02*
X201886597Y-176764757D01*
X201886597Y-176764757D02*
X201743740Y-176693328D01*
X201743740Y-176693328D02*
X201458026Y-176693328D01*
X201458026Y-176693328D02*
X201315168Y-176764757D01*
X201958026Y-177621900D02*
X201815168Y-177693328D01*
X201815168Y-177693328D02*
X201458026Y-177693328D01*
X201458026Y-177693328D02*
X201315168Y-177621900D01*
X201315168Y-177621900D02*
X201243740Y-177479042D01*
X201243740Y-177479042D02*
X201243740Y-177336185D01*
X201243740Y-177336185D02*
X201315168Y-177193328D01*
X201315168Y-177193328D02*
X201458026Y-177121900D01*
X201458026Y-177121900D02*
X201815168Y-177121900D01*
X201815168Y-177121900D02*
X201958026Y-177050471D01*
X204458026Y-177693328D02*
X204458026Y-176193328D01*
X204458026Y-177621900D02*
X204315168Y-177693328D01*
X204315168Y-177693328D02*
X204029454Y-177693328D01*
X204029454Y-177693328D02*
X203886597Y-177621900D01*
X203886597Y-177621900D02*
X203815168Y-177550471D01*
X203815168Y-177550471D02*
X203743740Y-177407614D01*
X203743740Y-177407614D02*
X203743740Y-176979042D01*
X203743740Y-176979042D02*
X203815168Y-176836185D01*
X203815168Y-176836185D02*
X203886597Y-176764757D01*
X203886597Y-176764757D02*
X204029454Y-176693328D01*
X204029454Y-176693328D02*
X204315168Y-176693328D01*
X204315168Y-176693328D02*
X204458026Y-176764757D01*
X205815169Y-177693328D02*
X205815169Y-176907614D01*
X205815169Y-176907614D02*
X205743740Y-176764757D01*
X205743740Y-176764757D02*
X205600883Y-176693328D01*
X205600883Y-176693328D02*
X205315169Y-176693328D01*
X205315169Y-176693328D02*
X205172311Y-176764757D01*
X205815169Y-177621900D02*
X205672311Y-177693328D01*
X205672311Y-177693328D02*
X205315169Y-177693328D01*
X205315169Y-177693328D02*
X205172311Y-177621900D01*
X205172311Y-177621900D02*
X205100883Y-177479042D01*
X205100883Y-177479042D02*
X205100883Y-177336185D01*
X205100883Y-177336185D02*
X205172311Y-177193328D01*
X205172311Y-177193328D02*
X205315169Y-177121900D01*
X205315169Y-177121900D02*
X205672311Y-177121900D01*
X205672311Y-177121900D02*
X205815169Y-177050471D01*
X207600883Y-177621900D02*
X207815169Y-177693328D01*
X207815169Y-177693328D02*
X208172311Y-177693328D01*
X208172311Y-177693328D02*
X208315169Y-177621900D01*
X208315169Y-177621900D02*
X208386597Y-177550471D01*
X208386597Y-177550471D02*
X208458026Y-177407614D01*
X208458026Y-177407614D02*
X208458026Y-177264757D01*
X208458026Y-177264757D02*
X208386597Y-177121900D01*
X208386597Y-177121900D02*
X208315169Y-177050471D01*
X208315169Y-177050471D02*
X208172311Y-176979042D01*
X208172311Y-176979042D02*
X207886597Y-176907614D01*
X207886597Y-176907614D02*
X207743740Y-176836185D01*
X207743740Y-176836185D02*
X207672311Y-176764757D01*
X207672311Y-176764757D02*
X207600883Y-176621900D01*
X207600883Y-176621900D02*
X207600883Y-176479042D01*
X207600883Y-176479042D02*
X207672311Y-176336185D01*
X207672311Y-176336185D02*
X207743740Y-176264757D01*
X207743740Y-176264757D02*
X207886597Y-176193328D01*
X207886597Y-176193328D02*
X208243740Y-176193328D01*
X208243740Y-176193328D02*
X208458026Y-176264757D01*
X209100882Y-177693328D02*
X209100882Y-176693328D01*
X209100882Y-176193328D02*
X209029454Y-176264757D01*
X209029454Y-176264757D02*
X209100882Y-176336185D01*
X209100882Y-176336185D02*
X209172311Y-176264757D01*
X209172311Y-176264757D02*
X209100882Y-176193328D01*
X209100882Y-176193328D02*
X209100882Y-176336185D01*
X210029454Y-177693328D02*
X209886597Y-177621900D01*
X209886597Y-177621900D02*
X209815168Y-177479042D01*
X209815168Y-177479042D02*
X209815168Y-176193328D01*
X210458025Y-176693328D02*
X210815168Y-177693328D01*
X210815168Y-177693328D02*
X211172311Y-176693328D01*
X212386597Y-177693328D02*
X212386597Y-176907614D01*
X212386597Y-176907614D02*
X212315168Y-176764757D01*
X212315168Y-176764757D02*
X212172311Y-176693328D01*
X212172311Y-176693328D02*
X211886597Y-176693328D01*
X211886597Y-176693328D02*
X211743739Y-176764757D01*
X212386597Y-177621900D02*
X212243739Y-177693328D01*
X212243739Y-177693328D02*
X211886597Y-177693328D01*
X211886597Y-177693328D02*
X211743739Y-177621900D01*
X211743739Y-177621900D02*
X211672311Y-177479042D01*
X211672311Y-177479042D02*
X211672311Y-177336185D01*
X211672311Y-177336185D02*
X211743739Y-177193328D01*
X211743739Y-177193328D02*
X211886597Y-177121900D01*
X211886597Y-177121900D02*
X212243739Y-177121900D01*
X212243739Y-177121900D02*
X212386597Y-177050471D01*
D10*
D11*
X178243741Y-173193328D02*
X179100884Y-173193328D01*
X178672312Y-174693328D02*
X178672312Y-173193328D01*
X179600883Y-174693328D02*
X179600883Y-173693328D01*
X179600883Y-173193328D02*
X179529455Y-173264757D01*
X179529455Y-173264757D02*
X179600883Y-173336185D01*
X179600883Y-173336185D02*
X179672312Y-173264757D01*
X179672312Y-173264757D02*
X179600883Y-173193328D01*
X179600883Y-173193328D02*
X179600883Y-173336185D01*
X180100884Y-173693328D02*
X180672312Y-173693328D01*
X180315169Y-173193328D02*
X180315169Y-174479042D01*
X180315169Y-174479042D02*
X180386598Y-174621900D01*
X180386598Y-174621900D02*
X180529455Y-174693328D01*
X180529455Y-174693328D02*
X180672312Y-174693328D01*
X181386598Y-174693328D02*
X181243741Y-174621900D01*
X181243741Y-174621900D02*
X181172312Y-174479042D01*
X181172312Y-174479042D02*
X181172312Y-173193328D01*
X182529455Y-174621900D02*
X182386598Y-174693328D01*
X182386598Y-174693328D02*
X182100884Y-174693328D01*
X182100884Y-174693328D02*
X181958026Y-174621900D01*
X181958026Y-174621900D02*
X181886598Y-174479042D01*
X181886598Y-174479042D02*
X181886598Y-173907614D01*
X181886598Y-173907614D02*
X181958026Y-173764757D01*
X181958026Y-173764757D02*
X182100884Y-173693328D01*
X182100884Y-173693328D02*
X182386598Y-173693328D01*
X182386598Y-173693328D02*
X182529455Y-173764757D01*
X182529455Y-173764757D02*
X182600884Y-173907614D01*
X182600884Y-173907614D02*
X182600884Y-174050471D01*
X182600884Y-174050471D02*
X181886598Y-174193328D01*
X183243740Y-174550471D02*
X183315169Y-174621900D01*
X183315169Y-174621900D02*
X183243740Y-174693328D01*
X183243740Y-174693328D02*
X183172312Y-174621900D01*
X183172312Y-174621900D02*
X183243740Y-174550471D01*
X183243740Y-174550471D02*
X183243740Y-174693328D01*
X183243740Y-173764757D02*
X183315169Y-173836185D01*
X183315169Y-173836185D02*
X183243740Y-173907614D01*
X183243740Y-173907614D02*
X183172312Y-173836185D01*
X183172312Y-173836185D02*
X183243740Y-173764757D01*
X183243740Y-173764757D02*
X183243740Y-173907614D01*
X185029455Y-174264757D02*
X185743741Y-174264757D01*
X184886598Y-174693328D02*
X185386598Y-173193328D01*
X185386598Y-173193328D02*
X185886598Y-174693328D01*
X187529454Y-174693328D02*
X187529454Y-173193328D01*
X187529454Y-173193328D02*
X187886597Y-173193328D01*
X187886597Y-173193328D02*
X188100883Y-173264757D01*
X188100883Y-173264757D02*
X188243740Y-173407614D01*
X188243740Y-173407614D02*
X188315169Y-173550471D01*
X188315169Y-173550471D02*
X188386597Y-173836185D01*
X188386597Y-173836185D02*
X188386597Y-174050471D01*
X188386597Y-174050471D02*
X188315169Y-174336185D01*
X188315169Y-174336185D02*
X188243740Y-174479042D01*
X188243740Y-174479042D02*
X188100883Y-174621900D01*
X188100883Y-174621900D02*
X187886597Y-174693328D01*
X187886597Y-174693328D02*
X187529454Y-174693328D01*
X189029454Y-174693328D02*
X189029454Y-173193328D01*
X190029455Y-173979042D02*
X190029455Y-174693328D01*
X189529455Y-173193328D02*
X190029455Y-173979042D01*
X190029455Y-173979042D02*
X190529455Y-173193328D01*
X192029454Y-173693328D02*
X192315169Y-174693328D01*
X192315169Y-174693328D02*
X192600883Y-173979042D01*
X192600883Y-173979042D02*
X192886597Y-174693328D01*
X192886597Y-174693328D02*
X193172311Y-173693328D01*
X193743740Y-174693328D02*
X193743740Y-173693328D01*
X193743740Y-173193328D02*
X193672312Y-173264757D01*
X193672312Y-173264757D02*
X193743740Y-173336185D01*
X193743740Y-173336185D02*
X193815169Y-173264757D01*
X193815169Y-173264757D02*
X193743740Y-173193328D01*
X193743740Y-173193328D02*
X193743740Y-173336185D01*
X195100884Y-174693328D02*
X195100884Y-173193328D01*
X195100884Y-174621900D02*
X194958026Y-174693328D01*
X194958026Y-174693328D02*
X194672312Y-174693328D01*
X194672312Y-174693328D02*
X194529455Y-174621900D01*
X194529455Y-174621900D02*
X194458026Y-174550471D01*
X194458026Y-174550471D02*
X194386598Y-174407614D01*
X194386598Y-174407614D02*
X194386598Y-173979042D01*
X194386598Y-173979042D02*
X194458026Y-173836185D01*
X194458026Y-173836185D02*
X194529455Y-173764757D01*
X194529455Y-173764757D02*
X194672312Y-173693328D01*
X194672312Y-173693328D02*
X194958026Y-173693328D01*
X194958026Y-173693328D02*
X195100884Y-173764757D01*
X196386598Y-174621900D02*
X196243741Y-174693328D01*
X196243741Y-174693328D02*
X195958027Y-174693328D01*
X195958027Y-174693328D02*
X195815169Y-174621900D01*
X195815169Y-174621900D02*
X195743741Y-174479042D01*
X195743741Y-174479042D02*
X195743741Y-173907614D01*
X195743741Y-173907614D02*
X195815169Y-173764757D01*
X195815169Y-173764757D02*
X195958027Y-173693328D01*
X195958027Y-173693328D02*
X196243741Y-173693328D01*
X196243741Y-173693328D02*
X196386598Y-173764757D01*
X196386598Y-173764757D02*
X196458027Y-173907614D01*
X196458027Y-173907614D02*
X196458027Y-174050471D01*
X196458027Y-174050471D02*
X195743741Y-174193328D01*
X198243740Y-174693328D02*
X198243740Y-173693328D01*
X198243740Y-173979042D02*
X198315169Y-173836185D01*
X198315169Y-173836185D02*
X198386598Y-173764757D01*
X198386598Y-173764757D02*
X198529455Y-173693328D01*
X198529455Y-173693328D02*
X198672312Y-173693328D01*
X199815169Y-174693328D02*
X199815169Y-173907614D01*
X199815169Y-173907614D02*
X199743740Y-173764757D01*
X199743740Y-173764757D02*
X199600883Y-173693328D01*
X199600883Y-173693328D02*
X199315169Y-173693328D01*
X199315169Y-173693328D02*
X199172311Y-173764757D01*
X199815169Y-174621900D02*
X199672311Y-174693328D01*
X199672311Y-174693328D02*
X199315169Y-174693328D01*
X199315169Y-174693328D02*
X199172311Y-174621900D01*
X199172311Y-174621900D02*
X199100883Y-174479042D01*
X199100883Y-174479042D02*
X199100883Y-174336185D01*
X199100883Y-174336185D02*
X199172311Y-174193328D01*
X199172311Y-174193328D02*
X199315169Y-174121900D01*
X199315169Y-174121900D02*
X199672311Y-174121900D01*
X199672311Y-174121900D02*
X199815169Y-174050471D01*
X200529454Y-173693328D02*
X200529454Y-174693328D01*
X200529454Y-173836185D02*
X200600883Y-173764757D01*
X200600883Y-173764757D02*
X200743740Y-173693328D01*
X200743740Y-173693328D02*
X200958026Y-173693328D01*
X200958026Y-173693328D02*
X201100883Y-173764757D01*
X201100883Y-173764757D02*
X201172312Y-173907614D01*
X201172312Y-173907614D02*
X201172312Y-174693328D01*
X202529455Y-173693328D02*
X202529455Y-174907614D01*
X202529455Y-174907614D02*
X202458026Y-175050471D01*
X202458026Y-175050471D02*
X202386597Y-175121900D01*
X202386597Y-175121900D02*
X202243740Y-175193328D01*
X202243740Y-175193328D02*
X202029455Y-175193328D01*
X202029455Y-175193328D02*
X201886597Y-175121900D01*
X202529455Y-174621900D02*
X202386597Y-174693328D01*
X202386597Y-174693328D02*
X202100883Y-174693328D01*
X202100883Y-174693328D02*
X201958026Y-174621900D01*
X201958026Y-174621900D02*
X201886597Y-174550471D01*
X201886597Y-174550471D02*
X201815169Y-174407614D01*
X201815169Y-174407614D02*
X201815169Y-173979042D01*
X201815169Y-173979042D02*
X201886597Y-173836185D01*
X201886597Y-173836185D02*
X201958026Y-173764757D01*
X201958026Y-173764757D02*
X202100883Y-173693328D01*
X202100883Y-173693328D02*
X202386597Y-173693328D01*
X202386597Y-173693328D02*
X202529455Y-173764757D01*
X203815169Y-174621900D02*
X203672312Y-174693328D01*
X203672312Y-174693328D02*
X203386598Y-174693328D01*
X203386598Y-174693328D02*
X203243740Y-174621900D01*
X203243740Y-174621900D02*
X203172312Y-174479042D01*
X203172312Y-174479042D02*
X203172312Y-173907614D01*
X203172312Y-173907614D02*
X203243740Y-173764757D01*
X203243740Y-173764757D02*
X203386598Y-173693328D01*
X203386598Y-173693328D02*
X203672312Y-173693328D01*
X203672312Y-173693328D02*
X203815169Y-173764757D01*
X203815169Y-173764757D02*
X203886598Y-173907614D01*
X203886598Y-173907614D02*
X203886598Y-174050471D01*
X203886598Y-174050471D02*
X203172312Y-174193328D01*
X205600883Y-174621900D02*
X205815169Y-174693328D01*
X205815169Y-174693328D02*
X206172311Y-174693328D01*
X206172311Y-174693328D02*
X206315169Y-174621900D01*
X206315169Y-174621900D02*
X206386597Y-174550471D01*
X206386597Y-174550471D02*
X206458026Y-174407614D01*
X206458026Y-174407614D02*
X206458026Y-174264757D01*
X206458026Y-174264757D02*
X206386597Y-174121900D01*
X206386597Y-174121900D02*
X206315169Y-174050471D01*
X206315169Y-174050471D02*
X206172311Y-173979042D01*
X206172311Y-173979042D02*
X205886597Y-173907614D01*
X205886597Y-173907614D02*
X205743740Y-173836185D01*
X205743740Y-173836185D02*
X205672311Y-173764757D01*
X205672311Y-173764757D02*
X205600883Y-173621900D01*
X205600883Y-173621900D02*
X205600883Y-173479042D01*
X205600883Y-173479042D02*
X205672311Y-173336185D01*
X205672311Y-173336185D02*
X205743740Y-173264757D01*
X205743740Y-173264757D02*
X205886597Y-173193328D01*
X205886597Y-173193328D02*
X206243740Y-173193328D01*
X206243740Y-173193328D02*
X206458026Y-173264757D01*
X207100882Y-174693328D02*
X207100882Y-173193328D01*
X207100882Y-173193328D02*
X207600882Y-174264757D01*
X207600882Y-174264757D02*
X208100882Y-173193328D01*
X208100882Y-173193328D02*
X208100882Y-174693328D01*
X208815168Y-174693328D02*
X208815168Y-173193328D01*
X208815168Y-173193328D02*
X209386597Y-173193328D01*
X209386597Y-173193328D02*
X209529454Y-173264757D01*
X209529454Y-173264757D02*
X209600883Y-173336185D01*
X209600883Y-173336185D02*
X209672311Y-173479042D01*
X209672311Y-173479042D02*
X209672311Y-173693328D01*
X209672311Y-173693328D02*
X209600883Y-173836185D01*
X209600883Y-173836185D02*
X209529454Y-173907614D01*
X209529454Y-173907614D02*
X209386597Y-173979042D01*
X209386597Y-173979042D02*
X208815168Y-173979042D01*
X210243740Y-174621900D02*
X210458026Y-174693328D01*
X210458026Y-174693328D02*
X210815168Y-174693328D01*
X210815168Y-174693328D02*
X210958026Y-174621900D01*
X210958026Y-174621900D02*
X211029454Y-174550471D01*
X211029454Y-174550471D02*
X211100883Y-174407614D01*
X211100883Y-174407614D02*
X211100883Y-174264757D01*
X211100883Y-174264757D02*
X211029454Y-174121900D01*
X211029454Y-174121900D02*
X210958026Y-174050471D01*
X210958026Y-174050471D02*
X210815168Y-173979042D01*
X210815168Y-173979042D02*
X210529454Y-173907614D01*
X210529454Y-173907614D02*
X210386597Y-173836185D01*
X210386597Y-173836185D02*
X210315168Y-173764757D01*
X210315168Y-173764757D02*
X210243740Y-173621900D01*
X210243740Y-173621900D02*
X210243740Y-173479042D01*
X210243740Y-173479042D02*
X210315168Y-173336185D01*
X210315168Y-173336185D02*
X210386597Y-173264757D01*
X210386597Y-173264757D02*
X210529454Y-173193328D01*
X210529454Y-173193328D02*
X210886597Y-173193328D01*
X210886597Y-173193328D02*
X211100883Y-173264757D01*
X212672311Y-173693328D02*
X213243739Y-173693328D01*
X212886596Y-174693328D02*
X212886596Y-173407614D01*
X212886596Y-173407614D02*
X212958025Y-173264757D01*
X212958025Y-173264757D02*
X213100882Y-173193328D01*
X213100882Y-173193328D02*
X213243739Y-173193328D01*
X213958025Y-174693328D02*
X213815168Y-174621900D01*
X213815168Y-174621900D02*
X213743739Y-174550471D01*
X213743739Y-174550471D02*
X213672311Y-174407614D01*
X213672311Y-174407614D02*
X213672311Y-173979042D01*
X213672311Y-173979042D02*
X213743739Y-173836185D01*
X213743739Y-173836185D02*
X213815168Y-173764757D01*
X213815168Y-173764757D02*
X213958025Y-173693328D01*
X213958025Y-173693328D02*
X214172311Y-173693328D01*
X214172311Y-173693328D02*
X214315168Y-173764757D01*
X214315168Y-173764757D02*
X214386597Y-173836185D01*
X214386597Y-173836185D02*
X214458025Y-173979042D01*
X214458025Y-173979042D02*
X214458025Y-174407614D01*
X214458025Y-174407614D02*
X214386597Y-174550471D01*
X214386597Y-174550471D02*
X214315168Y-174621900D01*
X214315168Y-174621900D02*
X214172311Y-174693328D01*
X214172311Y-174693328D02*
X213958025Y-174693328D01*
X215100882Y-174693328D02*
X215100882Y-173693328D01*
X215100882Y-173979042D02*
X215172311Y-173836185D01*
X215172311Y-173836185D02*
X215243740Y-173764757D01*
X215243740Y-173764757D02*
X215386597Y-173693328D01*
X215386597Y-173693328D02*
X215529454Y-173693328D01*
X217386596Y-174693328D02*
X217243739Y-174621900D01*
X217243739Y-174621900D02*
X217172310Y-174479042D01*
X217172310Y-174479042D02*
X217172310Y-173193328D01*
X218172310Y-174693328D02*
X218029453Y-174621900D01*
X218029453Y-174621900D02*
X217958024Y-174550471D01*
X217958024Y-174550471D02*
X217886596Y-174407614D01*
X217886596Y-174407614D02*
X217886596Y-173979042D01*
X217886596Y-173979042D02*
X217958024Y-173836185D01*
X217958024Y-173836185D02*
X218029453Y-173764757D01*
X218029453Y-173764757D02*
X218172310Y-173693328D01*
X218172310Y-173693328D02*
X218386596Y-173693328D01*
X218386596Y-173693328D02*
X218529453Y-173764757D01*
X218529453Y-173764757D02*
X218600882Y-173836185D01*
X218600882Y-173836185D02*
X218672310Y-173979042D01*
X218672310Y-173979042D02*
X218672310Y-174407614D01*
X218672310Y-174407614D02*
X218600882Y-174550471D01*
X218600882Y-174550471D02*
X218529453Y-174621900D01*
X218529453Y-174621900D02*
X218386596Y-174693328D01*
X218386596Y-174693328D02*
X218172310Y-174693328D01*
X219172310Y-173693328D02*
X219458025Y-174693328D01*
X219458025Y-174693328D02*
X219743739Y-173979042D01*
X219743739Y-173979042D02*
X220029453Y-174693328D01*
X220029453Y-174693328D02*
X220315167Y-173693328D01*
X222029453Y-173693328D02*
X222029453Y-175193328D01*
X222029453Y-173764757D02*
X222172311Y-173693328D01*
X222172311Y-173693328D02*
X222458025Y-173693328D01*
X222458025Y-173693328D02*
X222600882Y-173764757D01*
X222600882Y-173764757D02*
X222672311Y-173836185D01*
X222672311Y-173836185D02*
X222743739Y-173979042D01*
X222743739Y-173979042D02*
X222743739Y-174407614D01*
X222743739Y-174407614D02*
X222672311Y-174550471D01*
X222672311Y-174550471D02*
X222600882Y-174621900D01*
X222600882Y-174621900D02*
X222458025Y-174693328D01*
X222458025Y-174693328D02*
X222172311Y-174693328D01*
X222172311Y-174693328D02*
X222029453Y-174621900D01*
X223600882Y-174693328D02*
X223458025Y-174621900D01*
X223458025Y-174621900D02*
X223386596Y-174550471D01*
X223386596Y-174550471D02*
X223315168Y-174407614D01*
X223315168Y-174407614D02*
X223315168Y-173979042D01*
X223315168Y-173979042D02*
X223386596Y-173836185D01*
X223386596Y-173836185D02*
X223458025Y-173764757D01*
X223458025Y-173764757D02*
X223600882Y-173693328D01*
X223600882Y-173693328D02*
X223815168Y-173693328D01*
X223815168Y-173693328D02*
X223958025Y-173764757D01*
X223958025Y-173764757D02*
X224029454Y-173836185D01*
X224029454Y-173836185D02*
X224100882Y-173979042D01*
X224100882Y-173979042D02*
X224100882Y-174407614D01*
X224100882Y-174407614D02*
X224029454Y-174550471D01*
X224029454Y-174550471D02*
X223958025Y-174621900D01*
X223958025Y-174621900D02*
X223815168Y-174693328D01*
X223815168Y-174693328D02*
X223600882Y-174693328D01*
X224600882Y-173693328D02*
X224886597Y-174693328D01*
X224886597Y-174693328D02*
X225172311Y-173979042D01*
X225172311Y-173979042D02*
X225458025Y-174693328D01*
X225458025Y-174693328D02*
X225743739Y-173693328D01*
X226886597Y-174621900D02*
X226743740Y-174693328D01*
X226743740Y-174693328D02*
X226458026Y-174693328D01*
X226458026Y-174693328D02*
X226315168Y-174621900D01*
X226315168Y-174621900D02*
X226243740Y-174479042D01*
X226243740Y-174479042D02*
X226243740Y-173907614D01*
X226243740Y-173907614D02*
X226315168Y-173764757D01*
X226315168Y-173764757D02*
X226458026Y-173693328D01*
X226458026Y-173693328D02*
X226743740Y-173693328D01*
X226743740Y-173693328D02*
X226886597Y-173764757D01*
X226886597Y-173764757D02*
X226958026Y-173907614D01*
X226958026Y-173907614D02*
X226958026Y-174050471D01*
X226958026Y-174050471D02*
X226243740Y-174193328D01*
X227600882Y-174693328D02*
X227600882Y-173693328D01*
X227600882Y-173979042D02*
X227672311Y-173836185D01*
X227672311Y-173836185D02*
X227743740Y-173764757D01*
X227743740Y-173764757D02*
X227886597Y-173693328D01*
X227886597Y-173693328D02*
X228029454Y-173693328D01*
X230243739Y-174621900D02*
X230100882Y-174693328D01*
X230100882Y-174693328D02*
X229815168Y-174693328D01*
X229815168Y-174693328D02*
X229672310Y-174621900D01*
X229672310Y-174621900D02*
X229600882Y-174479042D01*
X229600882Y-174479042D02*
X229600882Y-173907614D01*
X229600882Y-173907614D02*
X229672310Y-173764757D01*
X229672310Y-173764757D02*
X229815168Y-173693328D01*
X229815168Y-173693328D02*
X230100882Y-173693328D01*
X230100882Y-173693328D02*
X230243739Y-173764757D01*
X230243739Y-173764757D02*
X230315168Y-173907614D01*
X230315168Y-173907614D02*
X230315168Y-174050471D01*
X230315168Y-174050471D02*
X229600882Y-174193328D01*
X230958024Y-174693328D02*
X230958024Y-173693328D01*
X230958024Y-173836185D02*
X231029453Y-173764757D01*
X231029453Y-173764757D02*
X231172310Y-173693328D01*
X231172310Y-173693328D02*
X231386596Y-173693328D01*
X231386596Y-173693328D02*
X231529453Y-173764757D01*
X231529453Y-173764757D02*
X231600882Y-173907614D01*
X231600882Y-173907614D02*
X231600882Y-174693328D01*
X231600882Y-173907614D02*
X231672310Y-173764757D01*
X231672310Y-173764757D02*
X231815167Y-173693328D01*
X231815167Y-173693328D02*
X232029453Y-173693328D01*
X232029453Y-173693328D02*
X232172310Y-173764757D01*
X232172310Y-173764757D02*
X232243739Y-173907614D01*
X232243739Y-173907614D02*
X232243739Y-174693328D01*
X232958024Y-174693328D02*
X232958024Y-173193328D01*
X232958024Y-173764757D02*
X233100882Y-173693328D01*
X233100882Y-173693328D02*
X233386596Y-173693328D01*
X233386596Y-173693328D02*
X233529453Y-173764757D01*
X233529453Y-173764757D02*
X233600882Y-173836185D01*
X233600882Y-173836185D02*
X233672310Y-173979042D01*
X233672310Y-173979042D02*
X233672310Y-174407614D01*
X233672310Y-174407614D02*
X233600882Y-174550471D01*
X233600882Y-174550471D02*
X233529453Y-174621900D01*
X233529453Y-174621900D02*
X233386596Y-174693328D01*
X233386596Y-174693328D02*
X233100882Y-174693328D01*
X233100882Y-174693328D02*
X232958024Y-174621900D01*
X234886596Y-174621900D02*
X234743739Y-174693328D01*
X234743739Y-174693328D02*
X234458025Y-174693328D01*
X234458025Y-174693328D02*
X234315167Y-174621900D01*
X234315167Y-174621900D02*
X234243739Y-174479042D01*
X234243739Y-174479042D02*
X234243739Y-173907614D01*
X234243739Y-173907614D02*
X234315167Y-173764757D01*
X234315167Y-173764757D02*
X234458025Y-173693328D01*
X234458025Y-173693328D02*
X234743739Y-173693328D01*
X234743739Y-173693328D02*
X234886596Y-173764757D01*
X234886596Y-173764757D02*
X234958025Y-173907614D01*
X234958025Y-173907614D02*
X234958025Y-174050471D01*
X234958025Y-174050471D02*
X234243739Y-174193328D01*
X236243739Y-174693328D02*
X236243739Y-173193328D01*
X236243739Y-174621900D02*
X236100881Y-174693328D01*
X236100881Y-174693328D02*
X235815167Y-174693328D01*
X235815167Y-174693328D02*
X235672310Y-174621900D01*
X235672310Y-174621900D02*
X235600881Y-174550471D01*
X235600881Y-174550471D02*
X235529453Y-174407614D01*
X235529453Y-174407614D02*
X235529453Y-173979042D01*
X235529453Y-173979042D02*
X235600881Y-173836185D01*
X235600881Y-173836185D02*
X235672310Y-173764757D01*
X235672310Y-173764757D02*
X235815167Y-173693328D01*
X235815167Y-173693328D02*
X236100881Y-173693328D01*
X236100881Y-173693328D02*
X236243739Y-173764757D01*
X237600882Y-174693328D02*
X237600882Y-173193328D01*
X237600882Y-174621900D02*
X237458024Y-174693328D01*
X237458024Y-174693328D02*
X237172310Y-174693328D01*
X237172310Y-174693328D02*
X237029453Y-174621900D01*
X237029453Y-174621900D02*
X236958024Y-174550471D01*
X236958024Y-174550471D02*
X236886596Y-174407614D01*
X236886596Y-174407614D02*
X236886596Y-173979042D01*
X236886596Y-173979042D02*
X236958024Y-173836185D01*
X236958024Y-173836185D02*
X237029453Y-173764757D01*
X237029453Y-173764757D02*
X237172310Y-173693328D01*
X237172310Y-173693328D02*
X237458024Y-173693328D01*
X237458024Y-173693328D02*
X237600882Y-173764757D01*
X238886596Y-174621900D02*
X238743739Y-174693328D01*
X238743739Y-174693328D02*
X238458025Y-174693328D01*
X238458025Y-174693328D02*
X238315167Y-174621900D01*
X238315167Y-174621900D02*
X238243739Y-174479042D01*
X238243739Y-174479042D02*
X238243739Y-173907614D01*
X238243739Y-173907614D02*
X238315167Y-173764757D01*
X238315167Y-173764757D02*
X238458025Y-173693328D01*
X238458025Y-173693328D02*
X238743739Y-173693328D01*
X238743739Y-173693328D02*
X238886596Y-173764757D01*
X238886596Y-173764757D02*
X238958025Y-173907614D01*
X238958025Y-173907614D02*
X238958025Y-174050471D01*
X238958025Y-174050471D02*
X238243739Y-174193328D01*
X240243739Y-174693328D02*
X240243739Y-173193328D01*
X240243739Y-174621900D02*
X240100881Y-174693328D01*
X240100881Y-174693328D02*
X239815167Y-174693328D01*
X239815167Y-174693328D02*
X239672310Y-174621900D01*
X239672310Y-174621900D02*
X239600881Y-174550471D01*
X239600881Y-174550471D02*
X239529453Y-174407614D01*
X239529453Y-174407614D02*
X239529453Y-173979042D01*
X239529453Y-173979042D02*
X239600881Y-173836185D01*
X239600881Y-173836185D02*
X239672310Y-173764757D01*
X239672310Y-173764757D02*
X239815167Y-173693328D01*
X239815167Y-173693328D02*
X240100881Y-173693328D01*
X240100881Y-173693328D02*
X240243739Y-173764757D01*
X242029453Y-174621900D02*
X242172310Y-174693328D01*
X242172310Y-174693328D02*
X242458024Y-174693328D01*
X242458024Y-174693328D02*
X242600881Y-174621900D01*
X242600881Y-174621900D02*
X242672310Y-174479042D01*
X242672310Y-174479042D02*
X242672310Y-174407614D01*
X242672310Y-174407614D02*
X242600881Y-174264757D01*
X242600881Y-174264757D02*
X242458024Y-174193328D01*
X242458024Y-174193328D02*
X242243739Y-174193328D01*
X242243739Y-174193328D02*
X242100881Y-174121900D01*
X242100881Y-174121900D02*
X242029453Y-173979042D01*
X242029453Y-173979042D02*
X242029453Y-173907614D01*
X242029453Y-173907614D02*
X242100881Y-173764757D01*
X242100881Y-173764757D02*
X242243739Y-173693328D01*
X242243739Y-173693328D02*
X242458024Y-173693328D01*
X242458024Y-173693328D02*
X242600881Y-173764757D01*
X243172310Y-173693328D02*
X243529453Y-174693328D01*
X243886596Y-173693328D02*
X243529453Y-174693328D01*
X243529453Y-174693328D02*
X243386596Y-175050471D01*
X243386596Y-175050471D02*
X243315167Y-175121900D01*
X243315167Y-175121900D02*
X243172310Y-175193328D01*
X244386596Y-174621900D02*
X244529453Y-174693328D01*
X244529453Y-174693328D02*
X244815167Y-174693328D01*
X244815167Y-174693328D02*
X244958024Y-174621900D01*
X244958024Y-174621900D02*
X245029453Y-174479042D01*
X245029453Y-174479042D02*
X245029453Y-174407614D01*
X245029453Y-174407614D02*
X244958024Y-174264757D01*
X244958024Y-174264757D02*
X244815167Y-174193328D01*
X244815167Y-174193328D02*
X244600882Y-174193328D01*
X244600882Y-174193328D02*
X244458024Y-174121900D01*
X244458024Y-174121900D02*
X244386596Y-173979042D01*
X244386596Y-173979042D02*
X244386596Y-173907614D01*
X244386596Y-173907614D02*
X244458024Y-173764757D01*
X244458024Y-173764757D02*
X244600882Y-173693328D01*
X244600882Y-173693328D02*
X244815167Y-173693328D01*
X244815167Y-173693328D02*
X244958024Y-173764757D01*
X245458025Y-173693328D02*
X246029453Y-173693328D01*
X245672310Y-173193328D02*
X245672310Y-174479042D01*
X245672310Y-174479042D02*
X245743739Y-174621900D01*
X245743739Y-174621900D02*
X245886596Y-174693328D01*
X245886596Y-174693328D02*
X246029453Y-174693328D01*
X247100882Y-174621900D02*
X246958025Y-174693328D01*
X246958025Y-174693328D02*
X246672311Y-174693328D01*
X246672311Y-174693328D02*
X246529453Y-174621900D01*
X246529453Y-174621900D02*
X246458025Y-174479042D01*
X246458025Y-174479042D02*
X246458025Y-173907614D01*
X246458025Y-173907614D02*
X246529453Y-173764757D01*
X246529453Y-173764757D02*
X246672311Y-173693328D01*
X246672311Y-173693328D02*
X246958025Y-173693328D01*
X246958025Y-173693328D02*
X247100882Y-173764757D01*
X247100882Y-173764757D02*
X247172311Y-173907614D01*
X247172311Y-173907614D02*
X247172311Y-174050471D01*
X247172311Y-174050471D02*
X246458025Y-174193328D01*
X247815167Y-174693328D02*
X247815167Y-173693328D01*
X247815167Y-173836185D02*
X247886596Y-173764757D01*
X247886596Y-173764757D02*
X248029453Y-173693328D01*
X248029453Y-173693328D02*
X248243739Y-173693328D01*
X248243739Y-173693328D02*
X248386596Y-173764757D01*
X248386596Y-173764757D02*
X248458025Y-173907614D01*
X248458025Y-173907614D02*
X248458025Y-174693328D01*
X248458025Y-173907614D02*
X248529453Y-173764757D01*
X248529453Y-173764757D02*
X248672310Y-173693328D01*
X248672310Y-173693328D02*
X248886596Y-173693328D01*
X248886596Y-173693328D02*
X249029453Y-173764757D01*
X249029453Y-173764757D02*
X249100882Y-173907614D01*
X249100882Y-173907614D02*
X249100882Y-174693328D01*
X249743739Y-174621900D02*
X249886596Y-174693328D01*
X249886596Y-174693328D02*
X250172310Y-174693328D01*
X250172310Y-174693328D02*
X250315167Y-174621900D01*
X250315167Y-174621900D02*
X250386596Y-174479042D01*
X250386596Y-174479042D02*
X250386596Y-174407614D01*
X250386596Y-174407614D02*
X250315167Y-174264757D01*
X250315167Y-174264757D02*
X250172310Y-174193328D01*
X250172310Y-174193328D02*
X249958025Y-174193328D01*
X249958025Y-174193328D02*
X249815167Y-174121900D01*
X249815167Y-174121900D02*
X249743739Y-173979042D01*
X249743739Y-173979042D02*
X249743739Y-173907614D01*
X249743739Y-173907614D02*
X249815167Y-173764757D01*
X249815167Y-173764757D02*
X249958025Y-173693328D01*
X249958025Y-173693328D02*
X250172310Y-173693328D01*
X250172310Y-173693328D02*
X250315167Y-173764757D01*
D10*
D11*
X179315169Y-171550471D02*
X179243741Y-171621900D01*
X179243741Y-171621900D02*
X179029455Y-171693328D01*
X179029455Y-171693328D02*
X178886598Y-171693328D01*
X178886598Y-171693328D02*
X178672312Y-171621900D01*
X178672312Y-171621900D02*
X178529455Y-171479042D01*
X178529455Y-171479042D02*
X178458026Y-171336185D01*
X178458026Y-171336185D02*
X178386598Y-171050471D01*
X178386598Y-171050471D02*
X178386598Y-170836185D01*
X178386598Y-170836185D02*
X178458026Y-170550471D01*
X178458026Y-170550471D02*
X178529455Y-170407614D01*
X178529455Y-170407614D02*
X178672312Y-170264757D01*
X178672312Y-170264757D02*
X178886598Y-170193328D01*
X178886598Y-170193328D02*
X179029455Y-170193328D01*
X179029455Y-170193328D02*
X179243741Y-170264757D01*
X179243741Y-170264757D02*
X179315169Y-170336185D01*
X180172312Y-171693328D02*
X180029455Y-171621900D01*
X180029455Y-171621900D02*
X179958026Y-171550471D01*
X179958026Y-171550471D02*
X179886598Y-171407614D01*
X179886598Y-171407614D02*
X179886598Y-170979042D01*
X179886598Y-170979042D02*
X179958026Y-170836185D01*
X179958026Y-170836185D02*
X180029455Y-170764757D01*
X180029455Y-170764757D02*
X180172312Y-170693328D01*
X180172312Y-170693328D02*
X180386598Y-170693328D01*
X180386598Y-170693328D02*
X180529455Y-170764757D01*
X180529455Y-170764757D02*
X180600884Y-170836185D01*
X180600884Y-170836185D02*
X180672312Y-170979042D01*
X180672312Y-170979042D02*
X180672312Y-171407614D01*
X180672312Y-171407614D02*
X180600884Y-171550471D01*
X180600884Y-171550471D02*
X180529455Y-171621900D01*
X180529455Y-171621900D02*
X180386598Y-171693328D01*
X180386598Y-171693328D02*
X180172312Y-171693328D01*
X181315169Y-170693328D02*
X181315169Y-172193328D01*
X181315169Y-170764757D02*
X181458027Y-170693328D01*
X181458027Y-170693328D02*
X181743741Y-170693328D01*
X181743741Y-170693328D02*
X181886598Y-170764757D01*
X181886598Y-170764757D02*
X181958027Y-170836185D01*
X181958027Y-170836185D02*
X182029455Y-170979042D01*
X182029455Y-170979042D02*
X182029455Y-171407614D01*
X182029455Y-171407614D02*
X181958027Y-171550471D01*
X181958027Y-171550471D02*
X181886598Y-171621900D01*
X181886598Y-171621900D02*
X181743741Y-171693328D01*
X181743741Y-171693328D02*
X181458027Y-171693328D01*
X181458027Y-171693328D02*
X181315169Y-171621900D01*
X182529455Y-170693328D02*
X182886598Y-171693328D01*
X183243741Y-170693328D02*
X182886598Y-171693328D01*
X182886598Y-171693328D02*
X182743741Y-172050471D01*
X182743741Y-172050471D02*
X182672312Y-172121900D01*
X182672312Y-172121900D02*
X182529455Y-172193328D01*
X183815169Y-171693328D02*
X183815169Y-170693328D01*
X183815169Y-170979042D02*
X183886598Y-170836185D01*
X183886598Y-170836185D02*
X183958027Y-170764757D01*
X183958027Y-170764757D02*
X184100884Y-170693328D01*
X184100884Y-170693328D02*
X184243741Y-170693328D01*
X184743740Y-171693328D02*
X184743740Y-170693328D01*
X184743740Y-170193328D02*
X184672312Y-170264757D01*
X184672312Y-170264757D02*
X184743740Y-170336185D01*
X184743740Y-170336185D02*
X184815169Y-170264757D01*
X184815169Y-170264757D02*
X184743740Y-170193328D01*
X184743740Y-170193328D02*
X184743740Y-170336185D01*
X186100884Y-170693328D02*
X186100884Y-171907614D01*
X186100884Y-171907614D02*
X186029455Y-172050471D01*
X186029455Y-172050471D02*
X185958026Y-172121900D01*
X185958026Y-172121900D02*
X185815169Y-172193328D01*
X185815169Y-172193328D02*
X185600884Y-172193328D01*
X185600884Y-172193328D02*
X185458026Y-172121900D01*
X186100884Y-171621900D02*
X185958026Y-171693328D01*
X185958026Y-171693328D02*
X185672312Y-171693328D01*
X185672312Y-171693328D02*
X185529455Y-171621900D01*
X185529455Y-171621900D02*
X185458026Y-171550471D01*
X185458026Y-171550471D02*
X185386598Y-171407614D01*
X185386598Y-171407614D02*
X185386598Y-170979042D01*
X185386598Y-170979042D02*
X185458026Y-170836185D01*
X185458026Y-170836185D02*
X185529455Y-170764757D01*
X185529455Y-170764757D02*
X185672312Y-170693328D01*
X185672312Y-170693328D02*
X185958026Y-170693328D01*
X185958026Y-170693328D02*
X186100884Y-170764757D01*
X186815169Y-171693328D02*
X186815169Y-170193328D01*
X187458027Y-171693328D02*
X187458027Y-170907614D01*
X187458027Y-170907614D02*
X187386598Y-170764757D01*
X187386598Y-170764757D02*
X187243741Y-170693328D01*
X187243741Y-170693328D02*
X187029455Y-170693328D01*
X187029455Y-170693328D02*
X186886598Y-170764757D01*
X186886598Y-170764757D02*
X186815169Y-170836185D01*
X187958027Y-170693328D02*
X188529455Y-170693328D01*
X188172312Y-170193328D02*
X188172312Y-171479042D01*
X188172312Y-171479042D02*
X188243741Y-171621900D01*
X188243741Y-171621900D02*
X188386598Y-171693328D01*
X188386598Y-171693328D02*
X188529455Y-171693328D01*
X189029455Y-171550471D02*
X189100884Y-171621900D01*
X189100884Y-171621900D02*
X189029455Y-171693328D01*
X189029455Y-171693328D02*
X188958027Y-171621900D01*
X188958027Y-171621900D02*
X189029455Y-171550471D01*
X189029455Y-171550471D02*
X189029455Y-171693328D01*
X189029455Y-170764757D02*
X189100884Y-170836185D01*
X189100884Y-170836185D02*
X189029455Y-170907614D01*
X189029455Y-170907614D02*
X188958027Y-170836185D01*
X188958027Y-170836185D02*
X189029455Y-170764757D01*
X189029455Y-170764757D02*
X189029455Y-170907614D01*
X191743741Y-171550471D02*
X191672313Y-171621900D01*
X191672313Y-171621900D02*
X191458027Y-171693328D01*
X191458027Y-171693328D02*
X191315170Y-171693328D01*
X191315170Y-171693328D02*
X191100884Y-171621900D01*
X191100884Y-171621900D02*
X190958027Y-171479042D01*
X190958027Y-171479042D02*
X190886598Y-171336185D01*
X190886598Y-171336185D02*
X190815170Y-171050471D01*
X190815170Y-171050471D02*
X190815170Y-170836185D01*
X190815170Y-170836185D02*
X190886598Y-170550471D01*
X190886598Y-170550471D02*
X190958027Y-170407614D01*
X190958027Y-170407614D02*
X191100884Y-170264757D01*
X191100884Y-170264757D02*
X191315170Y-170193328D01*
X191315170Y-170193328D02*
X191458027Y-170193328D01*
X191458027Y-170193328D02*
X191672313Y-170264757D01*
X191672313Y-170264757D02*
X191743741Y-170336185D01*
X193243741Y-171550471D02*
X193172313Y-171621900D01*
X193172313Y-171621900D02*
X192958027Y-171693328D01*
X192958027Y-171693328D02*
X192815170Y-171693328D01*
X192815170Y-171693328D02*
X192600884Y-171621900D01*
X192600884Y-171621900D02*
X192458027Y-171479042D01*
X192458027Y-171479042D02*
X192386598Y-171336185D01*
X192386598Y-171336185D02*
X192315170Y-171050471D01*
X192315170Y-171050471D02*
X192315170Y-170836185D01*
X192315170Y-170836185D02*
X192386598Y-170550471D01*
X192386598Y-170550471D02*
X192458027Y-170407614D01*
X192458027Y-170407614D02*
X192600884Y-170264757D01*
X192600884Y-170264757D02*
X192815170Y-170193328D01*
X192815170Y-170193328D02*
X192958027Y-170193328D01*
X192958027Y-170193328D02*
X193172313Y-170264757D01*
X193172313Y-170264757D02*
X193243741Y-170336185D01*
X195529455Y-170907614D02*
X195743741Y-170979042D01*
X195743741Y-170979042D02*
X195815170Y-171050471D01*
X195815170Y-171050471D02*
X195886598Y-171193328D01*
X195886598Y-171193328D02*
X195886598Y-171407614D01*
X195886598Y-171407614D02*
X195815170Y-171550471D01*
X195815170Y-171550471D02*
X195743741Y-171621900D01*
X195743741Y-171621900D02*
X195600884Y-171693328D01*
X195600884Y-171693328D02*
X195029455Y-171693328D01*
X195029455Y-171693328D02*
X195029455Y-170193328D01*
X195029455Y-170193328D02*
X195529455Y-170193328D01*
X195529455Y-170193328D02*
X195672313Y-170264757D01*
X195672313Y-170264757D02*
X195743741Y-170336185D01*
X195743741Y-170336185D02*
X195815170Y-170479042D01*
X195815170Y-170479042D02*
X195815170Y-170621900D01*
X195815170Y-170621900D02*
X195743741Y-170764757D01*
X195743741Y-170764757D02*
X195672313Y-170836185D01*
X195672313Y-170836185D02*
X195529455Y-170907614D01*
X195529455Y-170907614D02*
X195029455Y-170907614D01*
X196815170Y-170979042D02*
X196815170Y-171693328D01*
X196315170Y-170193328D02*
X196815170Y-170979042D01*
X196815170Y-170979042D02*
X197315170Y-170193328D01*
X199600884Y-170693328D02*
X199600884Y-171693328D01*
X199243741Y-170121900D02*
X198886598Y-171193328D01*
X198886598Y-171193328D02*
X199815169Y-171193328D01*
X200386597Y-171550471D02*
X200458026Y-171621900D01*
X200458026Y-171621900D02*
X200386597Y-171693328D01*
X200386597Y-171693328D02*
X200315169Y-171621900D01*
X200315169Y-171621900D02*
X200386597Y-171550471D01*
X200386597Y-171550471D02*
X200386597Y-171693328D01*
X201386598Y-170193328D02*
X201529455Y-170193328D01*
X201529455Y-170193328D02*
X201672312Y-170264757D01*
X201672312Y-170264757D02*
X201743741Y-170336185D01*
X201743741Y-170336185D02*
X201815169Y-170479042D01*
X201815169Y-170479042D02*
X201886598Y-170764757D01*
X201886598Y-170764757D02*
X201886598Y-171121900D01*
X201886598Y-171121900D02*
X201815169Y-171407614D01*
X201815169Y-171407614D02*
X201743741Y-171550471D01*
X201743741Y-171550471D02*
X201672312Y-171621900D01*
X201672312Y-171621900D02*
X201529455Y-171693328D01*
X201529455Y-171693328D02*
X201386598Y-171693328D01*
X201386598Y-171693328D02*
X201243741Y-171621900D01*
X201243741Y-171621900D02*
X201172312Y-171550471D01*
X201172312Y-171550471D02*
X201100883Y-171407614D01*
X201100883Y-171407614D02*
X201029455Y-171121900D01*
X201029455Y-171121900D02*
X201029455Y-170764757D01*
X201029455Y-170764757D02*
X201100883Y-170479042D01*
X201100883Y-170479042D02*
X201172312Y-170336185D01*
X201172312Y-170336185D02*
X201243741Y-170264757D01*
X201243741Y-170264757D02*
X201386598Y-170193328D01*
D10*
D11*
X178458026Y-168693328D02*
X178458026Y-167193328D01*
X179100884Y-168693328D02*
X179100884Y-167907614D01*
X179100884Y-167907614D02*
X179029455Y-167764757D01*
X179029455Y-167764757D02*
X178886598Y-167693328D01*
X178886598Y-167693328D02*
X178672312Y-167693328D01*
X178672312Y-167693328D02*
X178529455Y-167764757D01*
X178529455Y-167764757D02*
X178458026Y-167836185D01*
X179600884Y-167693328D02*
X180172312Y-167693328D01*
X179815169Y-167193328D02*
X179815169Y-168479042D01*
X179815169Y-168479042D02*
X179886598Y-168621900D01*
X179886598Y-168621900D02*
X180029455Y-168693328D01*
X180029455Y-168693328D02*
X180172312Y-168693328D01*
X180458027Y-167693328D02*
X181029455Y-167693328D01*
X180672312Y-167193328D02*
X180672312Y-168479042D01*
X180672312Y-168479042D02*
X180743741Y-168621900D01*
X180743741Y-168621900D02*
X180886598Y-168693328D01*
X180886598Y-168693328D02*
X181029455Y-168693328D01*
X181529455Y-167693328D02*
X181529455Y-169193328D01*
X181529455Y-167764757D02*
X181672313Y-167693328D01*
X181672313Y-167693328D02*
X181958027Y-167693328D01*
X181958027Y-167693328D02*
X182100884Y-167764757D01*
X182100884Y-167764757D02*
X182172313Y-167836185D01*
X182172313Y-167836185D02*
X182243741Y-167979042D01*
X182243741Y-167979042D02*
X182243741Y-168407614D01*
X182243741Y-168407614D02*
X182172313Y-168550471D01*
X182172313Y-168550471D02*
X182100884Y-168621900D01*
X182100884Y-168621900D02*
X181958027Y-168693328D01*
X181958027Y-168693328D02*
X181672313Y-168693328D01*
X181672313Y-168693328D02*
X181529455Y-168621900D01*
X182815170Y-168621900D02*
X182958027Y-168693328D01*
X182958027Y-168693328D02*
X183243741Y-168693328D01*
X183243741Y-168693328D02*
X183386598Y-168621900D01*
X183386598Y-168621900D02*
X183458027Y-168479042D01*
X183458027Y-168479042D02*
X183458027Y-168407614D01*
X183458027Y-168407614D02*
X183386598Y-168264757D01*
X183386598Y-168264757D02*
X183243741Y-168193328D01*
X183243741Y-168193328D02*
X183029456Y-168193328D01*
X183029456Y-168193328D02*
X182886598Y-168121900D01*
X182886598Y-168121900D02*
X182815170Y-167979042D01*
X182815170Y-167979042D02*
X182815170Y-167907614D01*
X182815170Y-167907614D02*
X182886598Y-167764757D01*
X182886598Y-167764757D02*
X183029456Y-167693328D01*
X183029456Y-167693328D02*
X183243741Y-167693328D01*
X183243741Y-167693328D02*
X183386598Y-167764757D01*
X184100884Y-168550471D02*
X184172313Y-168621900D01*
X184172313Y-168621900D02*
X184100884Y-168693328D01*
X184100884Y-168693328D02*
X184029456Y-168621900D01*
X184029456Y-168621900D02*
X184100884Y-168550471D01*
X184100884Y-168550471D02*
X184100884Y-168693328D01*
X184100884Y-167764757D02*
X184172313Y-167836185D01*
X184172313Y-167836185D02*
X184100884Y-167907614D01*
X184100884Y-167907614D02*
X184029456Y-167836185D01*
X184029456Y-167836185D02*
X184100884Y-167764757D01*
X184100884Y-167764757D02*
X184100884Y-167907614D01*
X185886599Y-167121900D02*
X184600885Y-169050471D01*
X187458028Y-167121900D02*
X186172314Y-169050471D01*
X188600886Y-168621900D02*
X188458028Y-168693328D01*
X188458028Y-168693328D02*
X188172314Y-168693328D01*
X188172314Y-168693328D02*
X188029457Y-168621900D01*
X188029457Y-168621900D02*
X187958028Y-168550471D01*
X187958028Y-168550471D02*
X187886600Y-168407614D01*
X187886600Y-168407614D02*
X187886600Y-167979042D01*
X187886600Y-167979042D02*
X187958028Y-167836185D01*
X187958028Y-167836185D02*
X188029457Y-167764757D01*
X188029457Y-167764757D02*
X188172314Y-167693328D01*
X188172314Y-167693328D02*
X188458028Y-167693328D01*
X188458028Y-167693328D02*
X188600886Y-167764757D01*
X189243742Y-168693328D02*
X189243742Y-167693328D01*
X189243742Y-167979042D02*
X189315171Y-167836185D01*
X189315171Y-167836185D02*
X189386600Y-167764757D01*
X189386600Y-167764757D02*
X189529457Y-167693328D01*
X189529457Y-167693328D02*
X189672314Y-167693328D01*
X190743742Y-168621900D02*
X190600885Y-168693328D01*
X190600885Y-168693328D02*
X190315171Y-168693328D01*
X190315171Y-168693328D02*
X190172313Y-168621900D01*
X190172313Y-168621900D02*
X190100885Y-168479042D01*
X190100885Y-168479042D02*
X190100885Y-167907614D01*
X190100885Y-167907614D02*
X190172313Y-167764757D01*
X190172313Y-167764757D02*
X190315171Y-167693328D01*
X190315171Y-167693328D02*
X190600885Y-167693328D01*
X190600885Y-167693328D02*
X190743742Y-167764757D01*
X190743742Y-167764757D02*
X190815171Y-167907614D01*
X190815171Y-167907614D02*
X190815171Y-168050471D01*
X190815171Y-168050471D02*
X190100885Y-168193328D01*
X192100885Y-168693328D02*
X192100885Y-167907614D01*
X192100885Y-167907614D02*
X192029456Y-167764757D01*
X192029456Y-167764757D02*
X191886599Y-167693328D01*
X191886599Y-167693328D02*
X191600885Y-167693328D01*
X191600885Y-167693328D02*
X191458027Y-167764757D01*
X192100885Y-168621900D02*
X191958027Y-168693328D01*
X191958027Y-168693328D02*
X191600885Y-168693328D01*
X191600885Y-168693328D02*
X191458027Y-168621900D01*
X191458027Y-168621900D02*
X191386599Y-168479042D01*
X191386599Y-168479042D02*
X191386599Y-168336185D01*
X191386599Y-168336185D02*
X191458027Y-168193328D01*
X191458027Y-168193328D02*
X191600885Y-168121900D01*
X191600885Y-168121900D02*
X191958027Y-168121900D01*
X191958027Y-168121900D02*
X192100885Y-168050471D01*
X192600885Y-167693328D02*
X193172313Y-167693328D01*
X192815170Y-167193328D02*
X192815170Y-168479042D01*
X192815170Y-168479042D02*
X192886599Y-168621900D01*
X192886599Y-168621900D02*
X193029456Y-168693328D01*
X193029456Y-168693328D02*
X193172313Y-168693328D01*
X193672313Y-168693328D02*
X193672313Y-167693328D01*
X193672313Y-167193328D02*
X193600885Y-167264757D01*
X193600885Y-167264757D02*
X193672313Y-167336185D01*
X193672313Y-167336185D02*
X193743742Y-167264757D01*
X193743742Y-167264757D02*
X193672313Y-167193328D01*
X193672313Y-167193328D02*
X193672313Y-167336185D01*
X194243742Y-167693328D02*
X194600885Y-168693328D01*
X194600885Y-168693328D02*
X194958028Y-167693328D01*
X196100885Y-168621900D02*
X195958028Y-168693328D01*
X195958028Y-168693328D02*
X195672314Y-168693328D01*
X195672314Y-168693328D02*
X195529456Y-168621900D01*
X195529456Y-168621900D02*
X195458028Y-168479042D01*
X195458028Y-168479042D02*
X195458028Y-167907614D01*
X195458028Y-167907614D02*
X195529456Y-167764757D01*
X195529456Y-167764757D02*
X195672314Y-167693328D01*
X195672314Y-167693328D02*
X195958028Y-167693328D01*
X195958028Y-167693328D02*
X196100885Y-167764757D01*
X196100885Y-167764757D02*
X196172314Y-167907614D01*
X196172314Y-167907614D02*
X196172314Y-168050471D01*
X196172314Y-168050471D02*
X195458028Y-168193328D01*
X197458028Y-168621900D02*
X197315170Y-168693328D01*
X197315170Y-168693328D02*
X197029456Y-168693328D01*
X197029456Y-168693328D02*
X196886599Y-168621900D01*
X196886599Y-168621900D02*
X196815170Y-168550471D01*
X196815170Y-168550471D02*
X196743742Y-168407614D01*
X196743742Y-168407614D02*
X196743742Y-167979042D01*
X196743742Y-167979042D02*
X196815170Y-167836185D01*
X196815170Y-167836185D02*
X196886599Y-167764757D01*
X196886599Y-167764757D02*
X197029456Y-167693328D01*
X197029456Y-167693328D02*
X197315170Y-167693328D01*
X197315170Y-167693328D02*
X197458028Y-167764757D01*
X198315170Y-168693328D02*
X198172313Y-168621900D01*
X198172313Y-168621900D02*
X198100884Y-168550471D01*
X198100884Y-168550471D02*
X198029456Y-168407614D01*
X198029456Y-168407614D02*
X198029456Y-167979042D01*
X198029456Y-167979042D02*
X198100884Y-167836185D01*
X198100884Y-167836185D02*
X198172313Y-167764757D01*
X198172313Y-167764757D02*
X198315170Y-167693328D01*
X198315170Y-167693328D02*
X198529456Y-167693328D01*
X198529456Y-167693328D02*
X198672313Y-167764757D01*
X198672313Y-167764757D02*
X198743742Y-167836185D01*
X198743742Y-167836185D02*
X198815170Y-167979042D01*
X198815170Y-167979042D02*
X198815170Y-168407614D01*
X198815170Y-168407614D02*
X198743742Y-168550471D01*
X198743742Y-168550471D02*
X198672313Y-168621900D01*
X198672313Y-168621900D02*
X198529456Y-168693328D01*
X198529456Y-168693328D02*
X198315170Y-168693328D01*
X199458027Y-168693328D02*
X199458027Y-167693328D01*
X199458027Y-167836185D02*
X199529456Y-167764757D01*
X199529456Y-167764757D02*
X199672313Y-167693328D01*
X199672313Y-167693328D02*
X199886599Y-167693328D01*
X199886599Y-167693328D02*
X200029456Y-167764757D01*
X200029456Y-167764757D02*
X200100885Y-167907614D01*
X200100885Y-167907614D02*
X200100885Y-168693328D01*
X200100885Y-167907614D02*
X200172313Y-167764757D01*
X200172313Y-167764757D02*
X200315170Y-167693328D01*
X200315170Y-167693328D02*
X200529456Y-167693328D01*
X200529456Y-167693328D02*
X200672313Y-167764757D01*
X200672313Y-167764757D02*
X200743742Y-167907614D01*
X200743742Y-167907614D02*
X200743742Y-168693328D01*
X201458027Y-168693328D02*
X201458027Y-167693328D01*
X201458027Y-167836185D02*
X201529456Y-167764757D01*
X201529456Y-167764757D02*
X201672313Y-167693328D01*
X201672313Y-167693328D02*
X201886599Y-167693328D01*
X201886599Y-167693328D02*
X202029456Y-167764757D01*
X202029456Y-167764757D02*
X202100885Y-167907614D01*
X202100885Y-167907614D02*
X202100885Y-168693328D01*
X202100885Y-167907614D02*
X202172313Y-167764757D01*
X202172313Y-167764757D02*
X202315170Y-167693328D01*
X202315170Y-167693328D02*
X202529456Y-167693328D01*
X202529456Y-167693328D02*
X202672313Y-167764757D01*
X202672313Y-167764757D02*
X202743742Y-167907614D01*
X202743742Y-167907614D02*
X202743742Y-168693328D01*
X203672313Y-168693328D02*
X203529456Y-168621900D01*
X203529456Y-168621900D02*
X203458027Y-168550471D01*
X203458027Y-168550471D02*
X203386599Y-168407614D01*
X203386599Y-168407614D02*
X203386599Y-167979042D01*
X203386599Y-167979042D02*
X203458027Y-167836185D01*
X203458027Y-167836185D02*
X203529456Y-167764757D01*
X203529456Y-167764757D02*
X203672313Y-167693328D01*
X203672313Y-167693328D02*
X203886599Y-167693328D01*
X203886599Y-167693328D02*
X204029456Y-167764757D01*
X204029456Y-167764757D02*
X204100885Y-167836185D01*
X204100885Y-167836185D02*
X204172313Y-167979042D01*
X204172313Y-167979042D02*
X204172313Y-168407614D01*
X204172313Y-168407614D02*
X204100885Y-168550471D01*
X204100885Y-168550471D02*
X204029456Y-168621900D01*
X204029456Y-168621900D02*
X203886599Y-168693328D01*
X203886599Y-168693328D02*
X203672313Y-168693328D01*
X204815170Y-167693328D02*
X204815170Y-168693328D01*
X204815170Y-167836185D02*
X204886599Y-167764757D01*
X204886599Y-167764757D02*
X205029456Y-167693328D01*
X205029456Y-167693328D02*
X205243742Y-167693328D01*
X205243742Y-167693328D02*
X205386599Y-167764757D01*
X205386599Y-167764757D02*
X205458028Y-167907614D01*
X205458028Y-167907614D02*
X205458028Y-168693328D01*
X206100885Y-168621900D02*
X206243742Y-168693328D01*
X206243742Y-168693328D02*
X206529456Y-168693328D01*
X206529456Y-168693328D02*
X206672313Y-168621900D01*
X206672313Y-168621900D02*
X206743742Y-168479042D01*
X206743742Y-168479042D02*
X206743742Y-168407614D01*
X206743742Y-168407614D02*
X206672313Y-168264757D01*
X206672313Y-168264757D02*
X206529456Y-168193328D01*
X206529456Y-168193328D02*
X206315171Y-168193328D01*
X206315171Y-168193328D02*
X206172313Y-168121900D01*
X206172313Y-168121900D02*
X206100885Y-167979042D01*
X206100885Y-167979042D02*
X206100885Y-167907614D01*
X206100885Y-167907614D02*
X206172313Y-167764757D01*
X206172313Y-167764757D02*
X206315171Y-167693328D01*
X206315171Y-167693328D02*
X206529456Y-167693328D01*
X206529456Y-167693328D02*
X206672313Y-167764757D01*
X207386599Y-168550471D02*
X207458028Y-168621900D01*
X207458028Y-168621900D02*
X207386599Y-168693328D01*
X207386599Y-168693328D02*
X207315171Y-168621900D01*
X207315171Y-168621900D02*
X207386599Y-168550471D01*
X207386599Y-168550471D02*
X207386599Y-168693328D01*
X208315171Y-168693328D02*
X208172314Y-168621900D01*
X208172314Y-168621900D02*
X208100885Y-168550471D01*
X208100885Y-168550471D02*
X208029457Y-168407614D01*
X208029457Y-168407614D02*
X208029457Y-167979042D01*
X208029457Y-167979042D02*
X208100885Y-167836185D01*
X208100885Y-167836185D02*
X208172314Y-167764757D01*
X208172314Y-167764757D02*
X208315171Y-167693328D01*
X208315171Y-167693328D02*
X208529457Y-167693328D01*
X208529457Y-167693328D02*
X208672314Y-167764757D01*
X208672314Y-167764757D02*
X208743743Y-167836185D01*
X208743743Y-167836185D02*
X208815171Y-167979042D01*
X208815171Y-167979042D02*
X208815171Y-168407614D01*
X208815171Y-168407614D02*
X208743743Y-168550471D01*
X208743743Y-168550471D02*
X208672314Y-168621900D01*
X208672314Y-168621900D02*
X208529457Y-168693328D01*
X208529457Y-168693328D02*
X208315171Y-168693328D01*
X209458028Y-168693328D02*
X209458028Y-167693328D01*
X209458028Y-167979042D02*
X209529457Y-167836185D01*
X209529457Y-167836185D02*
X209600886Y-167764757D01*
X209600886Y-167764757D02*
X209743743Y-167693328D01*
X209743743Y-167693328D02*
X209886600Y-167693328D01*
X211029457Y-167693328D02*
X211029457Y-168907614D01*
X211029457Y-168907614D02*
X210958028Y-169050471D01*
X210958028Y-169050471D02*
X210886599Y-169121900D01*
X210886599Y-169121900D02*
X210743742Y-169193328D01*
X210743742Y-169193328D02*
X210529457Y-169193328D01*
X210529457Y-169193328D02*
X210386599Y-169121900D01*
X211029457Y-168621900D02*
X210886599Y-168693328D01*
X210886599Y-168693328D02*
X210600885Y-168693328D01*
X210600885Y-168693328D02*
X210458028Y-168621900D01*
X210458028Y-168621900D02*
X210386599Y-168550471D01*
X210386599Y-168550471D02*
X210315171Y-168407614D01*
X210315171Y-168407614D02*
X210315171Y-167979042D01*
X210315171Y-167979042D02*
X210386599Y-167836185D01*
X210386599Y-167836185D02*
X210458028Y-167764757D01*
X210458028Y-167764757D02*
X210600885Y-167693328D01*
X210600885Y-167693328D02*
X210886599Y-167693328D01*
X210886599Y-167693328D02*
X211029457Y-167764757D01*
X212815171Y-167121900D02*
X211529457Y-169050471D01*
X213529457Y-168693328D02*
X213386600Y-168621900D01*
X213386600Y-168621900D02*
X213315171Y-168479042D01*
X213315171Y-168479042D02*
X213315171Y-167193328D01*
X214100885Y-168693328D02*
X214100885Y-167693328D01*
X214100885Y-167193328D02*
X214029457Y-167264757D01*
X214029457Y-167264757D02*
X214100885Y-167336185D01*
X214100885Y-167336185D02*
X214172314Y-167264757D01*
X214172314Y-167264757D02*
X214100885Y-167193328D01*
X214100885Y-167193328D02*
X214100885Y-167336185D01*
X215458029Y-168621900D02*
X215315171Y-168693328D01*
X215315171Y-168693328D02*
X215029457Y-168693328D01*
X215029457Y-168693328D02*
X214886600Y-168621900D01*
X214886600Y-168621900D02*
X214815171Y-168550471D01*
X214815171Y-168550471D02*
X214743743Y-168407614D01*
X214743743Y-168407614D02*
X214743743Y-167979042D01*
X214743743Y-167979042D02*
X214815171Y-167836185D01*
X214815171Y-167836185D02*
X214886600Y-167764757D01*
X214886600Y-167764757D02*
X215029457Y-167693328D01*
X215029457Y-167693328D02*
X215315171Y-167693328D01*
X215315171Y-167693328D02*
X215458029Y-167764757D01*
X216672314Y-168621900D02*
X216529457Y-168693328D01*
X216529457Y-168693328D02*
X216243743Y-168693328D01*
X216243743Y-168693328D02*
X216100885Y-168621900D01*
X216100885Y-168621900D02*
X216029457Y-168479042D01*
X216029457Y-168479042D02*
X216029457Y-167907614D01*
X216029457Y-167907614D02*
X216100885Y-167764757D01*
X216100885Y-167764757D02*
X216243743Y-167693328D01*
X216243743Y-167693328D02*
X216529457Y-167693328D01*
X216529457Y-167693328D02*
X216672314Y-167764757D01*
X216672314Y-167764757D02*
X216743743Y-167907614D01*
X216743743Y-167907614D02*
X216743743Y-168050471D01*
X216743743Y-168050471D02*
X216029457Y-168193328D01*
X217386599Y-167693328D02*
X217386599Y-168693328D01*
X217386599Y-167836185D02*
X217458028Y-167764757D01*
X217458028Y-167764757D02*
X217600885Y-167693328D01*
X217600885Y-167693328D02*
X217815171Y-167693328D01*
X217815171Y-167693328D02*
X217958028Y-167764757D01*
X217958028Y-167764757D02*
X218029457Y-167907614D01*
X218029457Y-167907614D02*
X218029457Y-168693328D01*
X218672314Y-168621900D02*
X218815171Y-168693328D01*
X218815171Y-168693328D02*
X219100885Y-168693328D01*
X219100885Y-168693328D02*
X219243742Y-168621900D01*
X219243742Y-168621900D02*
X219315171Y-168479042D01*
X219315171Y-168479042D02*
X219315171Y-168407614D01*
X219315171Y-168407614D02*
X219243742Y-168264757D01*
X219243742Y-168264757D02*
X219100885Y-168193328D01*
X219100885Y-168193328D02*
X218886600Y-168193328D01*
X218886600Y-168193328D02*
X218743742Y-168121900D01*
X218743742Y-168121900D02*
X218672314Y-167979042D01*
X218672314Y-167979042D02*
X218672314Y-167907614D01*
X218672314Y-167907614D02*
X218743742Y-167764757D01*
X218743742Y-167764757D02*
X218886600Y-167693328D01*
X218886600Y-167693328D02*
X219100885Y-167693328D01*
X219100885Y-167693328D02*
X219243742Y-167764757D01*
X220529457Y-168621900D02*
X220386600Y-168693328D01*
X220386600Y-168693328D02*
X220100886Y-168693328D01*
X220100886Y-168693328D02*
X219958028Y-168621900D01*
X219958028Y-168621900D02*
X219886600Y-168479042D01*
X219886600Y-168479042D02*
X219886600Y-167907614D01*
X219886600Y-167907614D02*
X219958028Y-167764757D01*
X219958028Y-167764757D02*
X220100886Y-167693328D01*
X220100886Y-167693328D02*
X220386600Y-167693328D01*
X220386600Y-167693328D02*
X220529457Y-167764757D01*
X220529457Y-167764757D02*
X220600886Y-167907614D01*
X220600886Y-167907614D02*
X220600886Y-168050471D01*
X220600886Y-168050471D02*
X219886600Y-168193328D01*
X221172314Y-168621900D02*
X221315171Y-168693328D01*
X221315171Y-168693328D02*
X221600885Y-168693328D01*
X221600885Y-168693328D02*
X221743742Y-168621900D01*
X221743742Y-168621900D02*
X221815171Y-168479042D01*
X221815171Y-168479042D02*
X221815171Y-168407614D01*
X221815171Y-168407614D02*
X221743742Y-168264757D01*
X221743742Y-168264757D02*
X221600885Y-168193328D01*
X221600885Y-168193328D02*
X221386600Y-168193328D01*
X221386600Y-168193328D02*
X221243742Y-168121900D01*
X221243742Y-168121900D02*
X221172314Y-167979042D01*
X221172314Y-167979042D02*
X221172314Y-167907614D01*
X221172314Y-167907614D02*
X221243742Y-167764757D01*
X221243742Y-167764757D02*
X221386600Y-167693328D01*
X221386600Y-167693328D02*
X221600885Y-167693328D01*
X221600885Y-167693328D02*
X221743742Y-167764757D01*
X223529457Y-167121900D02*
X222243743Y-169050471D01*
X224029457Y-168693328D02*
X224029457Y-167193328D01*
X224029457Y-167764757D02*
X224172315Y-167693328D01*
X224172315Y-167693328D02*
X224458029Y-167693328D01*
X224458029Y-167693328D02*
X224600886Y-167764757D01*
X224600886Y-167764757D02*
X224672315Y-167836185D01*
X224672315Y-167836185D02*
X224743743Y-167979042D01*
X224743743Y-167979042D02*
X224743743Y-168407614D01*
X224743743Y-168407614D02*
X224672315Y-168550471D01*
X224672315Y-168550471D02*
X224600886Y-168621900D01*
X224600886Y-168621900D02*
X224458029Y-168693328D01*
X224458029Y-168693328D02*
X224172315Y-168693328D01*
X224172315Y-168693328D02*
X224029457Y-168621900D01*
X225243743Y-167693328D02*
X225600886Y-168693328D01*
X225958029Y-167693328D02*
X225600886Y-168693328D01*
X225600886Y-168693328D02*
X225458029Y-169050471D01*
X225458029Y-169050471D02*
X225386600Y-169121900D01*
X225386600Y-169121900D02*
X225243743Y-169193328D01*
X227600886Y-167121900D02*
X226315172Y-169050471D01*
X228743744Y-167693328D02*
X228743744Y-168693328D01*
X228386601Y-167121900D02*
X228029458Y-168193328D01*
X228029458Y-168193328D02*
X228958029Y-168193328D01*
X229529457Y-168550471D02*
X229600886Y-168621900D01*
X229600886Y-168621900D02*
X229529457Y-168693328D01*
X229529457Y-168693328D02*
X229458029Y-168621900D01*
X229458029Y-168621900D02*
X229529457Y-168550471D01*
X229529457Y-168550471D02*
X229529457Y-168693328D01*
X230529458Y-167193328D02*
X230672315Y-167193328D01*
X230672315Y-167193328D02*
X230815172Y-167264757D01*
X230815172Y-167264757D02*
X230886601Y-167336185D01*
X230886601Y-167336185D02*
X230958029Y-167479042D01*
X230958029Y-167479042D02*
X231029458Y-167764757D01*
X231029458Y-167764757D02*
X231029458Y-168121900D01*
X231029458Y-168121900D02*
X230958029Y-168407614D01*
X230958029Y-168407614D02*
X230886601Y-168550471D01*
X230886601Y-168550471D02*
X230815172Y-168621900D01*
X230815172Y-168621900D02*
X230672315Y-168693328D01*
X230672315Y-168693328D02*
X230529458Y-168693328D01*
X230529458Y-168693328D02*
X230386601Y-168621900D01*
X230386601Y-168621900D02*
X230315172Y-168550471D01*
X230315172Y-168550471D02*
X230243743Y-168407614D01*
X230243743Y-168407614D02*
X230172315Y-168121900D01*
X230172315Y-168121900D02*
X230172315Y-167764757D01*
X230172315Y-167764757D02*
X230243743Y-167479042D01*
X230243743Y-167479042D02*
X230315172Y-167336185D01*
X230315172Y-167336185D02*
X230386601Y-167264757D01*
X230386601Y-167264757D02*
X230529458Y-167193328D01*
X232743743Y-167121900D02*
X231458029Y-169050471D01*
D10*
D11*
X197002200Y-191507200D02*
X197002200Y-194507200D01*
D10*
D11*
X261002200Y-191507200D02*
X261002200Y-198007200D01*
D14*
%TO.C,C9*%
X173990000Y-125730000D03*
D15*
X170490000Y-125730000D03*
%TD*%
D16*
%TO.C,C1*%
X165100000Y-63500000D03*
D15*
X165100000Y-67000000D03*
%TD*%
%TO.C,C2*%
X149860000Y-78740000D03*
X154860000Y-78740000D03*
%TD*%
%TO.C,C4*%
X173990000Y-72390000D03*
X176490000Y-72390000D03*
%TD*%
%TO.C,C5*%
X163830000Y-118110000D03*
X158830000Y-118110000D03*
%TD*%
%TO.C,C6*%
X184150000Y-113030000D03*
X184150000Y-108030000D03*
%TD*%
D17*
%TO.C,C7*%
X177800000Y-140970000D03*
D15*
X177800000Y-138470000D03*
%TD*%
%TO.C,C8*%
X173990000Y-74930000D03*
X173990000Y-77430000D03*
%TD*%
%TO.C,C10*%
X127000000Y-111125000D03*
X127000000Y-106125000D03*
%TD*%
%TO.C,C11*%
X137160000Y-132080000D03*
X137160000Y-129580000D03*
%TD*%
D17*
%TO.C,C12*%
X171450000Y-140970000D03*
D15*
X171450000Y-138470000D03*
%TD*%
D18*
%TO.C,C14*%
X134620000Y-139700000D03*
D19*
X134620000Y-141700000D03*
%TD*%
D20*
%TO.C,C15*%
X83185000Y-132080000D03*
X90685000Y-132080000D03*
%TD*%
%TO.C,C16*%
X100898000Y-132080000D03*
X108398000Y-132080000D03*
%TD*%
%TO.C,C17*%
X118678000Y-132080000D03*
X126178000Y-132080000D03*
%TD*%
D15*
%TO.C,C18*%
X123972466Y-118892466D03*
X127508000Y-122428000D03*
%TD*%
%TO.C,C19*%
X96520000Y-110490000D03*
X101520000Y-110490000D03*
%TD*%
D21*
%TO.C,D1*%
X136390000Y-80010000D03*
D22*
X141470000Y-80010000D03*
%TD*%
D23*
%TO.C,D2*%
X175260000Y-67310000D03*
D24*
X175260000Y-64770000D03*
%TD*%
D25*
%TO.C,D14*%
X156210000Y-140970000D03*
D26*
X157480000Y-139700000D03*
X158750000Y-140970000D03*
%TD*%
D27*
%TO.C,F1*%
X113030000Y-82550000D03*
X114230000Y-72350000D03*
%TD*%
%TO.C,F2*%
X83820000Y-83185000D03*
X85020000Y-72985000D03*
%TD*%
D28*
%TO.C,FL1*%
X92810000Y-73740000D03*
X105310000Y-73740000D03*
X105310000Y-83740000D03*
X92810000Y-83740000D03*
%TD*%
D29*
%TO.C,J1*%
X182880000Y-72390000D03*
D30*
X182880000Y-74930000D03*
X182880000Y-77470000D03*
%TD*%
D31*
%TO.C,L1*%
X151880000Y-69215000D03*
X157480000Y-69215000D03*
%TD*%
D32*
%TO.C,P1*%
X92710000Y-66040000D03*
%TD*%
%TO.C,P2*%
X106045000Y-66040000D03*
%TD*%
D28*
%TO.C,R1*%
X161290000Y-73660000D03*
D33*
X161290000Y-78740000D03*
%TD*%
D28*
%TO.C,R9*%
X170180000Y-113030000D03*
D33*
X170180000Y-118110000D03*
%TD*%
D28*
%TO.C,R10*%
X158750000Y-124460000D03*
D33*
X163830000Y-124460000D03*
%TD*%
D28*
%TO.C,R11*%
X177800000Y-118745000D03*
D33*
X185420000Y-118745000D03*
%TD*%
D15*
%TO.C,R13*%
X170815000Y-132715000D03*
D34*
X173355000Y-132715000D03*
%TD*%
D35*
%TO.C,R16*%
X133985000Y-124460000D03*
D36*
X133985000Y-129540000D03*
%TD*%
D28*
%TO.C,R18*%
X120650000Y-113030000D03*
D33*
X120650000Y-105410000D03*
%TD*%
D28*
%TO.C,R29*%
X120650000Y-143510000D03*
D33*
X128270000Y-143510000D03*
%TD*%
D28*
%TO.C,R30*%
X93345000Y-143510000D03*
D33*
X100965000Y-143510000D03*
%TD*%
D28*
%TO.C,R31*%
X106680000Y-143510000D03*
D33*
X114300000Y-143510000D03*
%TD*%
D28*
%TO.C,R32*%
X104140000Y-99060000D03*
D33*
X111760000Y-99060000D03*
%TD*%
D28*
%TO.C,R33*%
X110490000Y-91440000D03*
D33*
X102870000Y-91440000D03*
%TD*%
D28*
%TO.C,R34*%
X102870000Y-105410000D03*
D33*
X110490000Y-105410000D03*
%TD*%
D28*
%TO.C,R35*%
X87630000Y-105410000D03*
D33*
X95250000Y-105410000D03*
%TD*%
D28*
%TO.C,R36*%
X93980000Y-99060000D03*
D33*
X86360000Y-99060000D03*
%TD*%
D28*
%TO.C,R37*%
X87630000Y-91440000D03*
D33*
X95250000Y-91440000D03*
%TD*%
D37*
%TO.C,REF1*%
X167640000Y-74930000D03*
D38*
X168910000Y-74930000D03*
X170180000Y-74930000D03*
%TD*%
D39*
%TO.C,T1*%
X149352000Y-117348000D03*
D40*
X148590000Y-120904000D03*
D41*
X145669000Y-121793000D03*
D42*
X142748000Y-120904000D03*
D39*
X141986000Y-117348000D03*
D43*
X151130000Y-124460000D03*
X145680000Y-117460000D03*
X140230000Y-124460000D03*
%TD*%
D44*
%TO.C,T2*%
X149860000Y-134620000D03*
D26*
X148590000Y-133350000D03*
X149860000Y-132080000D03*
%TD*%
D25*
%TO.C,T3*%
X156210000Y-134620000D03*
D26*
X157480000Y-133350000D03*
X158750000Y-134620000D03*
%TD*%
D45*
%TO.C,TP1*%
X133096000Y-118364000D03*
%TD*%
%TO.C,TP2*%
X118364000Y-120396000D03*
%TD*%
D46*
%TO.C,U1*%
X175260000Y-88900000D03*
D47*
X172720000Y-88900000D03*
X172720000Y-96520000D03*
X175260000Y-96520000D03*
%TD*%
D46*
%TO.C,U2*%
X182880000Y-88900000D03*
D47*
X180340000Y-88900000D03*
X180340000Y-96520000D03*
X182880000Y-96520000D03*
%TD*%
D15*
%TO.C,C13*%
X139700000Y-139700000D03*
X139700000Y-142200000D03*
%TD*%
D48*
%TO.C,REF\u002A\u002A*%
X182880000Y-64770000D03*
%TD*%
%TO.C,REF\u002A\u002A*%
X182880000Y-144780000D03*
%TD*%
D49*
%TO.C,REF\u002A\u002A*%
X99060000Y-110490000D03*
%TD*%
%TO.C,REF\u002A\u002A*%
X141986000Y-108204000D03*
%TD*%
D50*
%TO.C,REF\u002A\u002A*%
X127000000Y-108712000D03*
%TD*%
D51*
%TO.C,REF\u002A\u002A*%
X125476000Y-120904000D03*
%TD*%
D49*
%TO.C,REF\u002A\u002A*%
X152654000Y-108204000D03*
%TD*%
D50*
%TO.C,REF\u002A\u002A*%
X181610000Y-92456000D03*
%TD*%
%TO.C,REF\u002A\u002A*%
X174244000Y-92456000D03*
%TD*%
D51*
%TO.C,REF\u002A\u002A*%
X84836000Y-77470000D03*
%TD*%
D52*
%TO.C,REF\u002A\u002A*%
X113538000Y-76962000D03*
%TD*%
D53*
%TO.C,Tr1*%
X147360000Y-85270000D03*
X152360000Y-85270000D03*
X137360000Y-107770000D03*
X147360000Y-107770000D03*
X157360000Y-107770000D03*
X162360000Y-107770000D03*
X171323000Y-107823000D03*
%TD*%
D48*
%TO.C,REF\u002A\u002A*%
X83185000Y-64770000D03*
%TD*%
%TO.C,REF\u002A\u002A*%
X83185000Y-144780000D03*
%TD*%
D54*
%TO.C,D3*%
X175260000Y-112990000D03*
X175260000Y-107990000D03*
%TD*%
D55*
%TO.C,D4*%
X141645000Y-101600000D03*
X146645000Y-101600000D03*
%TD*%
D54*
%TO.C,D5*%
X179705000Y-112990000D03*
X179705000Y-107990000D03*
%TD*%
D55*
%TO.C,D6*%
X132120000Y-101600000D03*
X137120000Y-101600000D03*
%TD*%
D54*
%TO.C,D7*%
X177800000Y-130175000D03*
X177800000Y-125175000D03*
%TD*%
%TO.C,D8*%
X165100000Y-141565000D03*
X165100000Y-136565000D03*
%TD*%
D55*
%TO.C,D9*%
X177840000Y-134620000D03*
X182840000Y-134620000D03*
%TD*%
D54*
%TO.C,D10*%
X140970000Y-135850000D03*
X140970000Y-130850000D03*
%TD*%
D56*
%TO.C,D11*%
X152360000Y-142240000D03*
X147360000Y-142240000D03*
%TD*%
%TO.C,D12*%
X152360000Y-138430000D03*
X147360000Y-138430000D03*
%TD*%
D57*
%TO.C,D13*%
X142240000Y-139870000D03*
X142240000Y-142070000D03*
%TD*%
D56*
%TO.C,D17*%
X106640000Y-116840000D03*
X101640000Y-116840000D03*
%TD*%
D58*
%TO.C,D18*%
X111760000Y-111800000D03*
X111760000Y-116800000D03*
%TD*%
D55*
%TO.C,D19*%
X90845000Y-116840000D03*
X95845000Y-116840000D03*
%TD*%
D58*
%TO.C,D20*%
X85090000Y-111800000D03*
X85090000Y-116800000D03*
%TD*%
D59*
%TO.C,R6*%
X168400000Y-69850000D03*
X169420000Y-69850000D03*
%TD*%
D60*
%TO.C,R14*%
X161925000Y-142875000D03*
X160905000Y-142875000D03*
%TD*%
D61*
%TO.C,R17*%
X161290000Y-139825000D03*
X161290000Y-140845000D03*
%TD*%
D60*
%TO.C,R20*%
X145290000Y-132715000D03*
X144270000Y-132715000D03*
%TD*%
D62*
%TO.C,R21*%
X137160000Y-135130000D03*
X137160000Y-134110000D03*
%TD*%
%TO.C,R22*%
X161925000Y-135765000D03*
X161925000Y-134745000D03*
%TD*%
D59*
%TO.C,R23*%
X144270000Y-134620000D03*
X145290000Y-134620000D03*
%TD*%
D61*
%TO.C,R24*%
X157480000Y-127760000D03*
X157480000Y-128780000D03*
%TD*%
D60*
%TO.C,R25*%
X157355000Y-130810000D03*
X156335000Y-130810000D03*
%TD*%
D62*
%TO.C,R26*%
X153670000Y-133860000D03*
X153670000Y-132840000D03*
%TD*%
%TO.C,R27*%
X158750000Y-137670000D03*
X158750000Y-136650000D03*
%TD*%
D61*
%TO.C,R28*%
X144145000Y-140460000D03*
X144145000Y-141480000D03*
%TD*%
D20*
%TO.C,C3*%
X136645000Y-68580000D03*
X144145000Y-68580000D03*
%TD*%
G36*
X115766121Y-72156002D02*
G01*
X115812614Y-72209658D01*
X115824000Y-72262000D01*
X115824000Y-82678000D01*
X115803998Y-82746121D01*
X115750342Y-82792614D01*
X115698000Y-82804000D01*
X111378000Y-82804000D01*
X111309879Y-82783998D01*
X111263386Y-82730342D01*
X111252000Y-82678000D01*
X111252000Y-72262000D01*
X111272002Y-72193879D01*
X111325658Y-72147386D01*
X111378000Y-72136000D01*
X115698000Y-72136000D01*
X115766121Y-72156002D01*
G37*
G36*
X86553010Y-72918002D02*
G01*
X86599503Y-72971658D01*
X86610852Y-73027072D01*
X86362998Y-83189072D01*
X86341340Y-83256685D01*
X86286567Y-83301856D01*
X86237035Y-83312000D01*
X82168000Y-83312000D01*
X82099879Y-83291998D01*
X82053386Y-83238342D01*
X82042000Y-83186000D01*
X82042000Y-73024000D01*
X82062002Y-72955879D01*
X82115658Y-72909386D01*
X82168000Y-72898000D01*
X86484889Y-72898000D01*
X86553010Y-72918002D01*
G37*
G36*
X101542121Y-108986002D02*
G01*
X101588614Y-109039658D01*
X101600000Y-109092000D01*
X101600000Y-111888000D01*
X101579998Y-111956121D01*
X101526342Y-112002614D01*
X101474000Y-112014000D01*
X96646000Y-112014000D01*
X96577879Y-111993998D01*
X96531386Y-111940342D01*
X96520000Y-111888000D01*
X96520000Y-109092000D01*
X96540002Y-109023879D01*
X96593658Y-108977386D01*
X96646000Y-108966000D01*
X101474000Y-108966000D01*
X101542121Y-108986002D01*
G37*
G36*
X125267591Y-117915449D02*
G01*
X125315796Y-117943543D01*
X128936656Y-121323012D01*
X128972808Y-121384115D01*
X128970187Y-121455063D01*
X128939779Y-121504220D01*
X126581095Y-123862905D01*
X126518783Y-123896930D01*
X126447968Y-123891866D01*
X126402905Y-123862905D01*
X123020529Y-120480529D01*
X122986503Y-120418217D01*
X122991568Y-120347402D01*
X123015969Y-120307144D01*
X125136169Y-117951366D01*
X125196607Y-117914113D01*
X125267591Y-117915449D01*
G37*
G36*
X128720121Y-106192002D02*
G01*
X128766614Y-106245658D01*
X128778000Y-106298000D01*
X128778000Y-111126000D01*
X128757998Y-111194121D01*
X128704342Y-111240614D01*
X128652000Y-111252000D01*
X125602000Y-111252000D01*
X125533879Y-111231998D01*
X125487386Y-111178342D01*
X125476000Y-111126000D01*
X125476000Y-106298000D01*
X125496002Y-106229879D01*
X125549658Y-106183386D01*
X125602000Y-106172000D01*
X128652000Y-106172000D01*
X128720121Y-106192002D01*
G37*
G36*
X152596121Y-105684002D02*
G01*
X152642614Y-105737658D01*
X152654000Y-105790000D01*
X152654000Y-110110000D01*
X152633998Y-110178121D01*
X152580342Y-110224614D01*
X152528000Y-110236000D01*
X135000000Y-110236000D01*
X134931879Y-110215998D01*
X134885386Y-110162342D01*
X134874000Y-110110000D01*
X134874000Y-105790000D01*
X134894002Y-105721879D01*
X134947658Y-105675386D01*
X135000000Y-105664000D01*
X152528000Y-105664000D01*
X152596121Y-105684002D01*
G37*
G36*
X149548121Y-114066002D02*
G01*
X149594614Y-114119658D01*
X149606000Y-114172000D01*
X149606000Y-120338824D01*
X149585998Y-120406945D01*
X149562972Y-120433649D01*
X147609629Y-122142825D01*
X147545191Y-122172629D01*
X147526657Y-122174000D01*
X143816190Y-122174000D01*
X143748069Y-122153998D01*
X143727095Y-122137095D01*
X141768905Y-120178905D01*
X141734879Y-120116593D01*
X141732000Y-120089810D01*
X141732000Y-114172000D01*
X141752002Y-114103879D01*
X141805658Y-114057386D01*
X141858000Y-114046000D01*
X149480000Y-114046000D01*
X149548121Y-114066002D01*
G37*
G36*
X184854121Y-90952002D02*
G01*
X184900614Y-91005658D01*
X184912000Y-91058000D01*
X184912000Y-94108000D01*
X184891998Y-94176121D01*
X184838342Y-94222614D01*
X184786000Y-94234000D01*
X171068000Y-94234000D01*
X170999879Y-94213998D01*
X170953386Y-94160342D01*
X170942000Y-94108000D01*
X170942000Y-91058000D01*
X170962002Y-90989879D01*
X171015658Y-90943386D01*
X171068000Y-90932000D01*
X184786000Y-90932000D01*
X184854121Y-90952002D01*
G37*
D63*
X188188600Y-59512200D02*
X77851000Y-59436000D01*
X188214000Y-150215600D02*
X188188600Y-59486800D01*
X77825600Y-59512200D02*
X77774800Y-150063200D01*
X84531200Y-150088600D02*
X77724000Y-150088600D01*
X188214000Y-150266400D02*
X84531200Y-150088600D01*
M02*
